SplineFontDB: 3.0
FontName: SPSida
FullName: SP Sida
FamilyName: SP Sida
Weight: Book
Copyright: Copyright (c) 2006 by Department of Intellectual Property (DIP), Ministry of Commerce and Software Industry Promotion Agency (Public Organization) (SIPA). All rights reserved.
Version: 2.2
ItalicAngle: 0
UnderlinePosition: -55
UnderlineWidth: 50
Ascent: 800
Descent: 200
LayerCount: 2
Layer: 0 0 "Back"  1
Layer: 1 0 "Fore"  0
NeedsXUIDChange: 1
XUID: [1021 375 425136265 11108798]
FSType: 0
OS2Version: 3
OS2_WeightWidthSlopeOnly: 0
OS2_UseTypoMetrics: 1
CreationTime: 1158666060
ModificationTime: 1241003519
PfmFamily: 17
TTFWeight: 400
TTFWidth: 5
LineGap: 60
VLineGap: 0
Panose: 2 0 5 6 0 0 0 2 0 4
OS2TypoAscent: 0
OS2TypoAOffset: 1
OS2TypoDescent: 0
OS2TypoDOffset: 1
OS2TypoLinegap: 0
OS2WinAscent: -21
OS2WinAOffset: 1
OS2WinDescent: -178
OS2WinDOffset: 1
HheadAscent: -21
HheadAOffset: 1
HheadDescent: 178
HheadDOffset: 1
OS2SubXSize: 700
OS2SubYSize: 650
OS2SubXOff: 0
OS2SubYOff: 140
OS2SupXSize: 700
OS2SupYSize: 650
OS2SupXOff: 0
OS2SupYOff: 477
OS2StrikeYSize: 50
OS2StrikeYPos: 250
OS2FamilyClass: 773
OS2Vendor: 'K2D '
Lookup: 4 0 0 "'frac' Diagonal Fractions in Latin lookup 0"  {"'frac' Diagonal Fractions in Latin lookup 0 subtable"  } ['frac' ('latn' <'dflt' > ) ]
Lookup: 6 0 0 "'liga' Standard Ligatures in Latin lookup 1"  {"'liga' Standard Ligatures in Latin lookup 1 subtable"  } ['liga' ('latn' <'dflt' > ) ]
Lookup: 6 0 0 "'liga' Standard Ligatures in Latin lookup 2"  {"'liga' Standard Ligatures in Latin lookup 2 subtable"  } ['liga' ('latn' <'dflt' > ) ]
Lookup: 6 0 0 "'liga' Standard Ligatures in Latin lookup 3"  {"'liga' Standard Ligatures in Latin lookup 3 subtable"  } ['liga' ('latn' <'dflt' > ) ]
Lookup: 6 0 0 "'liga' Standard Ligatures in Latin lookup 4"  {"'liga' Standard Ligatures in Latin lookup 4 subtable"  } ['liga' ('latn' <'dflt' > ) ]

StartChar: .notdef
Encoding: 65536 -1 0
Width: 753
VWidth: 1507
Flags: W
HStem: 0 53<146 606> 995 53<146 606>
VStem: 95 51<53 995> 606 51<53 995>
LayerCount: 2
Fore
SplineSet
606 53 m 1
 606 995 l 1
 146 995 l 1
 146 53 l 1
 606 53 l 1
657 0 m 1
 95 0 l 1
 95 1048 l 1
 657 1048 l 1
 657 0 l 1
EndSplineSet
Validated: 1
EndChar

StartChar: numbersign
Encoding: 35 35 4
Width: 622
VWidth: 1507
Flags: W
HStem: -10 21G<164 179 339 354> 222 48<65.75 181 238 356 413 533.006> 437 48<89.75 206 264 381 439 557.25> 706 20G<268 283.5 443 458.5>
LayerCount: 2
Fore
SplineSet
410 680 m 2
 414 710 429 726 457 726 c 0
 460 726 463 725 467 725 c 1
 439 485 l 1
 576 485 l 1
 576 453 560 437 528 437 c 2
 433 437 l 1
 413 270 l 1
 552 270 l 1
 552 238 536 222 503 222 c 2
 407 222 l 1
 386 35 l 2
 382 5 367 -10 341 -10 c 0
 337 -10 333 -10 329 -9 c 1
 356 222 l 1
 232 222 l 1
 211 35 l 2
 207 5 192 -10 166 -10 c 0
 162 -10 158 -10 154 -9 c 1
 181 222 l 1
 47 222 l 1
 47 254 63 270 95 270 c 2
 187 270 l 1
 206 437 l 1
 71 437 l 1
 71 469 87 485 119 485 c 2
 213 485 l 1
 235 680 l 2
 239 710 254 726 282 726 c 0
 285 726 288 725 292 725 c 1
 264 485 l 1
 387 485 l 1
 410 680 l 2
238 270 m 1
 362 270 l 1
 381 437 l 1
 258 437 l 1
 238 270 l 1
EndSplineSet
Validated: 1
EndChar

StartChar: dollar
Encoding: 36 36 5
Width: 682
VWidth: 1507
Flags: W
HStem: -8 55<234.016 315 366 446.125> 669 55<239.939 315 366 437.453>
VStem: 60 58<152.001 229.844> 89 61<462.583 592.338> 315 51<-63.0696 -6.61703 47 336 402 669 722.322 779.07> 529 58<489.805 576.529> 562 61<145.128 270.024>
LayerCount: 2
Fore
SplineSet
315 -8 m 1xca
 142 3 60 136 60 204 c 0
 60 246 101 256 119 256 c 1
 118 251 118 246 118 241 c 2
 118 226 l 2xea
 118 141 196 58 315 47 c 1
 315 345 l 1
 211 367 89 392 89 528 c 0
 89 600 148 709 315 724 c 1
 315 749 l 2
 315 783 332 800 366 800 c 1
 366 724 l 1
 558 708 587 551 587 516 c 0
 587 471 543 461 528 461 c 1
 529 466 529 470 529 472 c 2
 529 491 l 2xdc
 529 576 475 656 366 669 c 1
 366 392 l 1
 492 367 623 347 623 216 c 0
 623 104 507 5 366 -8 c 1
 366 -33 l 2
 366 -67 349 -84 315 -84 c 1
 315 -8 l 1xca
366 47 m 1
 473 57 562 133 562 215 c 0
 562 264 532 304 366 336 c 1
 366 47 l 1
315 669 m 1
 224 660 150 600 150 529 c 0xd8
 150 468 173 435 315 402 c 1
 315 669 l 1
EndSplineSet
Validated: 1
EndChar

StartChar: percent
Encoding: 37 37 6
Width: 854
VWidth: 1507
Flags: W
HStem: -5 44<570.338 709.883> 309 44<143.942 285.725> 363 44<568.942 710.143> 677 43<146.418 284.503>
VStem: 65 50<381.379 648.742> 315 50<381.741 648.12> 490 50<67.9844 334.621> 740 50<67.5359 333.594>
LayerCount: 2
Fore
SplineSet
216 720 m 256
 294 720 365 673 365 603 c 2
 365 427 l 2
 365 357 294 309 216 309 c 256
 126 309 65 366 65 427 c 2
 65 603 l 2
 65 669 132 720 216 720 c 256
216 677 m 0
 159 677 115 644 115 603 c 2
 115 427 l 2
 115 383 162 353 216 353 c 0
 267 353 315 383 315 427 c 2
 315 603 l 2
 315 640 274 677 216 677 c 0
641 407 m 256
 731 407 790 351 790 289 c 2
 790 113 l 2
 790 42 716 -5 641 -5 c 256
 556 -5 490 50 490 113 c 2
 490 289 l 2
 490 350 551 407 641 407 c 256
641 363 m 0
 587 363 540 333 540 289 c 2
 540 113 l 2
 540 72 584 39 641 39 c 0
 700 39 740 76 740 113 c 2
 740 289 l 2
 740 333 692 363 641 363 c 0
580 722 m 2
 590 743 604 754 623 754 c 0
 632 754 642 751 653 746 c 1
 274 -6 l 2
 263 -28 249 -39 232 -39 c 0
 223 -39 213 -36 202 -30 c 1
 580 722 l 2
EndSplineSet
Validated: 1
EndChar

StartChar: ampersand
Encoding: 38 38 7
Width: 648
VWidth: 1507
Flags: W
HStem: -9 54<169.188 374.318> 672 53<223.749 359.978>
VStem: 35 60<117.684 274.538> 121 60<482.287 626.777> 392 59<513.72 641.208> 555 51<221.071 303.87>
LayerCount: 2
Fore
SplineSet
639 11 m 1
 628 -1 613 -7 599 -7 c 0
 586 -7 573 -3 561 8 c 2
 491 77 l 1
 397 2 300 -9 252 -9 c 0
 136 -9 35 71 35 190 c 0
 35 302 105 367 182 405 c 1
 141 458 121 508 121 555 c 0
 121 643 185 725 300 725 c 0
 384 725 451 677 451 583 c 0
 451 480 337 414 271 384 c 1
 392 251 l 2
 429 210 461 178 487 155 c 1
 552 226 555 277 555 327 c 1
 589 327 606 308 606 271 c 0
 606 243 598 198 528 121 c 1
 559 86 604 40 639 11 c 1
241 425 m 1
 363 485 392 524 392 577 c 0
 392 606 380 672 294 672 c 0
 211 672 181 607 181 561 c 0
 181 535 184 495 241 425 c 1
95 197 m 0
 95 97 170 45 264 45 c 0
 344 45 408 76 451 116 c 1
 356 214 l 1
 217 365 l 1
 170 342 95 289 95 197 c 0
EndSplineSet
Validated: 1
EndChar

StartChar: quotesingle
Encoding: 39 39 8
Width: 220
VWidth: 1507
Flags: W
HStem: 508 217<88.2775 125.996>
VStem: 75 73<600.556 692.347>
LayerCount: 2
Fore
SplineSet
75 661 m 1
 75 708 107 725 148 725 c 1
 139 565 l 2
 137 537 118 508 84 508 c 1
 75 661 l 1
EndSplineSet
Validated: 1
EndChar

StartChar: parenleft
Encoding: 40 40 9
Width: 287
VWidth: 1507
Flags: W
VStem: 71 60<132.271 482.149>
LayerCount: 2
Fore
SplineSet
276 -112 m 1
 264 -128 251 -129 245 -129 c 0
 234 -129 225 -124 217 -113 c 0
 112 17 71 160 71 307 c 256
 71 454 112 597 217 728 c 0
 225 739 234 744 245 744 c 0
 251 744 264 743 276 727 c 1
 170 598 131 462 131 307 c 256
 131 153 171 17 276 -112 c 1
EndSplineSet
Validated: 1
EndChar

StartChar: asterisk
Encoding: 42 42 11
Width: 434
VWidth: 1507
Flags: W
LayerCount: 2
Fore
SplineSet
185 550 m 1
 30 537 l 1
 30 594 l 1
 185 583 l 1
 89 711 l 1
 146 745 l 1
 217 606 l 1
 285 745 l 1
 341 713 l 1
 244 582 l 1
 401 594 l 1
 401 537 l 1
 244 546 l 1
 341 421 l 1
 282 389 l 1
 213 531 l 1
 181 475 170 445 139 389 c 1
 89 421 l 1
 185 550 l 1
EndSplineSet
Validated: 1
EndChar

StartChar: plus
Encoding: 43 43 12
Width: 602
VWidth: 1507
Flags: W
HStem: 273 51<65.9304 273 330 536.807>
VStem: 273 57<66.5479 273 324 530.17>
LayerCount: 2
Fore
SplineSet
273 273 m 1
 45 273 l 1
 45 307 62 324 96 324 c 2
 273 324 l 1
 273 497 l 2
 273 536 292 555 330 555 c 1
 330 324 l 1
 558 324 l 1
 558 290 541 273 506 273 c 2
 330 273 l 1
 330 99 l 2
 330 61 311 42 273 42 c 1
 273 273 l 1
EndSplineSet
Validated: 1
EndChar

StartChar: comma
Encoding: 44 44 13
Width: 192
VWidth: 1507
Flags: W
HStem: -9 113<53.7954 115.811>
VStem: 116 39<-71.7034 -6>
LayerCount: 2
Fore
SplineSet
98 -9 m 0
 64 -9 42 16 42 47 c 256
 42 78 64 104 98 104 c 256
 132 104 155 78 155 47 c 0
 155 -50 134 -101 78 -145 c 0
 74 -148 69 -149 64 -149 c 0
 59 -149 54 -148 51 -145 c 1
 114 -88 116 -30 116 -6 c 1
 112 -8 106 -9 98 -9 c 0
EndSplineSet
Validated: 1
EndChar

StartChar: hyphen
Encoding: 45 45 14
Width: 354
VWidth: 1507
Flags: W
HStem: 271 55<66.9639 287.036>
VStem: 45 264<277.421 319.579>
LayerCount: 2
Fore
SplineSet
45 271 m 1
 45 308 62 326 96 326 c 2
 309 326 l 1
 309 289 292 271 258 271 c 2
 45 271 l 1
EndSplineSet
Validated: 1
EndChar

StartChar: period
Encoding: 46 46 15
Width: 197
VWidth: 1507
Flags: W
HStem: -9 113<53.7954 142.798>
VStem: 42 113<2.79541 92.5349>
LayerCount: 2
Fore
SplineSet
98 -9 m 256
 64 -9 42 16 42 47 c 256
 42 78 64 104 98 104 c 256
 132 104 155 78 155 47 c 256
 155 13 129 -9 98 -9 c 256
EndSplineSet
Validated: 1
EndChar

StartChar: slash
Encoding: 47 47 16
Width: 420
VWidth: 1507
Flags: W
LayerCount: 2
Fore
SplineSet
363 722 m 2
 373 743 387 754 406 754 c 0
 415 754 425 751 436 746 c 1
 57 -6 l 2
 46 -28 32 -39 15 -39 c 0
 6 -39 -4 -36 -15 -30 c 1
 363 722 l 2
EndSplineSet
Validated: 1
EndChar

StartChar: zero
Encoding: 48 48 17
Width: 693
VWidth: 1507
Flags: W
HStem: -9 54<242.121 451.401> 671 54<242.332 449.747>
VStem: 84 61<130.097 585.903> 549 60<129.323 586.677>
LayerCount: 2
Fore
SplineSet
347 725 m 256
 493 725 609 633 609 522 c 2
 609 194 l 2
 609 83 493 -9 347 -9 c 256
 197 -9 84 85 84 194 c 2
 84 522 l 2
 84 631 198 725 347 725 c 256
347 671 m 256
 234 671 145 605 145 522 c 2
 145 194 l 2
 145 111 234 45 347 45 c 256
 462 45 549 113 549 194 c 2
 549 522 l 2
 549 601 464 671 347 671 c 256
EndSplineSet
Validated: 1
EndChar

StartChar: one
Encoding: 49 49 18
Width: 693
VWidth: 1507
Flags: W
HStem: -9 21G<347 367> 662 54<248.162 347>
VStem: 347 60<18.085 662>
LayerCount: 2
Fore
SplineSet
378 716 m 2
 395 716 407 703 407 687 c 2
 407 51 l 2
 407 11 387 -9 347 -9 c 1
 347 662 l 1
 280 662 l 2
 244 662 226 680 226 716 c 1
 378 716 l 2
EndSplineSet
Validated: 1
EndChar

StartChar: two
Encoding: 50 50 19
Width: 693
VWidth: 1507
Flags: W
HStem: 0 54<149 582.471> 671 54<246.438 447.133>
VStem: 88 57<54 108.173 507.224 578.222> 550 59<445.012 580.595>
LayerCount: 2
Fore
SplineSet
348 725 m 0
 462 725 609 650 609 508 c 0
 609 430 551 367 442 314 c 2
 350 270 l 2
 246 220 166 151 149 54 c 1
 550 54 l 2
 576 54 609 43 609 0 c 1
 115 0 l 2
 98 0 87 10 87 24 c 0
 87 219 304 313 392 349 c 0
 429 364 550 419 550 508 c 0
 550 594 464 671 348 671 c 256
 235 671 145 597 145 508 c 2
 145 494 l 2
 145 490 146 485 148 478 c 1
 118 478 88 499 88 529 c 0
 88 605 189 725 348 725 c 0
EndSplineSet
Validated: 1
EndChar

StartChar: three
Encoding: 51 51 20
Width: 693
VWidth: 1507
Flags: W
HStem: -9 54<245.086 450.614> 362 56<317.674 436.512> 671 54<259.269 435.244>
VStem: 88 57<132.835 212.749> 127 58<537.464 604.09> 508 60<482.823 604.717> 549 60<131.944 274.528>
LayerCount: 2
Fore
SplineSet
127 561 m 0xec
 127 627 209 725 347 725 c 256
 463 725 568 648 568 544 c 0xec
 568 453 487 404 467 392 c 1
 541 362 609 297 609 203 c 0
 609 88 495 -9 347 -9 c 256
 188 -9 88 99 88 183 c 0
 88 226 115 234 148 234 c 1
 146 224 145 215 145 203 c 0
 145 132 212 45 347 45 c 256
 466 45 549 120 549 203 c 256xf2
 549 295 453 362 347 362 c 0
 332 362 317 373 317 390 c 256
 317 407 332 418 347 418 c 0
 453 418 508 488 508 544 c 256
 508 611 439 671 347 671 c 256
 256 671 185 611 185 544 c 2
 185 531 l 2
 185 525 186 519 188 514 c 1
 133 514 127 548 127 561 c 0xec
EndSplineSet
Validated: 1
EndChar

StartChar: four
Encoding: 52 52 21
Width: 693
VWidth: 1507
Flags: W
HStem: -9 21G<467 487> 179 55<139 467 528 642.09> 706 20G<493 500>
VStem: 467 61<17.7817 175 234 612>
LayerCount: 2
Fore
SplineSet
497 726 m 0
 503 726 525 722 528 696 c 2
 528 234 l 1
 650 234 l 1
 650 233 l 2
 650 197 631 179 595 179 c 2
 496 179 l 1
 500 178 l 1
 528 175 l 1
 528 50 l 2
 528 11 507 -9 467 -9 c 1
 467 179 l 1
 81 179 l 2
 58 179 52 197 52 206 c 0
 52 212 54 218 59 225 c 2
 476 716 l 2
 482 723 489 726 497 726 c 0
467 234 m 1
 467 612 l 1
 491 644 l 1
 490 648 l 1
 139 234 l 1
 467 234 l 1
EndSplineSet
Validated: 1
EndChar

StartChar: five
Encoding: 53 53 22
Width: 693
VWidth: 1507
Flags: W
HStem: -9 54<259.066 434.749> 461 54<256.763 433.924> 662 54<280 538.575>
VStem: 88 57<160.81 262.328> 549 60<162.163 344.758>
LayerCount: 2
Fore
SplineSet
347 -9 m 256
 164 -9 88 150 88 234 c 0
 88 283 127 283 148 283 c 1
 146 277 145 271 145 253 c 0
 145 134 238 45 347 45 c 256
 457 45 549 137 549 253 c 0
 549 367 459 461 347 461 c 0
 275 461 224 425 190 384 c 0
 183 377 175 374 167 374 c 0
 151 374 137 385 137 402 c 0
 137 406 137 411 139 415 c 2
 232 693 l 1
 235 708 245 716 261 716 c 2
 561 716 l 1
 561 680 543 662 506 662 c 2
 280 662 l 1
 255 586 l 1
 238 540 231 512 225 493 c 1
 210 482 l 1
 205 480 201 476 196 472 c 1
 200 470 l 1
 245 500 294 515 347 515 c 0
 497 515 609 392 609 253 c 256
 609 106 488 -9 347 -9 c 256
EndSplineSet
Validated: 1
EndChar

StartChar: six
Encoding: 54 54 23
Width: 693
VWidth: 1507
Flags: W
HStem: -9 54<258.682 434.749> 461 54<274.42 433.924>
VStem: 84 61<159.741 345.755> 549 60<162.163 344.758>
LayerCount: 2
Fore
SplineSet
347 -9 m 256
 198 -9 84 112 84 253 c 0
 84 279 86 355 164 442 c 1
 410 705 l 2
 422 719 435 726 449 726 c 0
 461 726 474 720 487 708 c 1
 311 519 l 1
 296 516 282 512 270 508 c 1
 274 505 l 1
 310 513 332 515 347 515 c 0
 497 515 609 392 609 253 c 256
 609 106 488 -9 347 -9 c 256
347 45 m 256
 457 45 549 137 549 253 c 0
 549 367 459 461 347 461 c 256
 236 461 145 370 145 253 c 0
 145 134 238 45 347 45 c 256
EndSplineSet
Validated: 1
EndChar

StartChar: seven
Encoding: 55 55 24
Width: 693
VWidth: 1507
Flags: W
HStem: -9 21G<233.5 247> 662 54<117.162 546>
LayerCount: 2
Fore
SplineSet
546 662 m 1
 149 662 l 2
 113 662 95 680 95 716 c 1
 588 716 l 2
 601 716 619 705 619 687 c 0
 619 682 617 677 615 672 c 2
 280 21 l 2
 270 1 256 -9 238 -9 c 0
 229 -9 218 -6 206 0 c 1
 546 662 l 1
EndSplineSet
Validated: 1
EndChar

StartChar: eight
Encoding: 56 56 25
Width: 693
VWidth: 1507
Flags: W
HStem: -9 54<243.3 450.614> 362 56<258.369 436.512> 671 54<259.925 435.244>
VStem: 84 61<131.955 274.746> 125 60<482.237 606.034> 508 60<482.823 604.717> 549 60<131.944 274.528>
LayerCount: 2
Fore
SplineSet
226 392 m 1xf2
 175 420 125 469 125 544 c 0
 125 644 225 725 347 725 c 256
 463 725 568 648 568 544 c 0xec
 568 453 487 404 467 392 c 1
 541 362 609 297 609 203 c 0
 609 88 495 -9 347 -9 c 256
 209 -9 84 79 84 203 c 0
 84 296 153 362 226 392 c 1xf2
347 362 m 256
 243 362 145 297 145 203 c 256
 145 132 212 45 347 45 c 256
 466 45 549 120 549 203 c 256xf2
 549 295 453 362 347 362 c 256
347 671 m 256
 256 671 185 611 185 544 c 256
 185 479 252 418 347 418 c 256
 453 418 508 488 508 544 c 256xec
 508 611 439 671 347 671 c 256
EndSplineSet
Validated: 1
EndChar

StartChar: nine
Encoding: 57 57 26
Width: 693
VWidth: 1507
Flags: W
HStem: 200 55<257.77 419.219> 671 54<260.24 433.344>
VStem: 84 61<369.477 555.617> 549 60<371.651 552.199>
LayerCount: 2
Fore
SplineSet
347 725 m 256
 494 725 609 604 609 463 c 0
 609 438 608 359 529 274 c 2
 283 11 l 2
 271 -3 258 -10 244 -10 c 0
 232 -10 219 -4 206 8 c 1
 383 197 l 1
 398 200 411 204 424 208 c 1
 419 211 l 1
 398 205 373 200 347 200 c 0
 200 200 84 320 84 463 c 256
 84 603 197 725 347 725 c 256
347 671 m 256
 236 671 145 580 145 463 c 0
 145 345 236 255 347 255 c 256
 457 255 549 346 549 463 c 0
 549 577 459 671 347 671 c 256
EndSplineSet
Validated: 1
EndChar

StartChar: less
Encoding: 60 60 29
Width: 602
VWidth: 1507
Flags: W
LayerCount: 2
Fore
SplineSet
60 318 m 2
 553 589 l 1
 558 578 560 569 560 560 c 0
 560 544 552 531 535 522 c 2
 130 298 l 1
 535 75 l 2
 552 66 560 53 560 37 c 0
 560 28 558 19 553 8 c 1
 60 279 l 2
 52 284 48 290 48 298 c 256
 48 307 52 313 60 318 c 2
EndSplineSet
Validated: 1
EndChar

StartChar: equal
Encoding: 61 61 30
Width: 602
VWidth: 1507
Flags: W
HStem: 182 52<65.9304 536.807> 363 52<65.9304 536.807>
LayerCount: 2
Fore
SplineSet
45 363 m 1
 45 398 62 415 96 415 c 2
 558 415 l 1
 558 380 541 363 506 363 c 2
 45 363 l 1
45 182 m 1
 45 217 62 234 96 234 c 2
 558 234 l 1
 558 199 541 182 506 182 c 2
 45 182 l 1
EndSplineSet
Validated: 1
EndChar

StartChar: question
Encoding: 63 63 32
Width: 503
VWidth: 1507
Flags: W
HStem: -9 113<201.795 290.798> 674 51<163.548 328.709>
VStem: 36 56<523.783 604.03> 190 113<2.79541 92.5349> 217 57<169.548 292.166> 399 58<452.444 603.232>
LayerCount: 2
Fore
SplineSet
36 548 m 0xec
 36 590 80 725 246 725 c 0
 364 725 457 645 457 526 c 0
 457 485 447 451 428 426 c 0
 353 326 274 311 274 234 c 2
 274 202 l 2
 274 164 255 145 217 145 c 1
 217 234 l 2
 217 377 399 385 399 526 c 0
 399 610 338 674 246 674 c 0
 166 674 92 623 92 526 c 2
 92 512 l 2
 92 508 92 503 93 497 c 1
 68 497 36 515 36 548 c 0xec
246 -9 m 256
 212 -9 190 16 190 47 c 256
 190 78 212 104 246 104 c 256
 280 104 303 78 303 47 c 256xf4
 303 13 277 -9 246 -9 c 256
EndSplineSet
Validated: 1
EndChar

StartChar: at
Encoding: 64 64 33
Width: 847
VWidth: 1507
Flags: W
HStem: -9 45<329.272 555.908> 137 48<306.124 419.822 531.846 617.783> 526 50<385.048 499.271> 681 44<327.987 551.45>
VStem: 75 52<239.831 472.146> 213 61<217.462 387.032> 720 52<320.235 524.426>
LayerCount: 2
Fore
SplineSet
274 288 m 0
 274 228 309 185 362 185 c 0
 451 185 529 335 529 431 c 0
 529 484 491 526 451 526 c 0
 338 526 274 374 274 288 c 0
455 576 m 0
 496 576 540 558 562 493 c 1
 588 556 l 1
 639 556 l 1
 546 265 l 2
 532 228 531 221 531 210 c 0
 531 191 540 182 559 182 c 256
 636 182 720 313 720 424 c 0
 720 578 589 681 440 681 c 0
 252 681 127 524 127 354 c 0
 127 179 265 36 442 36 c 0
 547 36 647 90 704 173 c 0
 712 184 720 190 729 190 c 0
 737 190 746 184 755 173 c 1
 689 57 565 -9 442 -9 c 0
 221 -9 75 176 75 362 c 0
 75 553 235 725 439 725 c 0
 634 725 772 588 772 422 c 0
 772 275 659 137 549 137 c 0
 513 137 482 162 481 205 c 1
 479 205 l 1
 451 175 403 137 348 137 c 0
 250 137 213 219 213 282 c 0
 213 409 296 576 455 576 c 0
EndSplineSet
Validated: 1
EndChar

StartChar: A
Encoding: 65 65 34
Width: 633
VWidth: 1507
Flags: W
HStem: -9 21G<53.5 76.8189 556.263 579.5> 234 54<185 449> 705 20G<309.5 324>
LayerCount: 2
Fore
SplineSet
69 -9 m 1
 38 3 31 29 31 46 c 0
 31 54 32 61 35 69 c 2
 288 707 l 2
 292 719 302 725 317 725 c 0
 331 725 340 719 345 707 c 2
 598 69 l 2
 601 62 602 54 602 47 c 0
 602 33 595 4 564 -9 c 1
 470 234 l 1
 164 234 l 1
 69 -9 l 1
185 288 m 1
 449 288 l 1
 306 657 l 1
 304 653 l 1
 314 623 l 1
 185 288 l 1
EndSplineSet
Validated: 1
EndChar

StartChar: B
Encoding: 66 66 35
Width: 700
VWidth: 1507
Flags: W
HStem: 0 54<151 540.853> 332 54<151 474.609> 662 54<151 475.524>
VStem: 90 61<54 332 386 662> 535 60<450.774 598.905> 595 61<107.913 277.127>
LayerCount: 2
Fore
SplineSet
595 525 m 0
 595 474 568 406 512 377 c 1
 617 354 656 264 656 194 c 0
 656 84 584 -0 475 0 c 2
 121 0 l 2
 104 0 90 15 90 30 c 2
 90 686 l 2
 90 704 105 716 121 716 c 2
 415 716 l 2
 511 716 595 630 595 525 c 0
535 525 m 256
 535 594 480 662 415 662 c 2
 151 662 l 1
 151 386 l 1
 415 386 l 2
 481 386 535 457 535 525 c 256
595 194 m 0
 595 285 538 332 475 332 c 2
 151 332 l 1
 151 54 l 1
 475 54 l 2
 529 54 595 91 595 194 c 0
EndSplineSet
Validated: 1
EndChar

StartChar: C
Encoding: 67 67 36
Width: 699
VWidth: 1507
Flags: W
HStem: -9 54<255.548 461.903> 671 54<255.595 461.685>
VStem: 75 61<151.212 566.439> 580 59<149.693 228.541 487.156 566.619>
LayerCount: 2
Fore
SplineSet
357 671 m 256
 242 671 136 596 136 491 c 2
 136 226 l 2
 136 129 233 45 357 45 c 256
 485 45 580 131 580 226 c 2
 580 238 l 2
 580 245 580 251 579 256 c 1
 598 256 638 246 638 204 c 0
 638 119 536 -9 357 -9 c 0
 221 -9 75 83 75 226 c 2
 75 491 l 2
 75 636 223 725 357 725 c 0
 549 725 639 586 639 513 c 0
 639 471 597 461 579 461 c 1
 580 466 580 470 580 472 c 2
 580 491 l 2
 580 594 477 671 357 671 c 256
EndSplineSet
Validated: 1
EndChar

StartChar: D
Encoding: 68 68 37
Width: 729
VWidth: 1507
Flags: W
HStem: 0 54<151 472.21> 662 54<151 474.411>
VStem: 90 61<54 662> 595 59<160.926 555.171>
LayerCount: 2
Fore
SplineSet
121 0 m 2
 101 0 90 15 90 30 c 2
 90 686 l 2
 90 706 100 716 121 716 c 2
 372 716 l 2
 496 716 654 637 654 482 c 2
 654 235 l 2
 654 101 520 0 372 0 c 2
 121 0 l 2
595 482 m 2
 595 586 489 662 372 662 c 2
 151 662 l 1
 151 54 l 1
 372 54 l 2
 494 54 595 136 595 235 c 2
 595 482 l 2
EndSplineSet
Validated: 1
EndChar

StartChar: E
Encoding: 69 69 38
Width: 699
VWidth: 1507
Flags: W
HStem: -9 54<255.548 461.903> 332 54<136 411.838> 671 54<255.595 461.685>
VStem: 75 61<151.212 332 386 566.439> 580 59<149.693 228.541 487.156 566.619>
LayerCount: 2
Fore
SplineSet
357 671 m 256
 242 671 136 596 136 491 c 2
 136 386 l 1
 434 386 l 1
 434 350 416 332 380 332 c 2
 136 332 l 1
 136 226 l 2
 136 129 233 45 357 45 c 256
 485 45 580 131 580 226 c 2
 580 238 l 2
 580 245 580 251 579 256 c 1
 598 256 638 246 638 204 c 0
 638 119 536 -9 357 -9 c 0
 221 -9 75 83 75 226 c 2
 75 491 l 2
 75 636 223 725 357 725 c 0
 549 725 639 586 639 513 c 0
 639 471 597 461 579 461 c 1
 580 466 580 470 580 472 c 2
 580 491 l 2
 580 594 477 671 357 671 c 256
EndSplineSet
Validated: 1
EndChar

StartChar: F
Encoding: 70 70 39
Width: 699
VWidth: 1507
Flags: W
HStem: -9 21G<75 95.5> 332 54<136 411.838> 671 54<255.595 461.632>
VStem: 75 61<18.085 332 386 566.439> 580 58<487.156 566.619>
LayerCount: 2
Fore
SplineSet
357 671 m 256
 242 671 136 596 136 491 c 2
 136 386 l 1
 434 386 l 1
 434 350 416 332 380 332 c 2
 136 332 l 1
 136 51 l 2
 136 11 116 -9 75 -9 c 1
 75 491 l 2
 75 636 223 725 357 725 c 0
 549 725 638 583 638 514 c 0
 638 470 597 461 579 461 c 1
 580 466 580 470 580 472 c 2
 580 491 l 2
 580 594 477 671 357 671 c 256
EndSplineSet
Validated: 1
EndChar

StartChar: G
Encoding: 71 71 40
Width: 714
VWidth: 1507
Flags: W
HStem: -9 54<255.548 460.812> 332 54<381.162 579> 671 54<255.595 461.685>
VStem: 75 61<151.212 566.439> 579 60<152.75 332 487.156 568.235>
LayerCount: 2
Fore
SplineSet
609 386 m 2
 626 386 639 371 639 356 c 2
 639 226 l 2
 639 71 480 -9 357 -9 c 256
 221 -9 75 83 75 226 c 2
 75 491 l 2
 75 636 223 725 357 725 c 0
 549 725 639 586 639 513 c 0
 639 471 597 461 579 461 c 1
 580 466 580 470 580 472 c 2
 580 491 l 2
 580 594 477 671 357 671 c 256
 242 671 136 596 136 491 c 2
 136 226 l 2
 136 129 233 45 357 45 c 256
 490 45 579 137 579 226 c 2
 579 332 l 1
 359 332 l 1
 359 368 377 386 413 386 c 2
 609 386 l 2
EndSplineSet
Validated: 1
EndChar

StartChar: H
Encoding: 72 72 41
Width: 744
VWidth: 1507
Flags: W
HStem: -9 21G<90 110.5 594 614> 332 54<151 594> 705 20G<130.5 151 634 654>
VStem: 90 61<18.085 332 386 697.915> 594 60<18.085 332 386 697.915>
LayerCount: 2
Fore
SplineSet
654 51 m 2
 654 11 634 -9 594 -9 c 1
 594 332 l 1
 151 332 l 1
 151 51 l 2
 151 11 131 -9 90 -9 c 1
 90 665 l 2
 90 705 110 725 151 725 c 1
 151 386 l 1
 594 386 l 1
 594 665 l 2
 594 705 614 725 654 725 c 1
 654 51 l 2
EndSplineSet
Validated: 1
EndChar

StartChar: I
Encoding: 73 73 42
Width: 241
VWidth: 1507
Flags: W
HStem: -9 21G<90 110.5> 705 20G<130.5 151>
VStem: 90 61<18.085 697.915>
LayerCount: 2
Fore
SplineSet
151 51 m 2
 151 11 131 -9 90 -9 c 1
 90 665 l 2
 90 705 110 725 151 725 c 1
 151 51 l 2
EndSplineSet
Validated: 1
EndChar

StartChar: J
Encoding: 74 74 43
Width: 640
VWidth: 1507
Flags: W
HStem: -9 54<224.143 402.448> 662 54<331.162 505>
VStem: 63 58<143.497 229.844> 505 60<145.345 662>
LayerCount: 2
Fore
SplineSet
124 256 m 1
 122 250 121 244 121 226 c 0
 121 135 199 45 314 45 c 0
 420 45 505 130 505 226 c 2
 505 662 l 1
 363 662 l 2
 327 662 309 680 309 716 c 1
 537 716 l 2
 556 716 565 706 565 686 c 2
 565 226 l 2
 565 93 447 -9 314 -9 c 0
 139 -9 63 139 63 204 c 0
 63 246 103 256 124 256 c 1
EndSplineSet
Validated: 1
EndChar

StartChar: K
Encoding: 75 75 44
Width: 684
VWidth: 1507
Flags: W
HStem: -9 21G<90 110.5 534 554> 368 54<274.261 430.488> 705 20G<130.5 151 531.06 558>
VStem: 90 61<18.085 269.747 342 697.915> 534 60<18.085 265.013>
LayerCount: 2
Fore
SplineSet
342 368 m 256
 230 368 151 279 151 187 c 2
 151 51 l 2
 151 11 131 -9 90 -9 c 1
 90 665 l 2
 90 705 110 725 151 725 c 1
 151 342 l 1
 552 725 l 1
 564 713 570 700 570 687 c 0
 570 674 563 661 550 648 c 2
 321 430 l 1
 310 426 288 419 270 407 c 1
 274 405 l 1
 291 414 318 422 342 422 c 0
 469 422 594 325 594 187 c 2
 594 51 l 2
 594 11 574 -9 534 -9 c 1
 534 187 l 2
 534 277 453 368 342 368 c 256
EndSplineSet
Validated: 1
EndChar

StartChar: L
Encoding: 76 76 45
Width: 624
VWidth: 1507
Flags: W
HStem: 0 54<151 571.838> 705 20G<130.5 151>
VStem: 90 61<54 697.915>
LayerCount: 2
Fore
SplineSet
121 0 m 2
 101 0 90 15 90 30 c 2
 90 665 l 2
 90 705 110 725 151 725 c 1
 151 54 l 1
 540 54 l 2
 576 54 594 36 594 0 c 1
 121 0 l 2
EndSplineSet
Validated: 1
EndChar

StartChar: M
Encoding: 77 77 46
Width: 856
VWidth: 1507
Flags: W
HStem: -9 21G<90 110.5 420 436 705 725.5> 705 20G<130.5 159.671 696.342 725.5>
VStem: 90 61<18.085 589.412> 705 61<18.085 589.412>
LayerCount: 2
Fore
SplineSet
90 665 m 2
 90 705 110 725 151 725 c 1
 425 93 l 1
 416 66 l 1
 418 62 l 1
 705 725 l 1
 746 725 766 705 766 665 c 2
 766 51 l 2
 766 11 746 -9 705 -9 c 1
 705 568 l 1
 722 620 l 1
 720 624 l 1
 455 11 l 2
 453 6 444 -9 428 -9 c 256
 412 -9 403 6 401 11 c 2
 136 624 l 1
 134 620 l 1
 151 568 l 1
 151 51 l 2
 151 11 131 -9 90 -9 c 1
 90 665 l 2
EndSplineSet
Validated: 1
EndChar

StartChar: N
Encoding: 78 78 47
Width: 744
VWidth: 1507
Flags: W
HStem: -9 21G<90 110.5 580.1 614> 705 20G<130.5 164.9 594 614>
VStem: 90 61<18.085 613> 594 60<102 697.915>
LayerCount: 2
Fore
SplineSet
90 665 m 2
 90 705 110 725 151 725 c 1
 609 66 l 1
 610 71 l 1
 594 102 l 1
 594 725 l 1
 634 725 654 705 654 665 c 2
 654 51 l 2
 654 11 634 -9 594 -9 c 1
 136 650 l 1
 134 645 l 1
 151 613 l 1
 151 51 l 2
 151 11 131 -9 90 -9 c 1
 90 665 l 2
EndSplineSet
Validated: 1
EndChar

StartChar: O
Encoding: 79 79 48
Width: 854
VWidth: 1507
Flags: W
HStem: -9 54<315.494 537.781> 671 54<317.304 535.405>
VStem: 60 61<244.805 470.555> 734 60<243.207 469.058>
LayerCount: 2
Fore
SplineSet
427 -9 m 256
 215 -9 60 163 60 357 c 256
 60 562 224 725 427 725 c 256
 626 725 794 568 794 357 c 256
 794 159 638 -9 427 -9 c 256
427 671 m 256
 263 671 121 535 121 357 c 256
 121 195 245 45 427 45 c 256
 606 45 734 191 734 357 c 256
 734 540 588 671 427 671 c 256
EndSplineSet
Validated: 1
EndChar

StartChar: P
Encoding: 80 80 49
Width: 714
VWidth: 1507
Flags: W
HStem: -9 21G<90 110.5> 332 54<151 534.162> 662 54<151 534.047>
VStem: 90 61<18.085 332 386 662> 594 60<450.621 598.54>
LayerCount: 2
Fore
SplineSet
654 525 m 256
 654 431 581 332 473 332 c 2
 151 332 l 1
 151 51 l 2
 151 11 131 -9 90 -9 c 1
 90 686 l 2
 90 706 100 716 121 716 c 2
 473 716 l 2
 570 716 654 629 654 525 c 256
594 525 m 256
 594 587 546 662 473 662 c 2
 151 662 l 1
 151 386 l 1
 473 386 l 2
 539 386 594 455 594 525 c 256
EndSplineSet
Validated: 1
EndChar

StartChar: Q
Encoding: 81 81 50
Width: 854
VWidth: 1507
Flags: W
HStem: -10 48<721.724 779.273> -9 54<313.439 538.44> 244 54<156.089 389.016> 671 54<317.304 535.405>
VStem: 60 61<277.003 470.555> 734 60<242.512 469.058>
LayerCount: 2
Fore
SplineSet
755 -10 m 0xbc
 715 -10 665 28 633 53 c 1
 580 17 511 -9 427 -9 c 0x7c
 215 -9 60 163 60 357 c 256
 60 562 224 725 427 725 c 256
 626 725 794 568 794 357 c 0
 794 250 749 156 678 89 c 1
 736 44 771 38 794 38 c 1
 794 1 777 -10 755 -10 c 0xbc
427 671 m 256
 263 671 121 535 121 357 c 0
 121 327 124 300 131 276 c 1
 173 291 218 298 265 298 c 0
 481 298 604 143 635 127 c 1
 690 178 734 257 734 357 c 0
 734 540 588 671 427 671 c 256
151 220 m 1
 195 125 293 45 427 45 c 0
 485 45 539 61 589 92 c 1
 488 184 395 244 265 244 c 0
 197 244 161 225 151 220 c 1
EndSplineSet
Validated: 1
EndChar

StartChar: R
Encoding: 82 82 51
Width: 731
VWidth: 1507
Flags: W
HStem: -9 21G<90 110.5 595 615.5> 332 54<151 535.205> 662 54<151 534.047>
VStem: 90 61<18.085 332 386 662> 595 61<18.085 276.637 450.846 598.54>
LayerCount: 2
Fore
SplineSet
594 525 m 256
 594 587 546 662 473 662 c 2
 151 662 l 1
 151 386 l 1
 473 386 l 2
 539 386 594 455 594 525 c 256
595 194 m 2
 595 285 538 332 473 332 c 2
 151 332 l 1
 151 51 l 2
 151 11 131 -9 90 -9 c 1
 90 686 l 2
 90 706 100 716 121 716 c 2
 473 716 l 2
 570 716 654 629 654 525 c 0
 654 455 609 385 558 356 c 1
 614 330 656 268 656 194 c 2
 656 51 l 2
 656 11 636 -9 595 -9 c 1
 595 194 l 2
EndSplineSet
Validated: 1
EndChar

StartChar: S
Encoding: 83 83 52
Width: 684
VWidth: 1507
Flags: W
HStem: -9 54<237.764 443.037> 671 54<241.144 432.85>
VStem: 60 58<152.183 229.844> 89 61<464.564 591.668> 529 58<489.805 576.472> 562 61<146.716 266.761>
LayerCount: 2
Fore
SplineSet
341 -9 m 0xd4
 153 -9 60 129 60 204 c 0
 60 246 101 256 119 256 c 1
 118 251 118 248 118 245 c 2
 118 226 l 2
 118 131 213 45 341 45 c 0
 456 45 562 124 562 215 c 0xe4
 562 298 443 321 335 342 c 0
 199 368 89 399 89 527 c 0
 89 618 173 725 341 725 c 0
 540 725 587 572 587 516 c 0
 587 471 543 461 528 461 c 1
 529 466 529 470 529 472 c 2
 529 491 l 2xd8
 529 582 464 671 341 671 c 256
 221 671 150 596 150 528 c 0
 150 455 195 427 347 396 c 2
 454 374 l 2
 607 341 623 268 623 217 c 0
 623 99 493 -9 341 -9 c 0xd4
EndSplineSet
Validated: 1
EndChar

StartChar: T
Encoding: 84 84 53
Width: 562
VWidth: 1507
Flags: W
HStem: -9 21G<252 272> 662 54<22.1616 252 312 539.838>
VStem: 252 60<18.085 662>
LayerCount: 2
Fore
SplineSet
562 716 m 1
 562 680 544 662 508 662 c 2
 312 662 l 1
 312 51 l 2
 312 11 292 -9 252 -9 c 1
 252 662 l 1
 0 662 l 1
 0 698 18 716 54 716 c 2
 562 716 l 1
EndSplineSet
Validated: 1
EndChar

StartChar: U
Encoding: 85 85 54
Width: 744
VWidth: 1507
Flags: W
HStem: -9 54<268.772 474.907> 705 20G<130.5 151 634 654>
VStem: 90 61<149.355 697.915> 594 60<152.308 697.915>
LayerCount: 2
Fore
SplineSet
372 -9 m 256
 242 -9 90 78 90 226 c 2
 90 665 l 2
 90 705 110 725 151 725 c 1
 151 226 l 2
 151 129 248 45 372 45 c 256
 505 45 594 137 594 226 c 2
 594 665 l 2
 594 705 614 725 654 725 c 1
 654 226 l 2
 654 79 505 -9 372 -9 c 256
EndSplineSet
Validated: 1
EndChar

StartChar: V
Encoding: 86 86 55
Width: 651
VWidth: 1507
Flags: W
HStem: -9 21G<318.5 333> 708 20G<35 45.5 605.5 616>
LayerCount: 2
Fore
SplineSet
323 93 m 1
 314 63 l 1
 315 59 l 1
 558 687 l 2
 570 719 599 728 612 728 c 0
 620 728 628 726 636 722 c 1
 354 9 l 2
 349 -3 340 -9 326 -9 c 256
 311 -9 302 -3 297 9 c 2
 15 722 l 1
 23 726 31 728 39 728 c 0
 52 728 81 719 93 687 c 2
 323 93 l 1
EndSplineSet
Validated: 1
EndChar

StartChar: W
Encoding: 87 87 56
Width: 961
VWidth: 1507
Flags: W
HStem: -9 21G<286.5 307.41 650.585 671.5> 707 20G<30 42 916.5 928.5>
LayerCount: 2
Fore
SplineSet
301 -9 m 1
 272 -9 252 8 241 41 c 2
 15 724 l 1
 21 726 27 727 33 727 c 0
 51 727 81 718 92 684 c 2
 277 110 l 1
 270 78 l 1
 271 74 l 1
 451 636 l 2
 456 649 465 656 479 656 c 256
 493 656 503 649 508 636 c 2
 675 110 l 1
 668 78 l 1
 669 74 l 1
 867 684 l 2
 877 717 908 727 925 727 c 0
 932 727 938 726 944 724 c 1
 717 41 l 2
 706 8 686 -9 657 -9 c 1
 470 574 l 1
 469 570 l 1
 476 537 l 1
 301 -9 l 1
EndSplineSet
Validated: 1
EndChar

StartChar: X
Encoding: 88 88 57
Width: 633
VWidth: 1507
Flags: W
HStem: -10 21G<43 51 584 592> 707 20G<56 64.5 568.5 577>
LayerCount: 2
Fore
SplineSet
30 716 m 1
 40 723 51 727 61 727 c 0
 68 727 91 725 109 701 c 2
 317 415 l 1
 525 701 l 2
 541 725 565 727 572 727 c 0
 582 727 593 723 603 716 c 1
 350 369 l 1
 618 2 l 1
 608 -6 597 -10 587 -10 c 0
 581 -10 559 -8 540 18 c 2
 317 324 l 1
 93 18 l 2
 76 -6 56 -10 46 -10 c 0
 40 -10 15 2 15 2 c 1
 283 369 l 1
 30 716 l 1
EndSplineSet
Validated: 1
EndChar

StartChar: Y
Encoding: 89 89 58
Width: 602
VWidth: 1507
Flags: W
HStem: -9 21G<271 291> 707 20G<41 49.5 553.5 562>
VStem: 271 61<17.7817 365>
LayerCount: 2
Fore
SplineSet
332 365 m 1
 332 50 l 2
 332 11 311 -9 271 -9 c 1
 271 365 l 1
 15 716 l 1
 25 723 36 727 46 727 c 0
 53 727 77 725 93 701 c 2
 301 415 l 1
 509 701 l 2
 527 725 550 727 557 727 c 0
 567 727 578 723 588 716 c 1
 332 365 l 1
EndSplineSet
Validated: 1
EndChar

StartChar: Z
Encoding: 90 90 59
Width: 633
VWidth: 1507
Flags: W
HStem: 0 54<118 580.838> 662 54<52.1616 515>
LayerCount: 2
Fore
SplineSet
60 0 m 2
 36 0 30 22 30 31 c 0
 30 36 32 42 36 47 c 2
 538 683 l 1
 534 681 l 1
 515 662 l 1
 84 662 l 2
 48 662 30 680 30 716 c 1
 573 716 l 2
 597 716 603 694 603 685 c 0
 603 680 601 674 597 669 c 2
 95 33 l 1
 99 35 l 1
 118 54 l 1
 549 54 l 2
 585 54 603 36 603 0 c 1
 60 0 l 2
EndSplineSet
Validated: 1
EndChar

StartChar: bracketleft
Encoding: 91 91 60
Width: 287
VWidth: 1507
Flags: W
HStem: -130 55<148 271.744> 689 54<148 272.838>
VStem: 90 58<-75 689>
LayerCount: 2
Fore
SplineSet
90 -130 m 1
 90 743 l 1
 295 743 l 1
 295 707 277 689 241 689 c 2
 148 689 l 1
 148 -75 l 1
 241 -75 l 2
 277 -75 295 -93 295 -130 c 1
 90 -130 l 1
EndSplineSet
Validated: 1
EndChar

StartChar: backslash
Encoding: 92 92 61
Width: 420
VWidth: 1507
Flags: W
LayerCount: 2
Fore
SplineSet
436 -30 m 1
 425 -36 415 -39 405 -39 c 0
 388 -39 374 -28 363 -6 c 2
 -15 746 l 1
 -4 751 6 754 15 754 c 0
 33 754 47 743 57 722 c 2
 436 -30 l 1
EndSplineSet
Validated: 1
EndChar

StartChar: asciicircum
Encoding: 94 94 63
Width: 642
VWidth: 1507
Flags: W
HStem: 700 20G<315.5 329>
LayerCount: 2
Fore
SplineSet
323 720 m 0
 335 719 344 714 348 704 c 2
 570 211 l 1
 563 207 555 206 547 206 c 0
 538 206 511 208 500 232 c 2
 321 638 l 1
 142 232 l 2
 131 208 104 206 95 206 c 0
 87 206 79 207 72 211 c 1
 294 704 l 2
 299 715 308 720 323 720 c 0
EndSplineSet
Validated: 1
EndChar

StartChar: underscore
Encoding: 95 95 64
Width: 542
VWidth: 1507
Flags: W
HStem: -282 48<0 543>
LayerCount: 2
Fore
SplineSet
0 -282 m 1
 0 -234 l 1
 543 -234 l 1
 543 -282 l 1
 0 -282 l 1
EndSplineSet
Validated: 1
EndChar

StartChar: grave
Encoding: 96 96 65
Width: 325
VWidth: 1507
Flags: W
HStem: 562 157
VStem: 65 190
LayerCount: 2
Fore
SplineSet
255 562 m 1
 229 562 204 564 191 579 c 2
 65 719 l 1
 99 719 l 2
 134 719 158 710 170 692 c 2
 255 562 l 1
EndSplineSet
Validated: 1
EndChar

StartChar: a
Encoding: 97 97 66
Width: 557
VWidth: 1507
Flags: W
HStem: -9 50<177.609 349.569> 283 50<178.951 349.165> 470 50<183.684 347.42>
VStem: 60 55<98.998 223.495> 413 54<13.1616 59.4873 99.0973 223.332 264.513 411.532>
LayerCount: 2
Fore
SplineSet
60 161 m 256
 60 255 150 333 264 333 c 0
 364 333 414 281 431 259 c 1
 433 264 l 1
 424 275 418 282 413 285 c 1
 413 350 l 2
 413 410 354 470 264 470 c 0
 172 470 123 397 110 372 c 1
 95 383 85 402 85 419 c 0
 85 451 158 520 264 520 c 0
 355 520 467 462 467 350 c 2
 467 45 l 2
 467 9 449 -9 413 -9 c 1
 413 39 l 1
 418 42 424 49 433 60 c 1
 431 65 l 1
 414 43 364 -9 264 -9 c 0
 163 -9 60 58 60 161 c 256
115 161 m 0
 115 101 171 41 264 41 c 256
 357 41 413 101 413 161 c 0
 413 215 362 283 264 283 c 256
 163 283 115 215 115 161 c 0
EndSplineSet
Validated: 1
Substitution2: "Single Substitution lookup 22 subtable" uni0E38
Substitution2: "Single Substitution lookup 22 subtable" uni0E38
EndChar

StartChar: b
Encoding: 98 98 67
Width: 572
VWidth: 1507
Flags: W
HStem: -9 50<208.391 377.436> 470 50<208.431 379.185> 705 20G<126.5 145>
VStem: 90 55<100.668 411.903 451.513 701.744> 443 54<102.656 410.372>
LayerCount: 2
Fore
SplineSet
294 470 m 256
 201 470 145 410 145 350 c 2
 145 163 l 2
 145 109 194 41 294 41 c 256
 392 41 443 108 443 163 c 2
 443 350 l 2
 443 410 387 470 294 470 c 256
125 60 m 1
 134 49 140 42 145 39 c 1
 141 -3 117 -9 90 -9 c 1
 90 671 l 2
 90 707 108 725 145 725 c 1
 145 472 l 1
 140 469 134 462 125 451 c 1
 127 446 l 1
 144 468 194 520 294 520 c 0
 390 520 497 459 497 350 c 2
 497 163 l 2
 497 65 404 -9 294 -9 c 0
 194 -9 144 43 127 65 c 1
 125 60 l 1
EndSplineSet
Validated: 1
Substitution2: "Single Substitution lookup 22 subtable" uni0E39
Substitution2: "Single Substitution lookup 22 subtable" uni0E39
EndChar

StartChar: c
Encoding: 99 99 68
Width: 518
VWidth: 1507
Flags: W
HStem: -9 50<192.609 363.853> 470 50<193.951 364.075>
VStem: 75 55<99.0973 410.332> 428 44<101.547 139.958 370.599 409.453>
LayerCount: 2
Fore
SplineSet
75 348 m 2
 75 442 165 520 279 520 c 0
 408 520 472 429 472 393 c 0
 472 366 444 348 428 348 c 1
 428 400 380 470 279 470 c 256
 178 470 130 402 130 348 c 2
 130 161 l 2
 130 101 186 41 279 41 c 0
 379 41 428 111 428 163 c 1
 445 163 472 144 472 118 c 0
 472 83 408 -9 279 -9 c 0
 178 -9 75 58 75 161 c 2
 75 348 l 2
EndSplineSet
Validated: 1
Substitution2: "Single Substitution lookup 22 subtable" uni0E3A
Substitution2: "Single Substitution lookup 22 subtable" uni0E3A
EndChar

StartChar: d
Encoding: 100 100 69
Width: 572
VWidth: 1507
Flags: W
HStem: -9 50<192.609 364.569> 470 50<193.951 364.831> 705 20G<464 482>
VStem: 75 55<99.0973 410.332> 428 54<13.1616 59.4873 99.0973 409.453 451.513 702.838>
LayerCount: 2
Fore
SplineSet
279 41 m 256
 372 41 428 101 428 161 c 2
 428 348 l 2
 428 400 380 470 279 470 c 256
 178 470 130 402 130 348 c 2
 130 161 l 2
 130 101 186 41 279 41 c 256
448 451 m 1
 439 462 433 469 428 472 c 1
 428 671 l 2
 428 707 446 725 482 725 c 1
 482 45 l 2
 482 9 464 -9 428 -9 c 1
 428 39 l 1
 433 42 439 49 448 60 c 1
 446 65 l 1
 429 43 379 -9 279 -9 c 0
 178 -9 75 58 75 161 c 2
 75 348 l 2
 75 442 165 520 279 520 c 0
 379 520 429 468 446 446 c 1
 448 451 l 1
EndSplineSet
Validated: 1
EndChar

StartChar: e
Encoding: 101 101 70
Width: 557
VWidth: 1507
Flags: W
HStem: -9 50<192.609 363.853> 267 50<130 428> 470 50<193.951 363.102>
VStem: 75 55<99.0973 267 317 410.332> 428 54<317 408.344> 428 44<101.547 139.958>
LayerCount: 2
Fore
SplineSet
482 294 m 2xf8
 482 276 468 267 455 267 c 2
 130 267 l 1
 130 161 l 2
 130 101 186 41 279 41 c 0
 379 41 428 111 428 163 c 1
 445 163 472 144 472 118 c 0xf4
 472 83 408 -9 279 -9 c 0
 178 -9 75 58 75 161 c 2
 75 348 l 2
 75 442 165 520 279 520 c 256
 389 520 482 446 482 348 c 2
 482 294 l 2xf8
279 470 m 256
 178 470 130 402 130 348 c 2
 130 317 l 1
 428 317 l 1
 428 348 l 2xf8
 428 400 380 470 279 470 c 256
EndSplineSet
Validated: 1
EndChar

StartChar: f
Encoding: 102 102 71
Width: 301
VWidth: 1507
Flags: W
HStem: -9 21G<102 120.5> 461 50<35.6675 102 157 231.332> 675 50<186.252 295.553>
VStem: 102 55<14.2559 461 511 645.234>
LayerCount: 2
Fore
SplineSet
252 675 m 0
 176 675 157 622 157 588 c 2
 157 511 l 1
 252 511 l 1
 252 478 235 461 202 461 c 2
 157 461 l 1
 157 45 l 2
 157 9 139 -9 102 -9 c 1
 102 461 l 1
 15 461 l 1
 15 494 32 511 65 511 c 2
 102 511 l 1
 102 588 l 2
 102 652 146 725 252 725 c 0
 282 725 301 708 301 687 c 0
 301 680 299 673 295 666 c 1
 283 672 269 675 252 675 c 0
EndSplineSet
Validated: 1
EndChar

StartChar: g
Encoding: 103 103 72
Width: 572
VWidth: 1507
Flags: W
HStem: -214 50<193.936 364.185> -9 50<192.609 364.569> 470 50<193.951 364.831>
VStem: 75 55<99.0973 410.332> 86 44<-104.332 -65.8101> 428 54<-104.372 59.4873 99.0973 409.453>
LayerCount: 2
Fore
SplineSet
279 41 m 256xf4
 372 41 428 101 428 161 c 2
 428 348 l 2
 428 400 380 470 279 470 c 256
 178 470 130 402 130 348 c 2
 130 161 l 2
 130 101 186 41 279 41 c 256xf4
279 -164 m 0
 372 -164 428 -104 428 -44 c 2
 428 39 l 1
 433 42 439 49 448 60 c 1
 446 65 l 1
 429 43 379 -9 279 -9 c 0
 178 -9 75 58 75 161 c 2
 75 348 l 2xf4
 75 442 165 520 279 520 c 0
 379 520 429 468 446 446 c 1
 448 451 l 1
 439 462 433 469 428 472 c 1
 432 514 456 520 482 520 c 1
 482 -44 l 2
 482 -153 375 -214 279 -214 c 0
 149 -214 86 -121 86 -88 c 0
 86 -62 112 -42 130 -42 c 1xec
 130 -96 179 -164 279 -164 c 0
EndSplineSet
Validated: 1
EndChar

StartChar: h
Encoding: 104 104 73
Width: 587
VWidth: 1507
Flags: W
HStem: -9 21G<90 108.5 443 461> 470 50<208.169 377.436> 705 20G<126.5 145>
VStem: 90 55<14.2559 410.332 451.513 701.744> 443 54<13.1616 408.344>
LayerCount: 2
Fore
SplineSet
294 470 m 256
 193 470 145 402 145 348 c 2
 145 45 l 2
 145 9 127 -9 90 -9 c 1
 90 671 l 2
 90 707 108 725 145 725 c 1
 145 472 l 1
 140 469 134 462 125 451 c 1
 127 446 l 1
 144 468 194 520 294 520 c 0
 404 520 497 446 497 348 c 2
 497 45 l 2
 497 9 479 -9 443 -9 c 1
 443 348 l 2
 443 403 392 470 294 470 c 256
EndSplineSet
Validated: 1
EndChar

StartChar: i
Encoding: 105 105 74
Width: 235
VWidth: 1507
Flags: W
HStem: -9 21G<90 108.5> 500 20G<126.5 145> 601 103<75.6599 159.265>
VStem: 66 103<610.794 694.544> 90 55<14.2559 496.744>
LayerCount: 2
Fore
SplineSet
90 466 m 2xe8
 90 502 108 520 145 520 c 1
 145 45 l 2
 145 9 127 -9 90 -9 c 1
 90 466 l 2xe8
118 601 m 256
 87 601 66 625 66 653 c 256
 66 681 87 704 118 704 c 256
 148 704 169 680 169 653 c 256xf0
 169 623 145 601 118 601 c 256
EndSplineSet
Validated: 1
EndChar

StartChar: j
Encoding: 106 106 75
Width: 235
VWidth: 1507
Flags: W
HStem: -214 50<-48.327 60.7484> 500 20G<126.5 145> 601 103<75.6599 159.265>
VStem: 66 103<610.794 694.544> 90 55<-134.234 496.744>
LayerCount: 2
Fore
SplineSet
-5 -164 m 0xe8
 71 -164 90 -111 90 -77 c 2
 90 466 l 2
 90 502 108 520 145 520 c 1
 145 -77 l 2
 145 -141 101 -214 -5 -214 c 0
 -42 -214 -54 -191 -54 -175 c 0
 -54 -169 -52 -162 -48 -155 c 1
 -36 -161 -22 -164 -5 -164 c 0xe8
118 601 m 256
 87 601 66 625 66 653 c 256
 66 681 87 704 118 704 c 256
 148 704 169 680 169 653 c 256xf0
 169 623 145 601 118 601 c 256
EndSplineSet
Validated: 1
EndChar

StartChar: k
Encoding: 107 107 76
Width: 572
VWidth: 1507
Flags: W
HStem: -9 21G<90 108.5 443 461> 314 49<285 377.165> 499 20G<432.725 467.5> 705 20G<126.5 145>
VStem: 90 55<14.2559 254.672 315 701.744> 443 54<13.1616 253.478>
LayerCount: 2
Fore
SplineSet
294 314 m 256
 203 314 145 253 145 191 c 2
 145 45 l 2
 145 9 127 -9 90 -9 c 1
 90 671 l 2
 90 707 108 725 145 725 c 1
 145 315 l 1
 464 519 l 1
 471 506 475 495 475 484 c 0
 475 467 465 454 446 443 c 2
 327 368 l 1
 308 368 l 2
 294 368 288 364 285 363 c 1
 294 363 l 2
 395 363 497 297 497 191 c 2
 497 45 l 2
 497 9 479 -9 443 -9 c 1
 443 191 l 2
 443 256 381 314 294 314 c 256
EndSplineSet
Validated: 1
EndChar

StartChar: l
Encoding: 108 108 77
Width: 289
VWidth: 1507
Flags: W
HStem: -9 50<174.252 283.327> 705 20G<126.5 145>
VStem: 90 55<70.3256 701.744>
LayerCount: 2
Fore
SplineSet
289 30 m 0
 289 14 277 -9 240 -9 c 0
 134 -9 90 63 90 128 c 2
 90 671 l 2
 90 707 108 725 145 725 c 1
 145 128 l 2
 145 94 164 41 240 41 c 0
 257 41 271 44 283 50 c 1
 287 43 289 36 289 30 c 0
EndSplineSet
Validated: 1
EndChar

StartChar: m
Encoding: 109 109 78
Width: 786
VWidth: 1507
Flags: W
HStem: -9 21G<90 108.5 366 384.5 642 660> 470 50<181.032 328.116 457.479 602.922>
VStem: 90 55<14.2559 434.577 473.276 496.744> 366 55<14.2559 433.744> 642 54<13.1616 433.744>
LayerCount: 2
Fore
SplineSet
531 470 m 256
 461 470 421 426 421 383 c 2
 421 45 l 2
 421 9 403 -9 366 -9 c 1
 366 383 l 2
 366 428 321 470 255 470 c 256
 185 470 145 426 145 383 c 2
 145 45 l 2
 145 9 127 -9 90 -9 c 1
 90 466 l 2
 90 502 108 520 145 520 c 1
 145 493 l 1
 137 488 126 477 122 472 c 1
 127 470 l 1
 154 499 201 520 255 520 c 0
 302 520 354 503 389 464 c 1
 383 456 379 448 377 440 c 1
 378 436 l 1
 393 467 439 520 531 520 c 0
 630 520 696 454 696 383 c 2
 696 45 l 2
 696 9 678 -9 642 -9 c 1
 642 383 l 2
 642 428 597 470 531 470 c 256
EndSplineSet
Validated: 1
EndChar

StartChar: n
Encoding: 110 110 79
Width: 587
VWidth: 1507
Flags: W
HStem: -9 21G<90 108.5 443 461> 470 50<208.169 377.436>
VStem: 90 55<14.2559 410.332 451.513 496.744> 443 54<13.1616 408.344>
LayerCount: 2
Fore
SplineSet
294 470 m 256
 193 470 145 402 145 348 c 2
 145 45 l 2
 145 9 127 -9 90 -9 c 1
 90 466 l 2
 90 502 108 520 145 520 c 1
 145 472 l 1
 140 469 134 462 125 451 c 1
 127 446 l 1
 144 468 194 520 294 520 c 0
 404 520 497 446 497 348 c 2
 497 45 l 2
 497 9 479 -9 443 -9 c 1
 443 348 l 2
 443 403 392 470 294 470 c 256
EndSplineSet
Validated: 1
EndChar

StartChar: o
Encoding: 111 111 80
Width: 649
VWidth: 1507
Flags: W
HStem: -9 50<232.351 414.691> 470 50<232.452 416.582>
VStem: 60 55<160.663 349.674> 535 54<162.373 348.719>
LayerCount: 2
Fore
SplineSet
324 -9 m 256
 187 -9 60 99 60 255 c 256
 60 399 177 520 324 520 c 256
 473 520 589 395 589 255 c 256
 589 108 469 -9 324 -9 c 256
324 470 m 256
 195 470 115 363 115 255 c 256
 115 145 199 41 324 41 c 256
 439 41 535 134 535 255 c 256
 535 373 444 470 324 470 c 256
EndSplineSet
Validated: 1
EndChar

StartChar: p
Encoding: 112 112 81
Width: 572
VWidth: 1507
Flags: W
HStem: -214 21G<90 108.5> -9 50<208.431 379.185> 470 50<208.169 377.436>
VStem: 90 55<-190.744 59.4873 99.0973 410.332 451.513 496.744> 443 54<100.628 408.344>
LayerCount: 2
Fore
SplineSet
294 470 m 256
 193 470 145 402 145 348 c 2
 145 161 l 2
 145 101 201 41 294 41 c 256
 387 41 443 101 443 161 c 2
 443 348 l 2
 443 403 392 470 294 470 c 256
125 60 m 1
 134 49 140 42 145 39 c 1
 145 -160 l 2
 145 -196 127 -214 90 -214 c 1
 90 466 l 2
 90 502 108 520 145 520 c 1
 145 472 l 1
 140 469 134 462 125 451 c 1
 127 446 l 1
 144 468 194 520 294 520 c 0
 404 520 497 446 497 348 c 2
 497 161 l 2
 497 52 390 -9 294 -9 c 0
 194 -9 144 43 127 65 c 1
 125 60 l 1
EndSplineSet
Validated: 1
EndChar

StartChar: q
Encoding: 113 113 82
Width: 572
VWidth: 1507
Flags: W
HStem: -214 21G<428 446> -9 50<192.609 364.569> 470 50<193.951 364.831>
VStem: 75 55<99.0973 410.332> 428 54<-191.838 59.4873 99.0973 409.453>
LayerCount: 2
Fore
SplineSet
279 41 m 256
 372 41 428 101 428 161 c 2
 428 348 l 2
 428 400 380 470 279 470 c 256
 178 470 130 402 130 348 c 2
 130 161 l 2
 130 101 186 41 279 41 c 256
448 451 m 1
 439 462 433 469 428 472 c 1
 432 514 456 520 482 520 c 1
 482 -160 l 2
 482 -196 464 -214 428 -214 c 1
 428 39 l 1
 433 42 439 49 448 60 c 1
 446 65 l 1
 429 43 379 -9 279 -9 c 0
 178 -9 75 58 75 161 c 2
 75 348 l 2
 75 442 165 520 279 520 c 0
 379 520 429 468 446 446 c 1
 448 451 l 1
EndSplineSet
Validated: 1
EndChar

StartChar: r
Encoding: 114 114 83
Width: 378
VWidth: 1507
Flags: W
HStem: -9 21G<90 108.5> 470 50<208.429 326.792>
VStem: 90 55<14.2559 410.332 443.562 496.744>
LayerCount: 2
Fore
SplineSet
294 520 m 0
 305 520 327 519 348 514 c 1
 345 482 327 470 294 470 c 0
 193 470 145 402 145 348 c 2
 145 45 l 2
 145 9 127 -9 90 -9 c 1
 90 466 l 2
 90 502 108 520 145 520 c 1
 145 469 l 1
 143 467 131 455 125 443 c 1
 127 439 l 1
 160 487 218 520 294 520 c 0
EndSplineSet
Validated: 1
EndChar

StartChar: s
Encoding: 115 115 84
Width: 495
VWidth: 1507
Flags: W
HStem: -9 50<166.465 333.552> 470 50<167.851 319.03>
VStem: 46 50<102.112 182.472> 65 56<325.458 426.974> 375 53<328.038 416.31> 396 55<97.0807 195.044>
LayerCount: 2
Fore
SplineSet
247 520 m 0xd4
 407 520 428 386 428 366 c 0
 428 338 407 322 381 322 c 0
 378 322 375 323 372 323 c 1
 374 332 375 341 375 350 c 0
 375 424 310 470 247 470 c 256
 173 470 121 423 121 375 c 0xd8
 121 323 159 306 252 288 c 0
 363 264 451 250 451 151 c 0
 451 68 355 -9 247 -9 c 0
 109 -9 46 92 46 146 c 0
 46 163 55 187 90 187 c 0
 99 187 l 1
 97 178 96 170 96 162 c 0xe4
 96 90 178 41 247 41 c 0
 337 41 396 100 396 151 c 0
 396 189 376 212 243 238 c 0
 142 259 65 273 65 374 c 0
 65 440 128 520 247 520 c 0xd4
EndSplineSet
Validated: 1
EndChar

StartChar: t
Encoding: 116 116 85
Width: 301
VWidth: 1507
Flags: W
HStem: -9 50<186.252 295.327> 461 50<35.6675 102 157 232.392> 705 20G<138.5 157>
VStem: 102 55<70.3256 461 511 701.744>
LayerCount: 2
Fore
SplineSet
301 30 m 0
 301 14 289 -9 252 -9 c 0
 146 -9 102 63 102 128 c 2
 102 461 l 1
 15 461 l 1
 15 494 32 511 65 511 c 2
 102 511 l 1
 102 671 l 2
 102 707 120 725 157 725 c 1
 157 511 l 1
 252 511 l 1
 252 484 242 461 202 461 c 2
 157 461 l 1
 157 128 l 2
 157 94 176 41 252 41 c 0
 269 41 283 44 295 50 c 1
 299 43 301 36 301 30 c 0
EndSplineSet
Validated: 1
EndChar

StartChar: u
Encoding: 117 117 86
Width: 587
VWidth: 1507
Flags: W
HStem: -9 50<209.173 379.165> 500 20G<126.5 145 479 497>
VStem: 90 55<100.668 496.744> 443 54<13.1616 59.4873 100.229 497.838>
LayerCount: 2
Fore
SplineSet
294 41 m 256
 392 41 443 108 443 163 c 2
 443 466 l 2
 443 502 461 520 497 520 c 1
 497 45 l 2
 497 9 479 -9 443 -9 c 1
 443 39 l 1
 448 42 454 49 463 60 c 1
 461 65 l 1
 444 43 394 -9 294 -9 c 0
 180 -9 90 69 90 163 c 2
 90 466 l 2
 90 502 108 520 145 520 c 1
 145 163 l 2
 145 109 194 41 294 41 c 256
EndSplineSet
Validated: 1
EndChar

StartChar: v
Encoding: 118 118 87
Width: 506
VWidth: 1507
Flags: W
HStem: -9 21G<247 259> 500 20G<41.5 51.5 450.5 465.5>
LayerCount: 2
Fore
SplineSet
253 -9 m 256
 241 -9 233 -3 229 8 c 2
 23 515 l 1
 31 519 38 520 45 520 c 0
 58 520 78 513 87 488 c 2
 250 83 l 1
 241 53 l 1
 243 48 l 1
 419 488 l 2
 425 502 439 520 462 520 c 0
 469 520 476 519 484 515 c 1
 277 8 l 2
 273 -3 265 -9 253 -9 c 256
EndSplineSet
Validated: 1
EndChar

StartChar: w
Encoding: 119 119 88
Width: 729
VWidth: 1507
Flags: W
HStem: -9 21G<224.5 246.507 483.464 505.5> 499 20G<41 54 674.5 687.5>
LayerCount: 2
Fore
SplineSet
362 366 m 1
 240 -9 l 1
 209 -9 197 9 188 32 c 2
 23 515 l 1
 31 518 38 519 44 519 c 0
 64 519 78 507 86 484 c 2
 220 92 l 1
 214 63 l 1
 216 59 l 1
 339 446 l 2
 344 459 353 466 365 466 c 256
 377 466 385 459 390 446 c 2
 503 92 l 1
 497 63 l 1
 499 59 l 1
 644 484 l 2
 651 507 665 519 684 519 c 0
 691 519 699 518 707 515 c 1
 541 32 l 2
 533 9 521 -9 490 -9 c 1
 357 398 l 1
 356 393 l 1
 362 366 l 1
EndSplineSet
Validated: 1
EndChar

StartChar: x
Encoding: 120 120 89
Width: 509
VWidth: 1507
Flags: W
HStem: -9 21G<50 62 448 460> 500 20G<74 86 423 435.5>
LayerCount: 2
Fore
SplineSet
487 5 m 1
 476 -4 465 -9 455 -9 c 0
 441 -9 429 -1 418 14 c 2
 255 231 l 1
 92 14 l 2
 81 -1 69 -9 55 -9 c 0
 45 -9 34 -4 23 5 c 1
 223 273 l 1
 47 508 l 1
 58 516 69 520 79 520 c 0
 93 520 106 512 118 497 c 2
 255 315 l 1
 392 497 l 2
 404 512 416 520 430 520 c 0
 441 520 452 516 463 508 c 1
 286 273 l 1
 487 5 l 1
EndSplineSet
Validated: 1
EndChar

StartChar: y
Encoding: 121 121 90
Width: 506
VWidth: 1507
Flags: W
HStem: -214 44<39.6406 111.155> 500 20G<41.5 51.5 450.5 465.5>
LayerCount: 2
Fore
SplineSet
186 -159 m 0
 154 -190 99 -214 62 -214 c 0
 38 -214 25 -198 23 -170 c 1
 71 -170 120 -150 147 -125 c 0
 168 -106 187 -77 203 -39 c 2
 226 15 l 1
 23 515 l 1
 31 519 38 520 45 520 c 0
 58 520 78 513 87 488 c 2
 250 83 l 1
 241 53 l 1
 243 48 l 1
 419 488 l 2
 425 502 439 520 462 520 c 0
 469 520 476 519 484 515 c 1
 252 -54 l 2
 234 -99 212 -134 186 -159 c 0
EndSplineSet
Validated: 1
EndChar

StartChar: z
Encoding: 122 122 91
Width: 455
VWidth: 1507
Flags: W
HStem: 0 50<101 412.332> 461 50<42.6992 354>
LayerCount: 2
Fore
SplineSet
50 0 m 2
 30 0 22 17 22 28 c 0
 22 34 24 40 29 45 c 2
 377 482 l 1
 372 481 l 1
 354 461 l 1
 71 461 l 2
 39 461 23 478 23 511 c 1
 405 511 l 2
 428 511 434 488 434 482 c 0
 434 476 432 471 427 466 c 2
 78 29 l 1
 83 30 l 1
 101 50 l 1
 383 50 l 2
 416 50 433 33 433 0 c 1
 50 0 l 2
EndSplineSet
Validated: 1
EndChar

StartChar: braceleft
Encoding: 123 123 92
Width: 287
VWidth: 1507
Flags: W
HStem: -128 48<194.68 276.25> 288 39<36.0044 103.586> 695 48<194.68 276.281>
VStem: 124 60<-72.1586 270.215 344.736 684.665>
CounterMasks: 1 e0
LayerCount: 2
Fore
SplineSet
124 194 m 2
 124 265 96 288 54 288 c 0
 42 288 36 294 36 307 c 256
 36 320 42 327 54 327 c 0
 96 327 124 350 124 421 c 2
 124 612 l 2
 124 689 154 743 225 743 c 2
 295 743 l 1
 295 698 265 695 243 695 c 0
 217 695 184 693 184 626 c 2
 184 431 l 2
 184 360 165 323 110 307 c 1
 165 293 184 254 184 184 c 2
 184 -11 l 2
 184 -80 218 -80 247 -80 c 0
 279 -80 295 -96 295 -128 c 1
 225 -128 l 2
 154 -128 124 -74 124 3 c 2
 124 194 l 2
EndSplineSet
Validated: 1
EndChar

StartChar: bar
Encoding: 124 124 93
Width: 232
VWidth: 1507
Flags: W
VStem: 90 52<-136.07 773.07>
LayerCount: 2
Fore
SplineSet
90 743 m 2
 90 777 107 794 142 794 c 1
 142 -106 l 2
 142 -140 125 -157 90 -157 c 1
 90 743 l 2
EndSplineSet
Validated: 1
EndChar

StartChar: asciitilde
Encoding: 126 126 95
Width: 652
VWidth: 1507
Flags: W
HStem: 235 53<364.767 535.523> 307 55<93.1079 277.086>
LayerCount: 2
Fore
SplineSet
178 307 m 0
 128 307 90 289 65 265 c 1
 55 279 50 292 50 303 c 0
 50 350 138 362 178 362 c 0
 285 362 372 288 457 288 c 0
 506 288 550 310 588 353 c 1
 602 342 610 330 610 316 c 0
 610 282 544 235 457 235 c 0
 354 235 273 307 178 307 c 0
EndSplineSet
Validated: 1
EndChar

StartChar: quotedbl
Encoding: 34 34 97
Width: 349
VWidth: 1507
Flags: W
HStem: 508 217<88.2775 125.996 219.278 256.752>
VStem: 75 204
LayerCount: 2
Fore
SplineSet
75 661 m 1
 75 708 107 725 148 725 c 1
 139 565 l 2
 137 537 118 508 84 508 c 1
 75 661 l 1
206 661 m 1
 206 708 238 725 279 725 c 1
 270 565 l 2
 268 537 248 508 216 508 c 1
 206 661 l 1
EndSplineSet
Validated: 1
EndChar

StartChar: exclam
Encoding: 33 33 98
Width: 221
VWidth: 1507
Flags: W
HStem: -9 113<65.7954 154.798> 705 20G<123 156.312>
VStem: 54 113<2.79541 92.5349> 69 88<521.611 681.279> 84 55<171.941 361.984>
LayerCount: 2
Fore
SplineSet
69 645 m 0xd0
 69 685 89 725 157 725 c 1xd0
 139 202 l 2
 137 164 119 145 84 145 c 1xc8
 79 312 69 628 69 645 c 0xd0
110 -9 m 256
 76 -9 54 16 54 47 c 256
 54 78 76 104 110 104 c 256
 144 104 167 78 167 47 c 256xe0
 167 13 141 -9 110 -9 c 256
EndSplineSet
Validated: 1
EndChar

StartChar: exclamdown
Encoding: 161 161 100
Width: 221
VWidth: 1507
Flags: W
HStem: -214 21G<66.6883 100> 407 113<68.2021 157.205>
VStem: 56 113<418.465 508.205> 66 88<-170.279 -10.6111> 84 55<149.016 339.059>
LayerCount: 2
Fore
SplineSet
154 -134 m 0xd0
 154 -174 134 -214 66 -214 c 1xd0
 84 309 l 2
 86 347 104 366 139 366 c 1xc8
 144 199 154 -117 154 -134 c 0xd0
113 520 m 256
 147 520 169 495 169 464 c 256
 169 433 147 407 113 407 c 256
 79 407 56 433 56 464 c 256xe0
 56 498 82 520 113 520 c 256
EndSplineSet
Validated: 1
EndChar

StartChar: cent
Encoding: 162 162 101
Width: 518
VWidth: 1507
Flags: W
HStem: -8 50<192.634 253 304 365.507> 469 50<192.321 253 304 365.178>
VStem: 75 55<100.02 409.67> 253 51<-63.0696 -5.48682 42 469 516.475 574.07> 428 44<100.129 139.958 370.599 410.498>
LayerCount: 2
Fore
SplineSet
75 348 m 2
 75 443 156 509 253 519 c 1
 253 544 l 2
 253 578 270 595 304 595 c 1
 304 519 l 1
 427 504 472 418 472 393 c 0
 472 366 444 348 428 348 c 1
 428 400 386 457 304 469 c 1
 304 42 l 1
 372 52 428 99 428 163 c 1
 445 163 472 144 472 118 c 0
 472 87 418 4 304 -8 c 1
 304 -33 l 2
 304 -67 287 -84 253 -84 c 1
 253 -8 l 1
 156 2 75 67 75 161 c 2
 75 348 l 2
253 469 m 1
 186 459 130 412 130 348 c 2
 130 161 l 2
 130 98 187 52 253 42 c 1
 253 469 l 1
EndSplineSet
Validated: 1
EndChar

StartChar: sterling
Encoding: 163 163 102
Width: 575
VWidth: 1507
Flags: W
HStem: 0 54<173 506.838> 332 54<84.1616 188 250 398.575> 672 53<292.014 471.512>
VStem: 178 59<389.393 614.722> 203 56<139.527 329.492>
LayerCount: 2
Fore
SplineSet
203 220 m 256xe8
 203 260 200 295 196 332 c 1
 62 332 l 1
 62 368 80 386 116 386 c 2
 188 386 l 1
 179 466 178 493 178 520 c 0
 178 637 258 725 377 725 c 0
 446 725 506 699 506 663 c 0
 506 657 504 644 493 635 c 1
 465 660 425 672 372 672 c 0
 264 672 237 592 237 519 c 0xf0
 237 492 239 452 244 386 c 1
 421 386 l 1
 421 350 403 332 366 332 c 2
 250 332 l 1
 256 261 259 251 259 231 c 0
 259 143 230 93 173 54 c 1
 475 54 l 2
 511 54 529 36 529 0 c 1
 77 0 l 1
 77 65 120 51 169 119 c 0
 187 144 203 180 203 220 c 256xe8
EndSplineSet
Validated: 1
EndChar

StartChar: currency
Encoding: 164 164 103
Width: 743
VWidth: 1507
Flags: W
HStem: 78 53<277.047 464.033> 586 55<277.499 462.813>
VStem: 90 61<260.965 458.219> 591 62<261.797 456.734>
LayerCount: 2
Fore
SplineSet
371 78 m 256
 267 78 210 132 197 143 c 1
 136 78 l 1
 90 124 l 1
 151 187 l 1
 110 237 90 294 90 359 c 0
 90 464 143 524 151 534 c 1
 90 595 l 1
 136 642 l 1
 197 579 l 1
 238 612 301 641 371 641 c 0
 436 641 495 620 547 579 c 1
 612 642 l 1
 656 595 l 1
 594 534 l 1
 605 521 653 464 653 359 c 0
 653 303 637 241 594 187 c 1
 656 124 l 1
 610 78 l 1
 547 143 l 1
 505 104 444 78 371 78 c 256
371 586 m 256
 251 586 151 487 151 359 c 256
 151 227 253 131 371 131 c 256
 496 131 591 238 591 359 c 256
 591 482 493 586 371 586 c 256
EndSplineSet
Validated: 1
EndChar

StartChar: yen
Encoding: 165 165 104
Width: 602
VWidth: 1507
Flags: W
HStem: -9 21G<271 291> 264 54<106.425 271 332 496.575> 399 55<107.538 206 396 495.462> 707 20G<41 49.5 553.5 562>
VStem: 271 61<17.7817 264 318 365>
LayerCount: 2
Fore
SplineSet
84 399 m 1
 84 436 102 454 139 454 c 2
 206 454 l 1
 15 716 l 1
 25 723 36 727 46 727 c 0
 53 727 77 725 93 701 c 2
 301 415 l 1
 509 701 l 2
 527 725 550 727 557 727 c 0
 567 727 578 723 588 716 c 1
 396 454 l 1
 519 454 l 1
 519 417 501 399 464 399 c 2
 357 399 l 1
 332 365 l 1
 332 318 l 1
 519 318 l 1
 519 282 501 264 464 264 c 2
 332 264 l 1
 332 50 l 2
 332 11 311 -9 271 -9 c 1
 271 264 l 1
 84 264 l 1
 84 300 102 318 139 318 c 2
 271 318 l 1
 271 365 l 1
 246 399 l 1
 84 399 l 1
EndSplineSet
Validated: 1
EndChar

StartChar: brokenbar
Encoding: 166 166 105
Width: 232
VWidth: 1507
Flags: W
VStem: 90 52<-136.07 244.07 393.193 773.07>
LayerCount: 2
Fore
SplineSet
90 743 m 2
 90 777 107 794 142 794 c 1
 142 424 l 2
 142 389 125 372 90 372 c 1
 90 743 l 2
90 214 m 2
 90 248 107 265 142 265 c 1
 142 -106 l 2
 142 -140 125 -157 90 -157 c 1
 90 214 l 2
EndSplineSet
Validated: 1
EndChar

StartChar: section
Encoding: 167 167 106
Width: 592
VWidth: 1507
Flags: W
HStem: -9 51<175.556 376.343> 678 47<221.928 407.644>
VStem: 90 58<356.198 458.012> 128 57<549.254 643.684> 419 56<80.2322 188.675> 442 60<275.328 388.545>
LayerCount: 2
Fore
SplineSet
185 595 m 0xd0
 185 477 502 516 502 345 c 0
 502 317 497 276 442 223 c 1xd4
 458 207 475 175 475 139 c 0
 475 40 385 -9 279 -9 c 0
 225 -9 134 4 134 58 c 0
 134 67 137 77 143 87 c 1
 161 69 202 42 282 42 c 0
 353 42 419 68 419 133 c 0
 419 281 90 221 90 401 c 0xe8
 90 457 133 493 157 512 c 1
 135 533 128 560 128 589 c 0
 128 668 202 725 314 725 c 0
 376 725 417 709 436 695 c 0
 444 690 448 681 448 669 c 0
 448 657 445 647 439 639 c 1
 410 659 361 678 306 678 c 0
 245 678 185 650 185 595 c 0xd0
402 252 m 1
 421 272 442 304 442 338 c 0
 442 427 299 438 200 488 c 1
 156 454 148 421 148 404 c 0xe4
 148 387 157 369 174 351 c 0
 214 310 326 294 402 252 c 1
EndSplineSet
Validated: 1
EndChar

StartChar: dieresis
Encoding: 168 168 107
Width: 324
VWidth: 1507
Flags: W
HStem: 606 102<21.0176 105.764 219.018 302.982>
VStem: 12 103<615.735 698.265> 210 102<615.018 698.982>
LayerCount: 2
Fore
SplineSet
63 606 m 256
 33 606 12 630 12 657 c 256
 12 687 36 708 63 708 c 256
 93 708 115 684 115 657 c 256
 115 630 93 606 63 606 c 256
261 606 m 256
 231 606 210 630 210 657 c 256
 210 687 234 708 261 708 c 256
 291 708 312 684 312 657 c 256
 312 627 288 606 261 606 c 256
EndSplineSet
Validated: 1
EndChar

StartChar: copyright
Encoding: 169 169 108
Width: 824
VWidth: 1507
Flags: W
HStem: -9 48<298.754 524.783> 142 45<343.446 487.91> 531 43<345.202 486.135> 677 48<303.588 522.257>
VStem: 45 54<244.223 471.058> 247 53<228.079 488.573> 535 48<230.997 286.39 431.395 485.211> 725 54<244.104 473.049>
LayerCount: 2
Fore
SplineSet
411 -9 m 256
 221 -9 45 141 45 357 c 256
 45 567 212 725 411 725 c 256
 622 725 779 558 779 357 c 256
 779 162 625 -9 411 -9 c 256
411 677 m 256
 239 677 99 532 99 356 c 256
 99 177 245 39 411 39 c 256
 582 39 725 178 725 356 c 256
 725 529 590 677 411 677 c 256
416 531 m 256
 347 531 300 482 300 436 c 2
 300 282 l 2
 300 232 349 187 416 187 c 256
 482 187 535 234 535 288 c 1
 538 288 541 289 544 289 c 0
 566 289 583 278 583 256 c 0
 583 217 526 142 416 142 c 0
 325 142 247 203 247 282 c 2
 247 436 l 2
 247 517 330 574 416 574 c 0
 521 574 583 506 583 460 c 0
 583 439 566 429 545 429 c 0
 542 429 538 430 535 430 c 1
 535 479 484 531 416 531 c 256
EndSplineSet
Validated: 1
EndChar

StartChar: ordfeminine
Encoding: 170 170 109
Width: 409
VWidth: 1507
Flags: W
HStem: 311 45<103.086 247.052> 534 45<103.705 245.662> 675 45<107.464 247.042>
VStem: 15 51<391.09 497.243> 283 52<329.468 359.626 390.15 498.789 529.374 639.739>
LayerCount: 2
Fore
SplineSet
66 443 m 0
 66 396 111 356 175 356 c 0
 249 356 283 405 283 443 c 0
 283 484 248 534 175 534 c 0
 109 534 66 490 66 443 c 0
175 579 m 0
 220 579 271 563 303 525 c 1
 304 529 l 1
 297 537 290 544 283 550 c 1
 283 588 l 2
 283 634 240 675 175 675 c 0
 124 675 79 638 59 600 c 1
 45 610 36 625 36 640 c 0
 36 668 89 720 175 720 c 0
 252 720 335 669 335 588 c 2
 335 356 l 2
 335 326 318 311 283 311 c 1
 283 339 l 1
 290 345 297 352 304 360 c 1
 303 365 l 1
 272 327 220 311 175 311 c 0
 83 311 15 375 15 443 c 256
 15 506 75 579 175 579 c 0
EndSplineSet
Validated: 1
EndChar

StartChar: logicalnot
Encoding: 172 172 111
Width: 602
VWidth: 1507
Flags: W
HStem: 363 52<65.9304 506>
VStem: 506 52<203.193 363>
LayerCount: 2
Fore
SplineSet
558 415 m 1
 558 234 l 2
 558 199 541 182 506 182 c 1
 506 363 l 1
 45 363 l 1
 45 398 62 415 96 415 c 2
 558 415 l 1
EndSplineSet
Validated: 1
EndChar

StartChar: registered
Encoding: 174 174 112
Width: 822
VWidth: 1507
Flags: W
HStem: -9 48<298.754 524.783> 335 45<303 517.422> 522 43<303 517.126> 677 48<303.588 522.257>
VStem: 45 54<244.223 471.058> 252 51<159.974 335 380 522> 538 51<159.974 319.5 400.102 502.145> 725 54<244.104 473.049>
LayerCount: 2
Fore
SplineSet
537 451 m 0
 537 482 513 522 476 522 c 2
 303 522 l 1
 303 380 l 1
 476 380 l 2
 516 380 537 426 537 451 c 0
538 264 m 2
 538 319 501 335 476 335 c 2
 303 335 l 1
 303 184 l 2
 303 157 286 143 252 143 c 1
 252 543 l 2
 252 556 262 565 277 565 c 2
 476 565 l 2
 545 565 586 510 586 451 c 0
 586 413 566 378 538 357 c 1
 572 338 589 307 589 264 c 2
 589 184 l 2
 589 157 572 143 538 143 c 1
 538 264 l 2
411 -9 m 256
 221 -9 45 141 45 357 c 256
 45 567 212 725 411 725 c 256
 622 725 779 558 779 357 c 256
 779 162 625 -9 411 -9 c 256
411 677 m 256
 239 677 99 532 99 356 c 256
 99 177 245 39 411 39 c 256
 582 39 725 178 725 356 c 256
 725 529 590 677 411 677 c 256
EndSplineSet
Validated: 1
EndChar

StartChar: macron
Encoding: 175 175 113
Width: 325
VWidth: 1507
Flags: W
HStem: 636 48<42 282>
VStem: 42 240<636 684>
LayerCount: 2
Fore
SplineSet
42 636 m 1
 42 684 l 1
 282 684 l 1
 282 636 l 1
 42 636 l 1
EndSplineSet
Validated: 1
EndChar

StartChar: degree
Encoding: 176 176 114
Width: 325
VWidth: 1507
Flags: W
HStem: 451 48<106.104 216.054> 677 48<107.11 215.163>
VStem: 23 55<527.962 648.644> 244 56<527.969 648.666>
LayerCount: 2
Fore
SplineSet
161 451 m 256
 88 451 23 506 23 588 c 256
 23 659 78 725 161 725 c 256
 244 725 300 660 300 588 c 256
 300 506 234 451 161 451 c 256
161 677 m 256
 115 677 78 640 78 588 c 256
 78 536 115 499 161 499 c 256
 211 499 244 540 244 588 c 256
 244 639 208 677 161 677 c 256
EndSplineSet
Validated: 1
EndChar

StartChar: plusminus
Encoding: 177 177 115
Width: 602
VWidth: 1507
Flags: W
HStem: -2 55<69.6227 533.598> 273 51<65.9304 274 329 536.807>
VStem: 274 55<109.256 273 324 487.744>
LayerCount: 2
Fore
SplineSet
274 273 m 1
 45 273 l 1
 45 307 62 324 96 324 c 2
 274 324 l 1
 274 457 l 2
 274 493 292 511 329 511 c 1
 329 324 l 1
 558 324 l 1
 558 290 541 273 506 273 c 2
 329 273 l 1
 329 140 l 2
 329 104 311 86 274 86 c 1
 274 273 l 1
558 53 m 1
 558 9 528 -2 503 -2 c 2
 45 -2 l 1
 45 42 76 53 99 53 c 2
 558 53 l 1
EndSplineSet
Validated: 1
EndChar

StartChar: twosuperior
Encoding: 178 178 116
Width: 419
VWidth: 1507
Flags: W
HStem: 314 45<113 344.518> 677 43<144.128 276.878>
VStem: 62 47<591.998 643.84> 311 48<553.259 643.853>
LayerCount: 2
Fore
SplineSet
210 720 m 0
 276 720 359 678 359 595 c 0
 359 551 328 513 268 484 c 2
 214 460 l 2
 165 440 126 407 113 359 c 1
 320 359 l 2
 346 359 359 344 359 314 c 1
 84 314 l 2
 74 314 60 318 60 335 c 0
 60 402 103 463 194 502 c 0
 290 544 311 561 311 595 c 0
 311 633 272 677 210 677 c 0
 150 677 109 635 109 595 c 2
 109 588 l 2
 109 584 110 579 112 571 c 1
 84 571 62 593 62 608 c 0
 62 646 117 720 210 720 c 0
EndSplineSet
Validated: 1
EndChar

StartChar: threesuperior
Encoding: 179 179 117
Width: 419
VWidth: 1507
Flags: W
HStem: 309 44<139.328 279.013> 509 44<184.009 268.083> 677 43<149.564 268.123>
VStem: 62 47<381.448 440.938> 82 49<596.79 657.774> 288 50<572.605 657.8> 309 50<382.218 479.485>
LayerCount: 2
Fore
SplineSet
82 624 m 0xec
 82 659 122 720 210 720 c 0
 280 720 338 673 338 615 c 0xec
 338 583 319 554 291 534 c 1
 325 516 359 481 359 431 c 0
 359 362 295 309 210 309 c 0
 129 309 62 365 62 419 c 0
 62 443 78 455 110 455 c 1
 109 450 109 446 109 442 c 2
 109 431 l 2
 109 384 155 353 210 353 c 0
 262 353 309 385 309 431 c 0xf2
 309 476 262 509 210 509 c 0
 197 509 184 518 184 531 c 0
 184 544 194 553 210 553 c 0
 251 553 288 579 288 615 c 256
 288 651 251 677 210 677 c 0
 167 677 131 652 131 615 c 0
 131 607 134 598 136 594 c 1
 132 594 129 593 126 593 c 0
 111 593 82 599 82 624 c 0xec
EndSplineSet
Validated: 1
EndChar

StartChar: acute
Encoding: 180 180 118
Width: 319
VWidth: 1507
Flags: W
HStem: 562 157
VStem: 65 190
LayerCount: 2
Fore
SplineSet
149 692 m 2
 161 710 185 719 220 719 c 2
 255 719 l 1
 128 579 l 2
 111 563 90 562 65 562 c 1
 149 692 l 2
EndSplineSet
Validated: 1
EndChar

StartChar: mu
Encoding: 181 181 119
Width: 587
VWidth: 1507
Flags: W
HStem: -214 21G<90 108.5> -9 50<208.391 379.165> 500 20G<126.5 145 479 497>
VStem: 90 55<-190.744 59.4873 100.668 496.744> 443 54<13.1616 59.4873 100.229 497.838>
LayerCount: 2
Fore
SplineSet
461 65 m 1
 444 43 394 -9 294 -9 c 256
 194 -9 144 43 127 65 c 1
 125 60 l 1
 134 49 140 42 145 39 c 1
 145 -160 l 2
 145 -196 127 -214 90 -214 c 1
 90 466 l 2
 90 502 108 520 145 520 c 1
 145 163 l 2
 145 109 194 41 294 41 c 256
 392 41 443 108 443 163 c 2
 443 466 l 2
 443 502 461 520 497 520 c 1
 497 45 l 2
 497 9 479 -9 443 -9 c 1
 443 39 l 1
 448 42 454 49 463 60 c 1
 461 65 l 1
EndSplineSet
Validated: 1
EndChar

StartChar: paragraph
Encoding: 182 182 120
Width: 559
VWidth: 1507
Flags: W
HStem: 677 48<339 410.903>
VStem: 36 303<395.656 589.272> 282 57<-115.462 271> 411 58<-115.462 677>
LayerCount: 2
Fore
SplineSet
344 725 m 0xd0
 407 725 444 721 469 717 c 1
 469 -84 l 2
 469 -121 450 -139 411 -139 c 1
 411 677 l 1
 339 677 l 1
 339 -84 l 2
 339 -121 320 -139 282 -139 c 1
 282 271 l 1xb0
 141 271 36 362 36 487 c 0
 36 582 83 725 344 725 c 0xd0
EndSplineSet
Validated: 1
EndChar

StartChar: periodcentered
Encoding: 183 183 121
Width: 346
VWidth: 1507
Flags: W
HStem: 200 196<111.702 234.298>
VStem: 75 196<236.545 359.721>
LayerCount: 2
Fore
SplineSet
173 200 m 256
 117 200 75 246 75 298 c 256
 75 355 121 396 173 396 c 256
 230 396 271 351 271 298 c 256
 271 246 229 200 173 200 c 256
EndSplineSet
Validated: 1
EndChar

StartChar: cedilla
Encoding: 184 184 122
Width: 263
VWidth: 1507
Flags: W
HStem: -211 41<49.9783 164.693> -80 32<131 151.686>
VStem: 172 54<-161.645 -94.3844>
LayerCount: 2
Fore
SplineSet
131 -48 m 1
 181 -48 226 -77 226 -121 c 0
 226 -189 153 -211 115 -211 c 0
 65 -211 35 -185 35 -165 c 0
 35 -159 38 -153 42 -146 c 1
 62 -162 86 -170 115 -170 c 0
 133 -170 172 -162 172 -128 c 0
 172 -90 118 -80 84 -80 c 0
 79 -80 73 -81 68 -81 c 1
 128 11 l 1
 173 11 l 1
 131 -48 l 1
EndSplineSet
Validated: 1
EndChar

StartChar: onesuperior
Encoding: 185 185 123
Width: 419
VWidth: 1507
Flags: W
HStem: 671 45<166.611 210>
VStem: 210 51<329.93 671>
LayerCount: 2
Fore
SplineSet
232 716 m 2
 247 716 261 706 261 690 c 2
 261 360 l 2
 261 326 244 309 210 309 c 1
 210 671 l 1
 193 671 l 2
 157 671 148 697 148 716 c 1
 232 716 l 2
EndSplineSet
Validated: 1
EndChar

StartChar: ordmasculine
Encoding: 186 186 124
Width: 443
VWidth: 1507
Flags: W
HStem: 311 45<129.351 285.856> 675 45<128.332 283.569>
VStem: 0 51<435.872 595.095> 362 51<433.485 595.75>
LayerCount: 2
Fore
SplineSet
205 311 m 0
 93 311 0 406 0 514 c 0
 0 630 97 720 205 720 c 0
 317 720 413 631 413 514 c 0
 413 401 318 311 205 311 c 0
205 675 m 0
 122 675 51 605 51 514 c 256
 51 426 120 356 205 356 c 0
 292 356 362 420 362 514 c 0
 362 607 290 675 205 675 c 0
EndSplineSet
Validated: 1
EndChar

StartChar: onequarter
Encoding: 188 188 126
Width: 854
VWidth: 1507
Flags: W
HStem: -5 21G<690 707.5> 96 46<538 690 742 792.406> 671 45<172.611 216>
VStem: 216 51<329.93 671> 690 52<11.9739 96 142 320>
LayerCount: 2
Fore
SplineSet
238 716 m 2
 253 716 267 706 267 690 c 2
 267 360 l 2
 267 326 250 309 216 309 c 1
 216 671 l 1
 199 671 l 2
 163 671 154 697 154 716 c 1
 238 716 l 2
714 406 m 0
 725 406 742 399 742 383 c 2
 742 142 l 1
 806 142 l 1
 806 111 794 96 769 96 c 2
 742 96 l 1
 742 36 l 2
 742 9 725 -5 690 -5 c 1
 690 96 l 1
 491 96 l 2
 470 96 465 111 465 118 c 0
 465 123 468 129 472 134 c 2
 696 398 l 2
 701 403 708 406 714 406 c 0
690 142 m 1
 690 320 l 1
 538 142 l 1
 690 142 l 1
580 722 m 2
 590 743 604 754 623 754 c 0
 632 754 642 751 653 746 c 1
 274 -6 l 2
 263 -28 249 -39 232 -39 c 0
 223 -39 213 -36 202 -30 c 1
 580 722 l 2
EndSplineSet
Validated: 1
LCarets2: 2 0 0 
Ligature2: "'frac' Diagonal Fractions in Latin lookup 0 subtable" one fraction four
Ligature2: "'frac' Diagonal Fractions in Latin lookup 0 subtable" one slash four
EndChar

StartChar: onehalf
Encoding: 189 189 127
Width: 854
VWidth: 1507
Flags: W
HStem: 0 45<543 773.518> 363 44<572.005 705.211> 671 45<172.611 216>
VStem: 216 51<329.93 671> 491 47<278.695 330.608> 740 48<239.324 330.65>
LayerCount: 2
Fore
SplineSet
238 716 m 2
 253 716 267 706 267 690 c 2
 267 360 l 2
 267 326 250 309 216 309 c 1
 216 671 l 1
 199 671 l 2
 163 671 154 697 154 716 c 1
 238 716 l 2
639 407 m 0
 702 407 788 365 788 282 c 0
 788 238 760 202 698 171 c 2
 644 146 l 2
 568 115 549 69 543 45 c 1
 749 45 l 2
 775 45 788 30 788 0 c 1
 514 0 l 2
 506 0 490 4 490 21 c 0
 490 88 532 150 624 188 c 0
 719 230 740 248 740 282 c 0
 740 320 701 363 639 363 c 0
 579 363 538 322 538 282 c 2
 538 274 l 2
 538 272 539 266 541 258 c 1
 514 258 491 280 491 294 c 0
 491 328 545 407 639 407 c 0
580 722 m 2
 590 743 604 754 623 754 c 0
 632 754 642 751 653 746 c 1
 274 -6 l 2
 263 -28 249 -39 232 -39 c 0
 223 -39 213 -36 202 -30 c 1
 580 722 l 2
EndSplineSet
Validated: 1
LCarets2: 2 0 0 
Ligature2: "'frac' Diagonal Fractions in Latin lookup 0 subtable" one fraction two
Ligature2: "'frac' Diagonal Fractions in Latin lookup 0 subtable" one slash two
EndChar

StartChar: threequarters
Encoding: 190 190 128
Width: 854
VWidth: 1507
Flags: W
HStem: -5 21G<690 707.5> 96 46<538 690 742 792.406> 309 44<145.328 285.013> 509 44<190.009 274.083> 677 43<155.564 274.123>
VStem: 68 47<381.448 440.938> 88 49<596.79 657.774> 294 50<572.605 657.8> 315 50<382.218 479.485> 690 52<11.9739 96 142 320>
LayerCount: 2
Fore
SplineSet
714 406 m 0xf840
 725 406 742 399 742 383 c 2
 742 142 l 1
 806 142 l 1
 806 111 794 96 769 96 c 2
 742 96 l 1
 742 36 l 2
 742 9 725 -5 690 -5 c 1
 690 96 l 1
 491 96 l 2
 470 96 465 111 465 118 c 0
 465 123 468 129 472 134 c 2
 696 398 l 2
 701 403 708 406 714 406 c 0xf840
690 142 m 1
 690 320 l 1
 538 142 l 1
 690 142 l 1
88 624 m 0xfb40
 88 659 128 720 216 720 c 0
 286 720 344 673 344 615 c 0xfb40
 344 583 325 554 297 534 c 1
 331 516 365 481 365 431 c 0
 365 362 301 309 216 309 c 0
 135 309 68 365 68 419 c 0
 68 443 84 455 116 455 c 1
 115 450 115 446 115 442 c 2
 115 431 l 2
 115 384 161 353 216 353 c 0
 268 353 315 385 315 431 c 0xfcc0
 315 476 268 509 216 509 c 0
 203 509 190 518 190 531 c 0
 190 544 200 553 216 553 c 0
 257 553 294 579 294 615 c 256
 294 651 257 677 216 677 c 0
 173 677 137 652 137 615 c 0
 137 607 140 598 142 594 c 1
 138 594 135 593 132 593 c 0
 117 593 88 599 88 624 c 0xfb40
580 722 m 2
 590 743 604 754 623 754 c 0
 632 754 642 751 653 746 c 1
 274 -6 l 2
 263 -28 249 -39 232 -39 c 0
 223 -39 213 -36 202 -30 c 1
 580 722 l 2
EndSplineSet
Validated: 1
LCarets2: 2 0 0 
Ligature2: "'frac' Diagonal Fractions in Latin lookup 0 subtable" three fraction four
Ligature2: "'frac' Diagonal Fractions in Latin lookup 0 subtable" three slash four
EndChar

StartChar: questiondown
Encoding: 191 191 129
Width: 503
VWidth: 1507
Flags: W
HStem: -214 51<174.301 339.936> 407 113<211.826 302.205>
VStem: 47 57<-91.5091 57.8151> 200 114<419.306 508.078> 229 57<218.772 341.452> 411 56<-93.1869 -12.7642>
LayerCount: 2
Fore
SplineSet
258 -214 m 0xec
 147 -214 47 -142 47 -15 c 0
 47 26 56 60 76 86 c 0
 148 183 229 198 229 277 c 2
 229 309 l 2
 229 347 248 366 286 366 c 1
 286 277 l 2
 286 134 104 125 104 -15 c 0
 104 -99 166 -163 258 -163 c 0
 336 -163 411 -113 411 -15 c 2
 411 -0 l 2
 411 3 411 8 410 14 c 1
 441 14 467 -9 467 -37 c 0
 467 -96 410 -214 258 -214 c 0xec
258 520 m 256
 292 520 314 495 314 464 c 256
 314 433 292 407 258 407 c 256
 227 407 200 430 200 464 c 256xf4
 200 498 227 520 258 520 c 256
EndSplineSet
Validated: 1
EndChar

StartChar: AE
Encoding: 198 198 135
Width: 908
VWidth: 1507
Flags: W
HStem: -9 21G<28 52.4156> 0 54<591 871.838> 234 54<238 502> 332 54<559 826.253> 662 54<520 856.575>
LayerCount: 2
Fore
SplineSet
39 -9 m 1xb8
 17 1 13 20 13 32 c 0
 13 44 17 56 26 69 c 2
 463 716 l 1
 824 716 l 2
 861 716 879 698 879 662 c 1
 520 662 l 1
 552 386 l 1
 849 386 l 1
 849 358 838 332 794 332 c 2
 559 332 l 1
 591 54 l 1
 894 54 l 1
 894 18 876 0 840 0 c 2
 532 0 l 1x78
 508 234 l 1
 202 234 l 1
 39 -9 l 1xb8
238 288 m 1
 502 288 l 1
 461 657 l 1
 458 653 l 1
 460 623 l 1
 238 288 l 1
EndSplineSet
Validated: 1
EndChar

StartChar: Ccedilla
Encoding: 199 199 136
Width: 699
VWidth: 1507
Flags: W
HStem: -211 41<284.978 399.693> -80 32<366 386.686> -9 54<256.533 350> 671 54<255.595 461.685>
VStem: 75 61<152.211 566.439> 407 54<-161.645 -94.3844> 580 59<149.693 228.541 487.156 566.619>
LayerCount: 2
Fore
SplineSet
357 671 m 0
 242 671 136 596 136 491 c 2
 136 226 l 2
 136 129 233 45 357 45 c 0
 485 45 580 131 580 226 c 2
 580 238 l 2
 580 245 580 251 579 256 c 1
 598 256 638 246 638 204 c 0
 638 125 550 10 395 -7 c 1
 366 -48 l 1
 416 -48 461 -77 461 -121 c 0
 461 -189 388 -211 350 -211 c 0
 300 -211 270 -185 270 -165 c 0
 270 -159 273 -153 277 -146 c 1
 297 -162 321 -170 350 -170 c 0
 368 -170 407 -162 407 -128 c 0
 407 -90 353 -80 319 -80 c 0
 314 -80 308 -81 303 -81 c 1
 350 -9 l 1
 216 -6 75 85 75 226 c 2
 75 491 l 2
 75 636 223 725 357 725 c 0
 549 725 639 586 639 513 c 0
 639 471 597 461 579 461 c 1
 580 466 580 470 580 472 c 2
 580 491 l 2
 580 594 477 671 357 671 c 0
EndSplineSet
Validated: 1
EndChar

StartChar: Eth
Encoding: 208 208 145
Width: 729
VWidth: 1507
Flags: W
HStem: 0 54<151 472.21> 333 51<20.9304 90 151 300.07> 662 54<151 474.411>
VStem: 90 61<54 333 384 662> 595 59<160.926 555.171>
LayerCount: 2
Fore
SplineSet
121 0 m 2
 101 0 90 15 90 30 c 2
 90 333 l 1
 0 333 l 1
 0 367 17 384 51 384 c 2
 90 384 l 1
 90 686 l 2
 90 706 100 716 121 716 c 2
 372 716 l 2
 496 716 654 637 654 482 c 2
 654 235 l 2
 654 101 520 0 372 0 c 2
 121 0 l 2
595 482 m 2
 595 586 489 662 372 662 c 2
 151 662 l 1
 151 384 l 1
 321 384 l 1
 321 350 304 333 270 333 c 2
 151 333 l 1
 151 54 l 1
 372 54 l 2
 494 54 595 136 595 235 c 2
 595 482 l 2
EndSplineSet
Validated: 1
EndChar

StartChar: multiply
Encoding: 215 215 152
Width: 602
VWidth: 1507
Flags: W
LayerCount: 2
Back
SplineSet
522 113 m 1
 496.667 89.6667 472.333 89.6667 449 113 c 2
 80 482 l 1
 105.333 505.333 129.333 505.333 152 482 c 2
 522 113 l 1
449 482 m 2
 472.333 505.333 496.667 505.333 522 482 c 1
 152 113 l 2
 129.333 89.6667 105.333 89.6667 80 113 c 1
 449 482 l 2
EndSplineSet
Fore
SplineSet
449 482 m 2
 461 494 473 500 485 500 c 0
 497 500 509 494 522 482 c 1
 337 298 l 1
 522 113 l 1
 509 101 497 96 485 96 c 0
 473 96 461 101 449 113 c 2
 301 261 l 1
 152 113 l 2
 141 101 129 96 117 96 c 0
 105 96 93 101 80 113 c 1
 264 298 l 1
 80 482 l 1
 93 494 105 500 117 500 c 0
 129 500 141 494 152 482 c 2
 301 334 l 1
 449 482 l 2
EndSplineSet
Validated: 1
EndChar

StartChar: Oslash
Encoding: 216 216 153
Width: 854
VWidth: 1507
Flags: W
HStem: -9 54<312.671 537.781> 671 54<317.304 539.11>
VStem: 60 61<243.193 470.555> 734 60<243.207 473.179>
LayerCount: 2
Fore
SplineSet
427 671 m 0
 263 671 121 535 121 357 c 0
 121 250 175 149 263 92 c 1
 543 648 l 1
 506 663 467 671 427 671 c 0
580 722 m 2
 590 743 604 754 623 754 c 0
 632 754 642 751 653 746 c 1
 616 673 l 1
 722 610 794 495 794 357 c 0
 794 159 638 -9 427 -9 c 0
 376 -9 329 1 286 18 c 1
 274 -6 l 2
 263 -28 249 -39 232 -39 c 0
 223 -39 213 -36 202 -30 c 1
 238 42 l 1
 129 108 60 227 60 357 c 0
 60 562 224 725 427 725 c 0
 477 725 524 715 568 697 c 1
 580 722 l 2
591 623 m 1
 311 67 l 1
 346 53 385 45 427 45 c 0
 606 45 734 191 734 357 c 0
 734 473 675 569 591 623 c 1
EndSplineSet
Validated: 1
EndChar

StartChar: Thorn
Encoding: 222 222 159
Width: 595
VWidth: 1507
Flags: W
HStem: -9 21G<90 104> 175 51<150.193 378.447> 549 49<150.372 394.907> 704 20G<131 149>
VStem: 90 59<18.1377 181 231.093 540.244 588 695.079> 481 59<313.014 474.237>
LayerCount: 2
Fore
SplineSet
276 598 m 0
 489 598 540 480 540 402 c 0
 540 266 428 175 249 175 c 0
 179 175 168 177 149 181 c 1
 149 50 l 2
 149 3 118 -9 90 -9 c 1
 90 665 l 2
 90 702 113 724 149 724 c 1
 149 588 l 1
 183 596 224 598 276 598 c 0
252 226 m 0
 445 226 481 327 481 395 c 0
 481 518 374 549 276 549 c 0
 225 549 173 543 149 535 c 1
 149 235 l 1
 181 228 215 226 252 226 c 0
EndSplineSet
Validated: 1
EndChar

StartChar: uni00DF
Encoding: 223 223 160
Width: 559
VWidth: 1507
Flags: W
HStem: -9 48<242.408 379.57> 360 48<243 326.009> 677 48<192.919 333.897>
VStem: 90 59<-112.218 628.768> 378 62<460.434 631.269> 425 59<89.6001 290.065>
LayerCount: 2
Fore
SplineSet
258 677 m 0xf8
 171 677 149 600 149 538 c 2
 149 -80 l 2
 149 -119 129 -139 90 -139 c 1
 90 534 l 2
 90 621 126 725 268 725 c 0
 371 725 440 647 440 544 c 0xf8
 440 469 400 422 348 393 c 1
 455 360 484 276 484 202 c 0
 484 78 430 -9 312 -9 c 0
 256 -9 235 7 235 32 c 0
 235 40 238 49 243 59 c 1
 262 49 289 39 317 39 c 0
 360 39 425 62 425 194 c 0xf4
 425 294 383 360 243 360 c 1
 243 408 l 1
 356 413 378 476 378 547 c 0
 378 610 354 677 258 677 c 0xf8
EndSplineSet
Validated: 1
EndChar

StartChar: ae
Encoding: 230 230 167
Width: 895
VWidth: 1507
Flags: W
HStem: -9 50<173.644 350.176 531.381 701.633> 267 50<174.337 413 467 766> 470 50<183.684 348.013 530.555 702.045>
VStem: 60 55<93.8409 214.159> 413 54<99.0973 267 317 409.317> 766 54<317 409.422> 766 43<102.398 139.717>
LayerCount: 2
Fore
SplineSet
60 154 m 256xfa
 60 252 157 317 264 317 c 2
 413 317 l 1
 413 350 l 2
 413 410 354 470 264 470 c 0
 172 470 123 397 110 372 c 1
 95 383 85 402 85 419 c 0
 85 451 158 520 264 520 c 0
 331 520 402 490 442 434 c 1
 473 483 536 520 616 520 c 0
 734 520 820 439 820 348 c 2
 820 294 l 2xfc
 820 278 806 267 793 267 c 2
 467 267 l 1
 467 161 l 2
 467 101 525 41 616 41 c 0
 717 41 766 111 766 163 c 1
 784 163 809 142 809 117 c 0
 809 85 747 -9 616 -9 c 0
 536 -9 473 28 442 77 c 1
 402 21 331 -9 264 -9 c 0
 155 -9 60 56 60 154 c 256xfa
264 41 m 256
 357 41 413 101 413 161 c 2
 413 267 l 1
 263 267 l 2
 181 267 115 222 115 154 c 256
 115 86 181 41 264 41 c 256
616 470 m 256
 528 470 467 411 467 348 c 2
 467 317 l 1
 766 317 l 1
 766 348 l 2
 766 400 717 470 616 470 c 256
EndSplineSet
Validated: 1
EndChar

StartChar: ccedilla
Encoding: 231 231 168
Width: 518
VWidth: 1507
Flags: W
HStem: -211 41<201.978 316.693> -80 32<283 303.686> 470 50<193.951 364.075>
VStem: 75 55<101.062 410.332> 324 54<-161.645 -94.3844> 428 44<101.547 139.958 370.599 409.453>
LayerCount: 2
Fore
SplineSet
75 348 m 2
 75 442 165 520 279 520 c 0
 408 520 472 429 472 393 c 0
 472 366 444 348 428 348 c 1
 428 400 380 470 279 470 c 0
 178 470 130 402 130 348 c 2
 130 161 l 2
 130 101 186 41 279 41 c 0
 379 41 428 111 428 163 c 1
 445 163 472 144 472 118 c 0
 472 86 419 7 312 -7 c 1
 283 -48 l 1
 333 -48 378 -77 378 -121 c 0
 378 -189 305 -211 267 -211 c 0
 217 -211 187 -185 187 -165 c 0
 187 -159 190 -153 194 -146 c 1
 214 -162 238 -170 267 -170 c 0
 285 -170 324 -162 324 -128 c 0
 324 -90 270 -80 236 -80 c 0
 231 -80 225 -81 220 -81 c 1
 267 -9 l 1
 170 -4 75 62 75 161 c 2
 75 348 l 2
EndSplineSet
Validated: 1
EndChar

StartChar: eth
Encoding: 240 240 177
Width: 630
VWidth: 1507
Flags: W
HStem: -9 48<220.386 400.836> 472 48<224.105 405.307>
VStem: 60 55<151.138 350.861> 511 59<151.958 369.475>
LayerCount: 2
Fore
SplineSet
315 520 m 0
 334 520 435 517 509 427 c 1
 511 431 l 1
 499 448 489 459 475 469 c 1
 435 532 384 586 323 629 c 1
 158 553 l 1
 154 563 151 572 151 580 c 0
 151 598 162 611 182 621 c 2
 270 662 l 1
 248 675 214 693 155 717 c 1
 178 764 l 1
 271 726 315 698 329 689 c 1
 469 754 l 1
 473 744 476 735 476 727 c 0
 476 709 465 696 445 686 c 2
 377 654 l 1
 561 507 570 333 570 268 c 0
 570 81 440 -9 311 -9 c 0
 160 -9 60 103 60 247 c 0
 60 418 191 520 315 520 c 0
309 39 m 0
 412 39 511 108 511 261 c 256
 511 314 501 368 463 413 c 1
 391 471 343 472 315 472 c 0
 165 472 115 335 115 249 c 0
 115 136 193 39 309 39 c 0
EndSplineSet
Validated: 1
EndChar

StartChar: divide
Encoding: 247 247 184
Width: 602
VWidth: 1507
Flags: W
HStem: 66 112<258.155 345.602> 271 55<69.6227 531.155> 419 112<258.358 344.559>
VStem: 246 111<78.1184 166.387 431.118 518.461>
CounterMasks: 1 e0
LayerCount: 2
Fore
SplineSet
45 271 m 1
 45 315 76 326 99 326 c 2
 556 326 l 1
 556 301 545 271 502 271 c 2
 45 271 l 1
301 419 m 256
 272 419 246 443 246 475 c 256
 246 503 270 531 301 531 c 256
 333 531 357 504 357 475 c 256
 357 442 331 419 301 419 c 256
301 66 m 256
 272 66 246 90 246 122 c 256
 246 154 272 178 301 178 c 256
 334 178 357 152 357 122 c 256
 357 89 331 66 301 66 c 256
EndSplineSet
Validated: 1
EndChar

StartChar: oslash
Encoding: 248 248 185
Width: 649
VWidth: 1507
Flags: W
HStem: -9 50<254.162 414.691> 470 50<232.452 396.312>
VStem: 60 55<161.01 349.674> 535 54<162.373 349.648>
LayerCount: 2
Back
SplineSet
427 517 m 2
 441.667 549 465.667 557 499 541 c 1
 223 -6 l 2
 207 -39.3333 183 -47.3333 151 -30 c 1
 427 517 l 2
60 255 m 256
 60 291 66.8333 325 80.5 357 c 128
 94.1667 389 113 417.167 137 441.5 c 128
 161 465.833 189.167 485 221.5 499 c 128
 253.833 513 288 520 324 520 c 256
 360 520 394.167 513 426.5 499 c 128
 458.833 485 487 465.833 511 441.5 c 128
 535 417.167 554 389 568 357 c 128
 582 325 589 291 589 255 c 256
 589 218.333 582 184 568 152 c 128
 554 120 535 92 511 68 c 128
 487 44 458.833 25.1667 426.5 11.5 c 128
 394.167 -2.16667 360 -9 324 -9 c 256
 288 -9 253.833 -2.16667 221.5 11.5 c 128
 189.167 25.1667 161 44 137 68 c 128
 113 92 94.1667 120 80.5 152 c 128
 66.8333 184 60 218.333 60 255 c 256
115 255 m 256
 115 225 120.5 197.167 131.5 171.5 c 128
 142.5 145.833 157.167 123.167 175.5 103.5 c 128
 193.833 83.8333 215.833 68.5 241.5 57.5 c 128
 267.167 46.5 294.667 41 324 41 c 256
 353.333 41 380.833 46.5 406.5 57.5 c 128
 432.167 68.5 454.5 83.8333 473.5 103.5 c 128
 492.5 123.167 507.5 145.833 518.5 171.5 c 128
 529.5 197.167 535 225 535 255 c 256
 535 285 529.5 313 518.5 339 c 128
 507.5 365 492.5 387.833 473.5 407.5 c 128
 454.5 427.167 432.167 442.5 406.5 453.5 c 128
 380.833 464.5 353.333 470 324 470 c 256
 294.667 470 267.167 464.5 241.5 453.5 c 128
 215.833 442.5 193.833 427.167 175.5 407.5 c 128
 157.167 387.833 142.5 365 131.5 339 c 128
 120.5 313 115 285 115 255 c 256
EndSplineSet
Fore
SplineSet
324 470 m 0
 195 470 115 363 115 255 c 0
 115 185 149 118 205 78 c 1
 397 457 l 1
 374 466 350 470 324 470 c 0
427 517 m 2
 437 538 451 549 469 549 c 0
 478 549 488 546 499 541 c 1
 467 477 l 1
 541 429 589 345 589 255 c 0
 589 108 469 -9 324 -9 c 0
 292 -9 260 -3 230 8 c 1
 223 -6 l 2
 212 -28 198 -39 181 -39 c 0
 172 -39 162 -36 151 -30 c 1
 182 32 l 1
 111 77 60 157 60 255 c 0
 60 399 177 520 324 520 c 0
 358 520 390 514 419 502 c 1
 427 517 l 2
444 433 m 1
 253 53 l 1
 275 45 298 41 324 41 c 0
 439 41 535 134 535 255 c 0
 535 328 500 394 444 433 c 1
EndSplineSet
Validated: 1
EndChar

StartChar: thorn
Encoding: 254 254 191
Width: 587
VWidth: 1507
Flags: W
HStem: -214 21G<90 105.5> -9 50<208.391 377.436> 470 50<208.431 379.185> 705 20G<126.5 145>
VStem: 90 55<-193.971 59.4873 100.668 411.903 451.513 701.744> 443 54<102.656 410.372>
LayerCount: 2
Fore
SplineSet
294 470 m 256
 201 470 145 410 145 350 c 2
 145 163 l 2
 145 109 194 41 294 41 c 256
 392 41 443 108 443 163 c 2
 443 350 l 2
 443 410 387 470 294 470 c 256
125 60 m 1
 134 49 140 42 145 39 c 1
 145 -166 l 2
 145 -204 121 -214 90 -214 c 1
 90 671 l 2
 90 707 108 725 145 725 c 1
 145 472 l 1
 140 469 134 462 125 451 c 1
 127 446 l 1
 144 468 194 520 294 520 c 0
 390 520 497 459 497 350 c 2
 497 163 l 2
 497 65 404 -9 294 -9 c 0
 194 -9 144 43 127 65 c 1
 125 60 l 1
EndSplineSet
Validated: 1
EndChar

StartChar: Lslash
Encoding: 321 321 193
Width: 624
VWidth: 1507
Flags: W
HStem: 0 54<151 571.838> 705 20G<130.5 151>
VStem: 90 61<54 301 402 697.915>
LayerCount: 2
Fore
SplineSet
121 0 m 2
 101 0 90 15 90 30 c 2
 90 301 l 1
 11 250 l 1
 4 261 1 271 1 280 c 0
 1 295 9 309 26 320 c 2
 90 362 l 1
 90 665 l 2
 90 705 110 725 151 725 c 1
 151 402 l 1
 321 514 l 1
 328 502 332 492 332 482 c 0
 332 468 323 456 307 445 c 2
 151 341 l 1
 151 54 l 1
 540 54 l 2
 576 54 594 36 594 0 c 1
 121 0 l 2
EndSplineSet
Validated: 1
EndChar

StartChar: lslash
Encoding: 322 322 194
Width: 241
VWidth: 1507
Flags: W
HStem: -9 21G<90 110.5> 705 20G<130.5 151>
VStem: 90 61<18.085 301 401 697.915>
LayerCount: 2
Fore
SplineSet
151 401 m 1
 231 454 l 1
 238 442 242 431 242 421 c 0
 242 407 233 395 217 384 c 2
 151 341 l 1
 151 51 l 2
 151 11 131 -9 90 -9 c 1
 90 301 l 1
 11 250 l 1
 4 261 1 271 1 280 c 0
 1 295 9 309 26 320 c 2
 90 362 l 1
 90 665 l 2
 90 705 110 725 151 725 c 1
 151 401 l 1
EndSplineSet
Validated: 1
EndChar

StartChar: OE
Encoding: 338 338 195
Width: 1204
VWidth: 1507
Flags: W
HStem: -9 54<255.548 460.809 758.127 966.903> 332 54<641 916.838> 671 54<255.595 461.157 758.32 966.685>
VStem: 75 61<151.212 566.439> 580 61<149.693 332 386 566.189> 1085 59<149.693 228.541 487.156 566.619>
LayerCount: 2
Fore
SplineSet
862 671 m 256
 744 671 641 593 641 491 c 2
 641 386 l 1
 939 386 l 1
 939 350 921 332 885 332 c 2
 641 332 l 1
 641 226 l 2
 641 131 735 45 862 45 c 256
 990 45 1085 131 1085 226 c 2
 1085 238 l 2
 1085 245 1085 251 1084 256 c 1
 1103 256 1143 246 1143 204 c 0
 1143 119 1041 -9 862 -9 c 0
 771 -9 666 32 610 118 c 1
 565 40 459 -9 357 -9 c 0
 221 -9 75 83 75 226 c 2
 75 491 l 2
 75 636 223 725 357 725 c 0
 452 725 557 686 610 597 c 1
 662 679 766 725 862 725 c 0
 1054 725 1144 586 1144 513 c 0
 1144 471 1102 461 1084 461 c 1
 1085 466 1085 470 1085 472 c 2
 1085 491 l 2
 1085 594 982 671 862 671 c 256
357 45 m 256
 485 45 580 131 580 226 c 2
 580 491 l 2
 580 594 477 671 357 671 c 256
 242 671 136 596 136 491 c 2
 136 226 l 2
 136 129 233 45 357 45 c 256
EndSplineSet
Validated: 1
EndChar

StartChar: oe
Encoding: 339 339 196
Width: 910
VWidth: 1507
Flags: W
HStem: -9 50<192.609 363.692 545.713 716.119> 267 50<482 781> 470 50<193.951 364.806 546.879 716.511>
VStem: 75 55<99.0973 410.332> 428 54<100.058 267 317 409.453> 781 54<317 410.247> 781 43<101.824 139.717>
LayerCount: 2
Fore
SplineSet
835 294 m 2xfc
 835 278 822 267 808 267 c 2
 482 267 l 1
 482 161 l 2
 482 101 539 41 632 41 c 0
 730 41 781 110 781 163 c 1
 799 163 824 142 824 117 c 0xfa
 824 83 760 -9 632 -9 c 0
 561 -9 490 20 454 77 c 1
 437 51 384 -9 279 -9 c 0
 178 -9 75 58 75 161 c 2
 75 348 l 2
 75 442 165 520 279 520 c 0
 349 520 419 490 455 434 c 1
 473 460 526 520 632 520 c 0
 747 520 835 441 835 348 c 2
 835 294 l 2xfc
428 348 m 2
 428 400 380 470 279 470 c 256
 178 470 130 402 130 348 c 2
 130 161 l 2
 130 101 186 41 279 41 c 0
 360 41 428 92 428 161 c 2
 428 348 l 2
632 470 m 256
 531 470 482 400 482 348 c 2
 482 317 l 1
 781 317 l 1
 781 348 l 2xfc
 781 402 730 470 632 470 c 256
EndSplineSet
Validated: 1
EndChar

StartChar: florin
Encoding: 402 402 202
Width: 575
VWidth: 1507
Flags: W
HStem: -86 48<26.927 152.396> 387 49<145.75 240 303 440.695> 677 50<382.314 524.355>
LayerCount: 2
Fore
SplineSet
457 727 m 0
 499 727 535 709 535 682 c 0
 535 674 533 666 528 657 c 1
 509 667 476 677 449 677 c 0
 393 677 321 638 309 487 c 2
 303 436 l 1
 460 436 l 1
 460 410 450 387 411 387 c 2
 298 387 l 1
 292 322 285 290 280 224 c 0
 275 175 270 61 218 -20 c 0
 190 -64 147 -86 89 -86 c 0
 33 -86 19 -60 19 -43 c 0
 19 -37 21 -29 24 -21 c 1
 49 -35 67 -38 95 -38 c 0
 189 -38 209 89 213 133 c 2
 240 387 l 1
 127 387 l 1
 127 420 143 436 175 436 c 2
 246 436 l 1
 258 587 303 727 457 727 c 0
EndSplineSet
Validated: 1
EndChar

StartChar: circumflex
Encoding: 710 710 203
Width: 461
VWidth: 1507
Flags: W
HStem: 565 155
VStem: 84 293
LayerCount: 2
Fore
SplineSet
231 720 m 256
 238 720 244 718 249 713 c 2
 377 577 l 1
 366 569 354 565 340 565 c 0
 328 565 317 569 309 577 c 2
 231 660 l 1
 152 577 l 2
 144 569 134 565 120 565 c 0
 108 565 95 569 84 577 c 1
 213 713 l 2
 218 718 224 720 231 720 c 256
EndSplineSet
Validated: 1
EndChar

StartChar: breve
Encoding: 728 728 205
Width: 452
VWidth: 1507
Flags: W
HStem: 562 51<156.318 295.214> 705 20G<99.5 113 339 352.5>
VStem: 63 50<657.067 706.668> 339 50<657.858 706.668>
LayerCount: 2
Fore
SplineSet
226 562 m 0
 147 562 63 619 63 688 c 0
 63 709 86 725 113 725 c 1
 113 661 158 613 226 613 c 256
 296 613 339 664 339 725 c 1
 366 725 389 709 389 688 c 0
 389 613 298 562 226 562 c 0
EndSplineSet
Validated: 1
EndChar

StartChar: dotaccent
Encoding: 729 729 206
Width: 238
VWidth: 1507
Flags: W
HStem: 642 109<76.3049 161.372>
VStem: 65 108<651.967 740.19>
LayerCount: 2
Fore
SplineSet
119 642 m 256
 84 642 65 669 65 696 c 0
 65 724 86 751 119 751 c 256
 151 751 173 724 173 696 c 0
 173 669 154 642 119 642 c 256
EndSplineSet
Validated: 1
EndChar

StartChar: ring
Encoding: 730 730 207
Width: 419
VWidth: 1507
Flags: W
HStem: 595 37<164.28 255.278> 757 36<165.631 252.843>
VStem: 109 37<649.788 738.487> 273 36<650.406 736.564>
LayerCount: 2
Fore
SplineSet
210 595 m 0
 151 595 109 640 109 695 c 0
 109 732 138 793 210 793 c 0
 279 793 309 732 309 695 c 0
 309 637 269 595 210 595 c 0
210 757 m 0
 159 757 146 713 146 695 c 0
 146 659 172 632 210 632 c 256
 248 632 273 660 273 695 c 0
 273 718 253 757 210 757 c 0
EndSplineSet
Validated: 1
EndChar

StartChar: ogonek
Encoding: 731 731 208
Width: 262
VWidth: 1507
Flags: W
HStem: -211 41<97.3069 212.022> -80 32<110.314 131>
VStem: 36 54<-161.645 -94.3844>
LayerCount: 2
Fore
SplineSet
131 -48 m 1
 89 11 l 1
 134 11 l 1
 194 -81 l 1
 189 -81 183 -80 178 -80 c 0
 144 -80 90 -90 90 -128 c 0
 90 -162 129 -170 147 -170 c 0
 176 -170 200 -162 220 -146 c 1
 224 -153 227 -159 227 -165 c 0
 227 -185 197 -211 147 -211 c 0
 109 -211 36 -189 36 -121 c 0
 36 -77 81 -48 131 -48 c 1
EndSplineSet
Validated: 1
EndChar

StartChar: tilde
Encoding: 732 732 209
Width: 351
VWidth: 1507
Flags: W
HStem: 597 47<201.658 276.594> 668 46<71.775 148.59>
VStem: 20 46<599.786 663.93> 283 47<647.868 710.997>
LayerCount: 2
Fore
SplineSet
101 714 m 256
 176 714 200 644 249 644 c 256
 269 644 283 670 283 687 c 0
 283 695 281 703 277 711 c 1
 284 713 290 714 295 714 c 0
 317 714 330 694 330 677 c 0
 330 658 313 597 249 597 c 0
 173 597 152 668 101 668 c 256
 80 668 66 642 66 625 c 0
 66 617 68 609 72 600 c 1
 65 597 59 596 54 596 c 0
 35 596 20 617 20 635 c 0
 20 651 37 714 101 714 c 256
EndSplineSet
Validated: 1
EndChar

StartChar: uni0E01
Encoding: 3585 3585 212
Width: 630
VWidth: 1507
Flags: W
HStem: -9 21G<159 175 482 498> 555 51<208.043 393.202>
VStem: 60 58<369.547 474.106> 118 57<22.9929 326.594> 482 58<24.3478 473.024>
LayerCount: 2
Fore
SplineSet
175 -9 m 1
 143 -9 118 17 118 54 c 2
 118 291 l 1
 114 295 60 388 60 405 c 0
 60 528 184 606 300 606 c 0
 420 606 540 526 540 405 c 2
 540 54 l 2
 540 17 514 -9 482 -9 c 1
 482 405 l 2
 482 480 406 555 300 555 c 0
 211 555 121 495 118 413 c 1
 124 403 136 370 172 312 c 1
 174 306 175 301 175 298 c 2
 175 -9 l 1
EndSplineSet
Validated: 1
EndChar

StartChar: uni0E02
Encoding: 3586 3586 213
Width: 604
VWidth: 1507
Flags: W
HStem: -9 51<287.053 421.349> 312 45<99.5531 180.318> 454 39<100.877 178.744> 555 51<134.235 262.321>
VStem: 33 59<364.854 481.376> 188 46<364.515 446.88> 193 57<78.3685 250.053> 314 57<377.113 502.07> 457 57<77.9564 571.564>
LayerCount: 2
Fore
SplineSet
353 42 m 256xfb80
 405 42 457 74 457 137 c 2
 457 541 l 2
 457 577 482 604 514 604 c 1
 514 137 l 2
 514 43 432 -9 353 -9 c 256
 275 -9 193 44 193 137 c 2
 193 166 l 2xfb80
 193 303 314 357 314 437 c 0
 314 493 265 555 202 555 c 0
 136 555 104 509 92 484 c 1
 82 474 75 464 71 454 c 1
 72 449 l 1
 86 486 126 493 140 493 c 0
 191 493 234 458 234 405 c 0xfd80
 234 354 194 312 140 312 c 0
 66 312 33 382 33 437 c 0
 33 535 114 606 202 606 c 256
 290 606 371 534 371 437 c 0
 371 344 256 297 250 166 c 2
 250 137 l 2
 250 80 297 42 353 42 c 256xfb80
140 454 m 256
 111 454 92 434 92 405 c 256
 92 376 112 357 140 357 c 256
 169 357 188 377 188 405 c 256xfd80
 188 434 169 454 140 454 c 256
EndSplineSet
Validated: 1
EndChar

StartChar: uni0E03
Encoding: 3587 3587 214
Width: 604
VWidth: 1507
Flags: W
HStem: -9 51<287.053 421.349> 312 45<99.5531 180.318> 454 39<100.877 178.744> 512 94<169.849 191.092 217.984 239.246>
VStem: 33 59<364.854 488.509> 188 46<364.515 446.88> 193 57<78.3685 250.053> 314 57<377.113 523.037> 457 57<77.9564 571.564>
LayerCount: 2
Fore
SplineSet
140 454 m 256xfd80
 111 454 92 434 92 405 c 256
 92 376 112 357 140 357 c 256
 169 357 188 377 188 405 c 256
 188 434 169 454 140 454 c 256xfd80
72 449 m 1
 86 486 126 493 140 493 c 0
 191 493 234 458 234 405 c 0xfd80
 234 354 194 312 140 312 c 0
 66 312 33 382 33 437 c 0
 33 470 39 514 65 549 c 0
 90 587 120 606 157 606 c 0
 174 606 178 596 205 571 c 1
 225 589 232 606 253 606 c 0
 322 606 371 525 371 437 c 0
 371 344 256 297 250 166 c 2
 250 137 l 2
 250 80 297 42 353 42 c 256
 405 42 457 74 457 137 c 2
 457 541 l 2
 457 577 482 604 514 604 c 1
 514 137 l 2
 514 43 432 -9 353 -9 c 256
 275 -9 193 44 193 137 c 2
 193 166 l 2xfb80
 193 303 314 357 314 437 c 0
 314 493 287 547 264 556 c 1
 235 534 227 512 205 512 c 0
 196 512 190 512 146 556 c 1
 131 550 105 532 90 482 c 1
 81 473 75 464 71 454 c 1
 72 449 l 1
EndSplineSet
Validated: 1
EndChar

StartChar: uni0E04
Encoding: 3588 3588 215
Width: 660
VWidth: 1507
Flags: W
HStem: -9 21G<132 155.584 512 529.5> 262 45<289.537 370.189> 404 45<289.231 370.363> 555 51<238.05 423.417>
VStem: 90 58<151 471.694> 378 46<314.537 396.231> 512 58<23.8792 472.172>
LayerCount: 2
Fore
SplineSet
90 405 m 2
 90 524 211 606 330 606 c 0
 451 606 570 523 570 405 c 2
 570 54 l 2
 570 19 547 -9 512 -9 c 1
 512 405 l 2
 512 480 436 555 330 555 c 256
 220 555 148 477 148 405 c 2
 148 151 l 1
 134 110 l 1
 136 106 l 1
 244 392 l 2
 255 424 286 449 330 449 c 0
 380 449 424 410 424 356 c 256
 424 302 380 262 330 262 c 0
 290 262 264 281 252 320 c 1
 250 315 l 1
 252 305 256 296 261 289 c 1
 148 -9 l 1
 116 -9 90 17 90 54 c 2
 90 405 l 2
330 404 m 256
 301 404 282 384 282 356 c 256
 282 329 301 307 330 307 c 256
 359 307 378 329 378 356 c 256
 378 385 358 404 330 404 c 256
EndSplineSet
Validated: 1
EndChar

StartChar: uni0E05
Encoding: 3589 3589 216
Width: 660
VWidth: 1507
Flags: W
HStem: -9 21G<132 155.93 512 529.5> 249 45<289.363 370.318> 390 46<289.648 370.194> 484 60<304.876 356.445> 586 20G<212.5 250 412 444.5>
VStem: 90 58<151 506.386> 378 46<301.515 382.705> 512 58<23.8792 505.975>
LayerCount: 2
Fore
SplineSet
330 390 m 256
 301 390 282 370 282 342 c 256
 282 313 302 294 330 294 c 256
 359 294 378 314 378 342 c 256
 378 371 358 390 330 390 c 256
330 484 m 0
 312 484 251 542 234 553 c 1
 195 545 148 503 148 434 c 2
 148 151 l 1
 134 110 l 1
 136 106 l 1
 244 378 l 2
 252 398 278 436 330 436 c 0
 384 436 424 393 424 342 c 256
 424 291 384 249 330 249 c 0
 290 249 264 268 252 306 c 1
 250 301 l 1
 252 291 256 283 261 276 c 1
 148 -9 l 1
 116 -9 90 17 90 54 c 2
 90 434 l 2
 90 544 182 606 243 606 c 0
 257 606 330 544 330 544 c 1
 330 544 406 606 418 606 c 0
 471 606 570 552 570 434 c 2
 570 54 l 2
 570 19 547 -9 512 -9 c 1
 512 434 l 2
 512 507 461 545 427 553 c 1
 358 501 347 484 330 484 c 0
EndSplineSet
Validated: 1
EndChar

StartChar: uni0E06
Encoding: 3590 3590 217
Width: 691
VWidth: 1507
Flags: W
HStem: -9 45<113.615 196.299> 139 45<113.289 194.443> 312 45<99.5531 180.318> 454 39<100.877 178.744> 512 94<169.849 191.092 217.984 239.246>
VStem: 33 59<364.854 488.509> 59 45<45.3611 129.859> 188 46<364.515 446.88> 206 46<46.2115 94.0773> 314 57<377.597 523.037> 544 57<52.2737 571.564>
LayerCount: 2
Fore
SplineSet
193 175 m 1xfae0
 200 304 314 360 314 437 c 0
 314 493 287 547 264 556 c 1
 235 534 227 512 205 512 c 0
 196 512 190 512 146 556 c 1
 131 550 105 532 90 482 c 1
 81 473 75 464 71 454 c 1
 72 449 l 1
 86 486 126 493 140 493 c 0
 191 493 234 458 234 405 c 0
 234 354 194 312 140 312 c 0
 66 312 33 382 33 437 c 0xfd60
 33 470 39 514 65 549 c 0
 90 587 120 606 157 606 c 0
 174 606 178 596 205 571 c 1
 225 589 232 606 253 606 c 0
 322 606 371 525 371 437 c 0
 371 345 250 288 250 172 c 0
 250 165 251 159 252 155 c 1
 544 51 l 1
 544 541 l 2
 544 577 569 604 601 604 c 1
 601 54 l 2
 601 17 577 -9 544 -9 c 1
 252 95 l 1
 252 87 l 2
 252 31 205 -9 155 -9 c 0
 99 -9 59 35 59 87 c 0
 59 142 103 184 155 184 c 0
 163 184 179 182 193 175 c 1xfae0
140 454 m 256
 111 454 92 434 92 405 c 256
 92 376 112 357 140 357 c 256
 169 357 188 377 188 405 c 256
 188 434 169 454 140 454 c 256
155 139 m 256
 127 139 104 118 104 87 c 256
 104 57 128 36 155 36 c 256
 185 36 206 60 206 87 c 256xfae0
 206 118 183 139 155 139 c 256
EndSplineSet
Validated: 1
EndChar

StartChar: uni0E07
Encoding: 3591 3591 218
Width: 545
VWidth: 1507
Flags: W
HStem: -9 21G<379.941 414.5> 421 43<323.074 402.085> 561 45<321.667 402.609>
VStem: 268 46<472.224 552.576> 398 57<77 441.791> 410 45<471.533 553.762>
LayerCount: 2
Fore
SplineSet
268 512 m 256xf8
 268 567 311 606 362 606 c 256
 413 606 455 567 455 512 c 2
 455 54 l 2xf4
 455 17 431 -9 398 -9 c 1
 63 362 l 2
 52 373 47 386 47 401 c 0
 47 416 52 429 63 440 c 1
 415 51 l 1
 416 56 l 1
 398 77 l 1
 398 421 l 1
 408 427 416 435 422 445 c 1
 421 449 l 1
 408 430 389 421 362 421 c 0
 311 421 268 457 268 512 c 256xf8
314 512 m 0
 314 487 334 464 362 464 c 0
 392 464 410 488 410 512 c 0
 410 541 391 561 362 561 c 0
 336 561 314 541 314 512 c 0
EndSplineSet
Validated: 1
EndChar

StartChar: uni0E08
Encoding: 3592 3592 219
Width: 587
VWidth: 1507
Flags: W
HStem: -9 21G<433.061 456> 264 45<230.893 312.512> 405 46<230.391 312.389> 555 51<176.636 353.82>
VStem: 35 55<404.068 474.353> 178 45<316.391 397.194> 440 57<137.765 475.308>
LayerCount: 2
Fore
SplineSet
271 405 m 256
 242 405 223 385 223 357 c 256
 223 328 243 309 271 309 c 256
 298 309 320 328 320 357 c 256
 320 386 298 405 271 405 c 256
265 606 m 0
 391 606 497 519 497 405 c 2
 497 54 l 2
 497 19 472 -9 440 -9 c 1
 338 285 l 1
 344 293 348 302 350 311 c 1
 348 315 l 1
 337 275 298 264 271 264 c 0
 217 264 178 306 178 357 c 256
 178 411 220 451 271 451 c 0
 316 451 348 422 360 384 c 2
 455 101 l 1
 457 106 l 1
 440 160 l 1
 440 405 l 2
 440 493 356 555 265 555 c 256
 164 555 90 483 90 405 c 2
 90 391 l 2
 90 388 91 383 92 377 c 1
 62 377 35 399 35 427 c 0
 35 479 102 606 265 606 c 0
EndSplineSet
Validated: 1
EndChar

StartChar: uni0E09
Encoding: 3593 3593 220
Width: 625
VWidth: 1507
Flags: W
HStem: -9 45<442.448 525.421> 185 46<113.806 194.978> 327 45<113.682 194.107> 555 51<182.737 365.439>
VStem: 38 52<426.044 470.365> 60 46<238.295 319.485> 190 57<54 206.497> 202 45<238.192 319.161> 455 57<181.609 472.195> 535 45<45.8294 130.074>
LayerCount: 2
Fore
SplineSet
247 -9 m 1xf9c0
 215 -9 190 19 190 54 c 2
 190 185 l 1xf2c0
 200 191 208 199 214 210 c 1
 213 214 l 1
 200 195 181 185 154 185 c 0
 100 185 60 228 60 279 c 256
 60 330 100 372 154 372 c 256
 208 372 247 330 247 279 c 2xf5c0
 247 54 l 1xf2c0
 413 157 l 2
 436 171 455 194 455 219 c 2
 455 405 l 2
 455 480 379 555 273 555 c 256
 162 555 90 474 90 405 c 1
 51 405 38 431 38 448 c 0
 38 492 123 606 273 606 c 0
 378 606 512 536 512 405 c 2
 512 219 l 2
 512 206 510 194 505 181 c 1
 538 173 580 143 580 87 c 0
 580 32 535 -9 484 -9 c 0
 431 -9 391 31 387 77 c 1
 247 -9 l 1xf9c0
154 327 m 256
 125 327 106 307 106 279 c 256
 106 250 126 231 154 231 c 256
 183 231 202 251 202 279 c 256xf5c0
 202 308 182 327 154 327 c 256
484 139 m 256
 456 139 433 118 433 87 c 256
 433 57 457 36 484 36 c 256
 514 36 535 60 535 87 c 256
 535 118 512 139 484 139 c 256
EndSplineSet
Validated: 1
EndChar

StartChar: uni0E0A
Encoding: 3594 3594 221
Width: 604
VWidth: 1507
Flags: W
HStem: -9 51<287.053 421.349> 312 45<99.5531 180.318> 454 39<100.877 178.744> 555 51<134.235 262.321>
VStem: 33 59<364.854 481.376> 188 46<364.515 446.88> 193 57<78.3685 250.053> 314 57<377.113 502.07> 457 57<77.9564 419.659> 487 53<525.2 598.329>
LayerCount: 2
Fore
SplineSet
353 -9 m 256xf980
 275 -9 193 44 193 137 c 2
 193 166 l 2xfb80
 193 303 314 357 314 437 c 0
 314 493 265 555 202 555 c 0
 136 555 104 509 92 484 c 1
 82 474 75 464 71 454 c 1
 72 449 l 1
 86 486 126 493 140 493 c 0
 191 493 234 458 234 405 c 0xfd
 234 354 194 312 140 312 c 0
 66 312 33 382 33 437 c 0
 33 535 114 606 202 606 c 256
 290 606 371 534 371 437 c 0
 371 344 256 297 250 166 c 2
 250 137 l 2
 250 80 297 42 353 42 c 256
 405 42 457 74 457 137 c 2
 457 327 l 2xfb80
 457 471 390 415 390 457 c 256
 390 488 428 463 465 524 c 0
 472 537 487 567 487 595 c 2
 487 610 l 2
 487 613 486 618 484 624 c 1
 514 624 540 602 540 575 c 0xf940
 540 549 513 478 466 457 c 1
 503 430 514 379 514 327 c 2
 514 137 l 2
 514 43 432 -9 353 -9 c 256xf980
140 454 m 256
 111 454 92 434 92 405 c 256
 92 376 112 357 140 357 c 256
 169 357 188 377 188 405 c 256xfd
 188 434 169 454 140 454 c 256
EndSplineSet
Validated: 1
EndChar

StartChar: uni0E0B
Encoding: 3595 3595 222
Width: 604
VWidth: 1507
Flags: W
HStem: -9 51<287.053 421.349> 312 45<99.5531 180.318> 454 39<100.877 178.744> 512 94<169.849 191.092 217.984 239.246>
VStem: 33 59<364.854 488.509> 188 46<364.515 446.88> 193 57<78.3685 250.053> 314 57<377.113 523.037> 457 57<77.9564 419.659> 487 53<525.2 598.329>
LayerCount: 2
Fore
SplineSet
353 -9 m 256xf980
 275 -9 193 44 193 137 c 2
 193 166 l 2xfb80
 193 303 314 357 314 437 c 0
 314 493 287 547 264 556 c 1
 235 534 227 512 205 512 c 0
 196 512 190 512 146 556 c 1
 131 550 105 532 90 482 c 1
 81 473 75 464 71 454 c 1
 72 449 l 1
 86 486 126 493 140 493 c 0
 191 493 234 458 234 405 c 0xfd
 234 354 194 312 140 312 c 0
 66 312 33 382 33 437 c 0
 33 470 39 514 65 549 c 0
 90 587 120 606 157 606 c 0
 174 606 178 596 205 571 c 1
 225 589 232 606 253 606 c 0
 322 606 371 525 371 437 c 0
 371 344 256 297 250 166 c 2
 250 137 l 2
 250 80 297 42 353 42 c 256
 405 42 457 74 457 137 c 2
 457 327 l 2xfb80
 457 471 390 415 390 457 c 256
 390 488 428 463 465 524 c 0
 472 537 487 567 487 595 c 2
 487 610 l 2
 487 613 486 618 484 624 c 1
 514 624 540 602 540 575 c 0xf940
 540 549 513 478 466 457 c 1
 503 430 514 379 514 327 c 2
 514 137 l 2
 514 43 432 -9 353 -9 c 256xf980
140 454 m 256
 111 454 92 434 92 405 c 256
 92 376 112 357 140 357 c 256
 169 357 188 377 188 405 c 256xfd
 188 434 169 454 140 454 c 256
EndSplineSet
Validated: 1
EndChar

StartChar: uni0E0C
Encoding: 3596 3596 223
Width: 908
VWidth: 1507
Flags: W
HStem: -9 45<170.893 251.609 405.893 486.318> 133 45<170.231 251.609 405.391 484.141> 555 51<208.043 393.202>
VStem: 60 58<369.547 474.106> 118 57<157.209 326.594> 118 45<43.8387 125.762> 259 45<43.8928 125.93> 353 45<43.3913 125.93> 482 58<169.141 473.024> 494 46<43.8387 84> 761 57<50.5639 571.564>
LayerCount: 2
Fore
SplineSet
482 405 m 2xf3a0
 482 480 406 555 300 555 c 0
 211 555 121 495 118 413 c 1
 124 403 136 370 172 312 c 1
 174 306 175 301 175 298 c 2xf320
 175 178 l 1xf320
 165 172 157 164 151 154 c 1
 152 149 l 1
 164 168 184 178 211 178 c 0
 262 178 304 139 304 84 c 256
 304 30 262 -9 211 -9 c 256
 157 -9 118 33 118 84 c 2
 118 291 l 1
 114 295 60 388 60 405 c 0
 60 528 184 606 300 606 c 0
 420 606 540 526 540 405 c 2xf3a0
 540 145 l 1
 761 50 l 1
 761 541 l 2
 761 577 786 604 818 604 c 1
 818 54 l 2
 818 17 794 -9 761 -9 c 1
 540 84 l 1xf360
 540 33 500 -9 446 -9 c 256
 392 -9 353 33 353 84 c 256
 353 139 395 178 446 178 c 0
 454 178 458 178 485 169 c 1
 483 172 482 176 482 181 c 2
 482 405 l 2xf3a0
446 133 m 256
 417 133 398 113 398 84 c 256
 398 55 418 36 446 36 c 256
 475 36 494 56 494 84 c 256xf360
 494 113 475 133 446 133 c 256
259 84 m 256
 259 113 240 133 211 133 c 256
 182 133 163 113 163 84 c 256xf320
 163 55 183 36 211 36 c 256
 240 36 259 56 259 84 c 256
EndSplineSet
Validated: 1
EndChar

StartChar: uni0E0D
Encoding: 3597 3597 224
Width: 878
VWidth: 1507
Flags: W
HStem: -268 56<550.457 679.414> -210 37<549.525 587.319> -86 42<515.93 589.898> -9 57<547.593 694.672> -9 45<170.893 251.609> 133 45<170.231 251.609> 555 51<199.882 370.745>
VStem: 118 57<157.209 326.594> 118 45<43.8387 125.762> 259 45<43.8928 125.93> 454 57<81.5187 474.908> 467 42<-165.842 -93.0202> 597 42<-166.474 -93.2809> 721 54<-165.405 -71.8528> 731 57<83.8497 571.564>
LayerCount: 2
Fore
SplineSet
259 84 m 256xeec8
 259 113 240 133 211 133 c 256
 182 133 163 113 163 84 c 256
 163 55 183 36 211 36 c 256
 240 36 259 56 259 84 c 256xeec8
454 405 m 2xf76a
 454 495 367 555 285 555 c 0
 212 555 130 509 118 413 c 1xf6ea
 124 403 136 370 172 312 c 1
 174 306 175 301 175 298 c 2
 175 178 l 1xf748
 165 172 157 164 151 154 c 1
 152 149 l 1
 164 168 184 178 211 178 c 0
 262 178 304 139 304 84 c 256
 304 30 262 -9 211 -9 c 256
 157 -9 118 33 118 84 c 2xeec8
 118 291 l 1
 114 295 60 388 60 405 c 0
 60 517 154 606 285 606 c 256
 416 606 511 518 511 405 c 2
 511 137 l 2
 511 82 559 48 621 48 c 0
 682 48 731 83 731 137 c 2
 731 541 l 2
 731 577 756 604 788 604 c 1
 788 137 l 2
 788 49 707 -9 621 -9 c 0
 553 -9 454 34 454 137 c 2
 454 405 l 2xf76a
553 -86 m 256
 528 -86 509 -107 509 -130 c 256xe658
 509 -153 528 -173 553 -173 c 256
 578 -173 597 -153 597 -130 c 256
 597 -105 576 -86 553 -86 c 256
639 -130 m 256
 639 -178 598 -210 553 -210 c 1
 549 -211 l 1
 555 -212 560 -212 565 -212 c 0
 572 -212 577 -212 583 -210 c 1
 595 -215 607 -217 618 -217 c 0
 682 -217 721 -151 721 -85 c 0
 721 -72 720 -58 716 -45 c 1
 752 -45 775 -66 775 -99 c 0xe65c
 775 -175 720 -268 618 -268 c 0
 540 -268 467 -208 467 -130 c 0
 467 -84 502 -44 553 -44 c 0
 603 -44 639 -85 639 -130 c 256
EndSplineSet
Validated: 1
Substitution2: "Single Substitution lookup 22 subtable" uni0E0D.alt1
Substitution2: "Single Substitution lookup 22 subtable" uni0E0D.alt1
EndChar

StartChar: uni0E0E
Encoding: 3598 3598 225
AltUni2: 00f71b.ffffffff.0
Width: 658
VWidth: 1507
Flags: W
HStem: -271 45<207.369 305.497> -142 46<209.643 327.635> -9 45<98.3623 179.609> 133 45<97.8483 179.865> 555 51<234.614 420.202>
VStem: 45 45<43.6898 124.791> 87 58<385.459 473.333> 151 52<-221.272 -150.983> 175 57<157.209 312.99> 187 45<44.5936 125.762> 393 30<-92.9887 -73.7268> 509 58<-140 473.024>
LayerCount: 2
Fore
SplineSet
203 -185 m 0xf930
 203 -218 228 -226 252 -226 c 0
 286 -226 312 -204 336 -169 c 1
 317 -156 291 -142 261 -142 c 0
 257 -142 203 -142 203 -185 c 0xf930
139 133 m 256
 111 133 90 113 90 84 c 256
 90 55 112 36 139 36 c 256
 168 36 187 56 187 84 c 256xfc70
 187 113 168 133 139 133 c 256
423 -97 m 0
 423 -109 419 -118 396 -160 c 1
 430 -201 428 -196 436 -214 c 1
 509 -140 l 1
 509 405 l 2
 509 480 433 555 327 555 c 0
 238 555 148 495 145 413 c 1
 147 409 152 402 162 391 c 2
 225 315 l 2
 230 310 232 304 232 297 c 2xfab0
 232 84 l 2xf870
 232 30 190 -9 139 -9 c 256
 84 -9 45 33 45 84 c 256
 45 140 87 178 139 178 c 0
 166 178 185 168 197 149 c 1
 199 154 l 1
 193 164 185 172 175 178 c 1
 175 288 l 1xfcb0
 172 291 168 295 164 300 c 0
 108 373 87 385 87 405 c 0
 87 526 209 606 327 606 c 0
 447 606 567 526 567 405 c 2
 567 -113 l 2
 567 -129 564 -144 553 -152 c 1
 442 -265 l 2
 438 -270 432 -272 427 -272 c 0
 398 -272 409 -246 371 -199 c 1
 333 -247 292 -271 246 -271 c 0
 191 -271 151 -239 151 -185 c 0xfb30
 151 -129 198 -96 256 -96 c 0
 311 -96 353 -127 360 -131 c 1
 377 -102 393 -56 393 -56 c 1
 413 -63 423 -79 423 -97 c 0
EndSplineSet
Validated: 513
Substitution2: "Single Substitution lookup 22 subtable" uni0E0E.alt1
Substitution2: "Single Substitution lookup 22 subtable" uni0E0E.alt1
EndChar

StartChar: uni0E0F
Encoding: 3599 3599 226
AltUni2: 00f71c.ffffffff.0
Width: 657
VWidth: 1507
Flags: W
HStem: -271 45<109.863 207.497> -142 46<111.991 229.635> -9 45<98.3623 179.609> 133 45<97.8483 179.865> 555 51<234.614 420.202>
VStem: 45 45<43.6898 124.791> 53 53<-221.272 -149.599> 87 58<385.459 473.333> 175 57<157.209 312.99> 187 45<44.5936 125.762> 295 30<-95.543 -73.5769> 509 58<-182 473.024>
LayerCount: 2
Fore
SplineSet
325 -96 m 0xfa30
 325 -109 321 -117 298 -160 c 1
 318 -182 331 -196 341 -217 c 1
 387 -170 l 2
 392 -165 397 -162 403 -162 c 0
 408 -162 414 -165 419 -170 c 2
 470 -220 l 1
 509 -182 l 1
 509 405 l 2
 509 480 433 555 327 555 c 0
 238 555 148 495 145 413 c 1
 147 409 152 402 162 391 c 2
 225 315 l 2
 230 310 232 304 232 297 c 2xf9b0
 232 84 l 2
 232 30 190 -9 139 -9 c 256
 84 -9 45 33 45 84 c 256xfc70
 45 140 87 178 139 178 c 0
 166 178 185 168 197 149 c 1
 199 154 l 1
 193 164 185 172 175 178 c 1
 175 288 l 1
 172 291 168 295 164 300 c 0
 108 373 87 385 87 405 c 0xf9b0
 87 526 209 606 327 606 c 0
 447 606 567 526 567 405 c 2
 567 -163 l 2
 567 -176 562 -187 553 -196 c 2
 484 -265 l 2
 479 -270 473 -273 467 -273 c 0
 461 -273 456 -270 452 -265 c 2
 398 -211 l 1
 344 -265 l 2
 340 -270 334 -272 329 -272 c 0
 299 -272 308 -237 273 -199 c 1
 235 -247 194 -271 148 -271 c 0
 93 -271 53 -239 53 -185 c 0
 53 -129 100 -96 158 -96 c 0
 213 -96 255 -127 262 -131 c 1
 284 -98 291 -61 295 -56 c 1
 315 -63 325 -79 325 -96 c 0xfa30
106 -185 m 0xfa30
 106 -218 131 -226 154 -226 c 0
 188 -226 214 -204 238 -169 c 1
 219 -156 193 -142 163 -142 c 0
 157 -142 106 -142 106 -185 c 0xfa30
139 133 m 256
 111 133 90 113 90 84 c 256
 90 55 112 36 139 36 c 256
 168 36 187 56 187 84 c 256xfc70
 187 113 168 133 139 133 c 256
EndSplineSet
Validated: 513
Substitution2: "Single Substitution lookup 22 subtable" uni0E0F.alt1
Substitution2: "Single Substitution lookup 22 subtable" uni0E0F.alt1
EndChar

StartChar: uni0E10
Encoding: 3600 3600 227
Width: 580
VWidth: 1507
Flags: W
HStem: -301 37<109.629 185.415> -194 42<109.197 211.19 355.054 423.175> -77 42<354.618 423.211> -9 21G<407.277 434.5> 119 45<209.391 290.641> 261 45<209.391 290.419> 555 51<185.828 352.519>
VStem: 68 38<-260.14 -197.751> 157 45<171.07 253.107> 258 25<-151.354 -127.583> 309 42<-147.895 -80.6351> 418 57<106 323> 424 45<-226 -178.327 -149.93 -79.0887>
LayerCount: 2
Fore
SplineSet
283 -149 m 0xffe8
 283 -161 277 -182 261 -208 c 1
 265 -212 283 -235 295 -255 c 1
 330 -217 l 2
 334 -213 339 -211 344 -211 c 256
 349 -211 353 -213 357 -217 c 2
 395 -258 l 1
 424 -226 l 1
 424 -194 l 1
 432 -190 438 -185 443 -178 c 1
 442 -173 l 1
 430 -188 415 -194 389 -194 c 0
 348 -194 309 -162 309 -115 c 0
 309 -68 346 -35 389 -35 c 256
 432 -35 469 -68 469 -115 c 2
 469 -208 l 2
 469 -221 466 -231 460 -237 c 2
 448 -249 l 2
 403 -294 404 -301 392 -301 c 256
 387 -301 382 -299 378 -295 c 2
 338 -252 l 1
 297 -295 l 2
 293 -299 288 -301 282 -301 c 0
 260 -301 268 -280 240 -241 c 1
 221 -276 179 -301 139 -301 c 256
 96 -301 68 -267 68 -229 c 0
 68 -183 104 -155 143 -155 c 0
 196 -155 222 -174 232 -182 c 1
 239 -170 247 -149 258 -115 c 1
 275 -122 283 -133 283 -149 c 0xffe8
106 -229 m 0
 106 -250 120 -264 140 -264 c 0
 166 -264 190 -248 213 -216 c 1
 194 -201 178 -193 143 -193 c 0
 132 -193 106 -200 106 -229 c 0
389 -77 m 256
 366 -77 351 -92 351 -115 c 256
 351 -137 366 -152 389 -152 c 256
 410 -152 427 -137 427 -115 c 256
 427 -92 410 -77 389 -77 c 256
250 261 m 256
 221 261 202 241 202 213 c 256
 202 184 221 164 250 164 c 256
 279 164 298 184 298 213 c 256
 298 242 278 261 250 261 c 256
271 606 m 0
 351 606 436 559 464 491 c 1
 466 496 l 1
 463 505 458 514 451 525 c 1
 490 597 l 1
 505 589 521 576 521 552 c 0
 521 543 519 535 514 526 c 2
 476 451 l 2
 469 438 460 433 452 433 c 0
 442 433 433 439 428 451 c 0
 405 509 344 555 271 555 c 0
 191 555 137 510 122 448 c 1
 430 374 l 2
 453 368 475 346 475 312 c 2
 475 54 l 2
 475 17 451 -9 418 -9 c 1
 329 157 l 1
 333 166 335 171 336 181 c 1
 335 185 l 1
 323 136 284 119 250 119 c 0
 199 119 157 158 157 213 c 256
 157 267 199 306 250 306 c 0
 317 306 338 246 352 220 c 0
 361 205 417 98 433 68 c 1
 434 72 l 1
 418 106 l 1
 418 323 l 1xfff0
 83 405 l 1
 72 409 60 418 60 434 c 0
 60 487 126 606 271 606 c 0
EndSplineSet
Validated: 1
Substitution2: "Single Substitution lookup 22 subtable" uni0E10.alt1
Substitution2: "Single Substitution lookup 22 subtable" uni0E10.alt1
EndChar

StartChar: uni0E11
Encoding: 3601 3601 228
Width: 734
VWidth: 1507
Flags: W
HStem: -9 21G<249 275.323 586 602> 312 45<99.5531 180.318> 454 39<100.877 178.744> 512 94<169.336 191.092 217.984 239.228>
VStem: 33 59<364.854 488.509> 188 46<364.515 446.88> 208 57<112 270.39> 314 57<376.731 523.037> 586 58<24.3478 545.871>
LayerCount: 2
Fore
SplineSet
208 166 m 2xfb80
 208 328 314 357 314 437 c 0
 314 493 287 547 264 556 c 1
 233 533 227 512 205 512 c 0
 195 512 189 513 146 556 c 1
 131 550 105 532 90 482 c 1
 81 473 75 464 71 454 c 1
 72 449 l 1
 86 486 126 493 140 493 c 0
 191 493 234 458 234 405 c 0xfd80
 234 354 194 312 140 312 c 0
 66 312 33 382 33 437 c 0
 33 470 39 514 65 549 c 0
 90 587 120 606 157 606 c 0
 174 606 178 596 205 571 c 1
 225 589 232 606 253 606 c 0
 322 606 371 525 371 437 c 0
 371 340 265 324 265 166 c 2
 265 112 l 1
 246 72 l 1
 247 68 l 1
 519 591 l 2
 523 601 531 606 544 606 c 0
 604 606 644 569 644 506 c 2
 644 54 l 2
 644 17 618 -9 586 -9 c 1
 586 506 l 2
 586 531 575 546 553 549 c 1
 265 -9 l 1
 233 -9 208 17 208 54 c 2
 208 166 l 2xfb80
140 454 m 256
 111 454 92 434 92 405 c 256
 92 376 112 357 140 357 c 256
 169 357 188 377 188 405 c 256
 188 434 169 454 140 454 c 256
EndSplineSet
Validated: 1
EndChar

StartChar: uni0E12
Encoding: 3602 3602 229
Width: 937
VWidth: 1507
Flags: W
HStem: -9 45<431.639 515.502> 139 45<431.507 511.338> 250 44<290.594 330> 390 46<289.391 370.363> 484 60<304.876 356.445> 586 20G<212.5 250 412 444.5 831 847>
VStem: 90 58<78 506.386> 237 45<301.488 382.194> 377 45<45.5546 130.077 300.484 383.646> 512 58<175 505.975> 525 45<47.3997 89.8766> 790 57<48.8709 571.564>
LayerCount: 2
Fore
SplineSet
330 390 m 256xff90
 301 390 282 370 282 342 c 256
 282 313 302 294 330 294 c 256
 359 294 378 314 378 342 c 256
 378 371 358 390 330 390 c 256xff90
473 139 m 256
 445 139 422 118 422 87 c 256
 422 57 446 36 473 36 c 256
 503 36 525 60 525 87 c 256xffb0
 525 118 501 139 473 139 c 256
330 484 m 0
 312 484 251 542 234 553 c 1
 195 545 148 503 148 434 c 2
 148 78 l 1
 127 53 l 1
 128 48 l 1
 303 249 l 1
 314 246 320 246 332 246 c 1
 330 250 l 1
 276 250 237 291 237 342 c 256
 237 396 279 436 330 436 c 0
 380 436 424 396 424 342 c 0
 424 320 416 300 401 282 c 2
 148 -9 l 1
 116 -9 90 17 90 54 c 2
 90 434 l 2
 90 544 182 606 243 606 c 0
 257 606 330 544 330 544 c 1
 330 544 406 606 418 606 c 0
 471 606 570 552 570 434 c 2xffd0
 570 149 l 1
 790 48 l 1
 790 541 l 2
 790 577 815 604 847 604 c 1
 847 54 l 2
 847 17 823 -9 790 -9 c 1
 570 90 l 1xffb0
 570 31 527 -9 473 -9 c 0
 422 -9 377 31 377 87 c 0
 377 143 422 184 473 184 c 0
 487 184 500 181 512 175 c 1
 512 434 l 2xffd0
 512 507 461 545 427 553 c 1
 358 501 347 484 330 484 c 0
EndSplineSet
Validated: 1
EndChar

StartChar: uni0E13
Encoding: 3603 3603 230
Width: 904
VWidth: 1507
Flags: W
HStem: -9 45<170.893 251.609 720.403 804.421> 133 45<170.231 251.609> 555 51<200.176 372.57>
VStem: 60 58<369.547 479.173> 118 57<157.209 326.594> 118 45<43.8387 125.762> 259 45<43.8928 125.93> 455 57<53 480.346> 734 57<181.428 571.564> 814 45<45.8294 130.074>
LayerCount: 2
Fore
SplineSet
211 133 m 256xf3c0
 182 133 163 113 163 84 c 256xf3c0
 163 55 183 36 211 36 c 256
 240 36 259 56 259 84 c 256
 259 113 240 133 211 133 c 256xf3c0
763 139 m 256
 735 139 711 118 711 87 c 256
 711 60 733 36 763 36 c 256
 793 36 814 60 814 87 c 256
 814 118 791 139 763 139 c 256
455 405 m 2
 455 505 363 555 286 555 c 256
 208 555 121 502 118 413 c 1
 124 403 136 370 172 312 c 1
 174 306 175 301 175 298 c 2xf3c0
 175 178 l 1xf3c0
 165 172 157 164 151 154 c 1
 152 149 l 1
 164 168 184 178 211 178 c 0
 262 178 304 139 304 84 c 256
 304 30 262 -9 211 -9 c 256
 157 -9 118 33 118 84 c 2
 118 291 l 1
 114 295 60 388 60 405 c 0
 60 519 156 606 286 606 c 256
 418 606 512 520 512 405 c 2
 512 53 l 1
 693 158 l 2
 704 165 734 183 734 220 c 2
 734 541 l 2
 734 577 759 604 791 604 c 1
 791 220 l 2
 791 207 789 190 785 181 c 1
 817 173 859 143 859 87 c 0
 859 32 814 -9 763 -9 c 256
 707 -9 670 35 666 80 c 1
 512 -9 l 1
 480 -9 455 17 455 54 c 2
 455 405 l 2
EndSplineSet
Validated: 1
EndChar

StartChar: uni0E14
Encoding: 3604 3604 231
Width: 660
VWidth: 1507
Flags: W
HStem: -9 21G<132 164.547 512 529.5> 265 44<289.71 332> 405 46<289.391 370.194> 555 51<238.351 423.417>
VStem: 90 58<81 470.624> 237 45<316.488 397.194> 378 46<315.93 397.705> 512 58<23.8792 472.946>
LayerCount: 2
Fore
SplineSet
330 405 m 256
 301 405 282 385 282 357 c 256
 282 328 302 309 330 309 c 256
 359 309 378 329 378 357 c 256
 378 386 358 405 330 405 c 256
330 555 m 256
 220 555 148 477 148 405 c 2
 148 81 l 1
 127 54 l 1
 128 50 l 1
 304 264 l 1
 315 261 321 261 333 261 c 1
 332 265 l 1
 277 265 237 306 237 357 c 256
 237 411 279 451 330 451 c 256
 384 451 424 408 424 357 c 0
 424 335 417 315 402 298 c 2
 148 -9 l 1
 116 -9 90 17 90 54 c 2
 90 405 l 2
 90 519 200 606 330 606 c 0
 451 606 570 525 570 405 c 2
 570 54 l 2
 570 19 547 -9 512 -9 c 1
 512 405 l 2
 512 480 436 555 330 555 c 256
EndSplineSet
Validated: 1
EndChar

StartChar: uni0E15
Encoding: 3605 3605 232
Width: 660
VWidth: 1507
Flags: W
HStem: -9 21G<132 165.388 512 529.5> 250 44<290.594 330> 390 46<289.391 370.363> 484 60<304.876 356.445> 586 20G<212.5 250 412 444.5>
VStem: 90 58<78 506.386> 237 45<301.488 382.194> 378 46<301.232 382.318> 512 58<23.8792 505.975>
LayerCount: 2
Fore
SplineSet
330 390 m 256
 301 390 282 370 282 342 c 256
 282 313 302 294 330 294 c 256
 359 294 378 314 378 342 c 256
 378 371 358 390 330 390 c 256
330 484 m 0
 312 484 251 542 234 553 c 1
 195 545 148 503 148 434 c 2
 148 78 l 1
 127 53 l 1
 128 48 l 1
 303 249 l 1
 314 246 320 246 332 246 c 1
 330 250 l 1
 276 250 237 291 237 342 c 256
 237 396 279 436 330 436 c 0
 380 436 424 396 424 342 c 0
 424 320 416 300 401 282 c 2
 148 -9 l 1
 116 -9 90 17 90 54 c 2
 90 434 l 2
 90 544 182 606 243 606 c 0
 257 606 330 544 330 544 c 1
 330 544 406 606 418 606 c 0
 471 606 570 552 570 434 c 2
 570 54 l 2
 570 19 547 -9 512 -9 c 1
 512 434 l 2
 512 507 461 545 427 553 c 1
 358 501 347 484 330 484 c 0
EndSplineSet
Validated: 1
EndChar

StartChar: uni0E16
Encoding: 3606 3606 233
Width: 630
VWidth: 1507
Flags: W
HStem: -9 45<170.893 251.609> 133 45<170.231 251.609> 555 51<208.043 393.202>
VStem: 60 58<369.547 474.106> 118 57<157.209 326.594> 118 45<43.8387 125.762> 259 45<43.8928 125.93> 482 58<24.3478 473.024>
LayerCount: 2
Fore
SplineSet
211 133 m 256xf3
 182 133 163 113 163 84 c 256xf3
 163 55 183 36 211 36 c 256
 240 36 259 56 259 84 c 256
 259 113 240 133 211 133 c 256xf3
482 405 m 2
 482 480 406 555 300 555 c 0
 211 555 121 495 118 413 c 1
 124 403 136 370 172 312 c 1
 174 306 175 301 175 298 c 2xf3
 175 178 l 1xf3
 165 172 157 164 151 154 c 1
 152 149 l 1
 164 168 184 178 211 178 c 0
 262 178 304 139 304 84 c 256
 304 30 262 -9 211 -9 c 256
 157 -9 118 33 118 84 c 2
 118 291 l 1
 114 295 60 388 60 405 c 0
 60 528 184 606 300 606 c 0
 420 606 540 526 540 405 c 2
 540 54 l 2
 540 17 514 -9 482 -9 c 1
 482 405 l 2
EndSplineSet
Validated: 1
EndChar

StartChar: uni0E17
Encoding: 3607 3607 234
Width: 700
VWidth: 1507
Flags: W
HStem: -9 21G<216 239.885 553 569.5> 419 45<98.3623 179.865> 561 45<97.8483 179.609>
VStem: 45 45<471.69 552.791> 175 57<148 439.791> 187 45<471.192 553.762> 553 57<22.9929 511.663>
LayerCount: 2
Fore
SplineSet
232 -9 m 1xf6
 200 -9 175 17 175 54 c 2
 175 419 l 1xfa
 185 425 193 433 199 443 c 1
 197 448 l 1
 185 429 166 419 139 419 c 0
 84 419 45 461 45 512 c 256
 45 568 87 606 139 606 c 256
 190 606 232 567 232 512 c 2xf6
 232 148 l 1xfa
 214 96 l 1
 216 92 l 1
 411 588 l 2
 416 600 425 606 439 606 c 0
 546 606 610 545 610 434 c 2
 610 54 l 2
 610 17 586 -9 553 -9 c 1
 553 434 l 2
 553 507 519 545 452 549 c 1
 232 -9 l 1xf6
139 561 m 256
 111 561 90 541 90 512 c 256
 90 483 112 464 139 464 c 256
 168 464 187 484 187 512 c 256xf6
 187 541 168 561 139 561 c 256
EndSplineSet
Validated: 1
EndChar

StartChar: uni0E18
Encoding: 3608 3608 235
Width: 580
VWidth: 1507
Flags: W
HStem: -9 51<211.689 368.185> 555 51<185.828 352.519>
VStem: 90 58<107.016 315.424> 433 57<107.953 318>
LayerCount: 2
Fore
SplineSet
490 597 m 1
 505 589 521 576 521 552 c 0
 521 543 519 535 514 526 c 2
 476 451 l 2
 469 438 460 433 452 433 c 0
 442 433 433 439 428 451 c 0
 405 509 344 555 271 555 c 0
 191 555 137 510 122 448 c 1
 445 369 l 2
 467 364 490 341 490 307 c 2
 490 190 l 2
 490 109 450 -9 289 -9 c 0
 149 -9 90 87 90 190 c 2
 90 286 l 2
 90 322 116 350 148 350 c 1
 148 190 l 2
 148 101 204 42 289 42 c 0
 374 42 433 97 433 190 c 2
 433 318 l 1
 83 405 l 1
 72 409 60 418 60 434 c 0
 60 487 126 606 271 606 c 0
 351 606 436 559 464 491 c 1
 466 496 l 1
 463 505 458 514 451 525 c 1
 490 597 l 1
EndSplineSet
Validated: 1
EndChar

StartChar: uni0E19
Encoding: 3609 3609 236
Width: 709
VWidth: 1507
Flags: W
HStem: -9 45<526.421 610.675> 419 45<98.3623 179.865> 561 45<97.8483 179.609>
VStem: 45 45<471.69 552.791> 175 57<50.5639 439.791> 187 45<471.192 553.762> 472 45<46.3732 91.2923> 540 57<183.115 571.564> 620 45<46.188 128.915>
LayerCount: 2
Fore
SplineSet
232 -9 m 1xf780
 200 -9 175 17 175 54 c 2
 175 419 l 1xfb80
 185 425 193 433 199 443 c 1
 197 448 l 1
 185 429 166 419 139 419 c 0
 84 419 45 461 45 512 c 256
 45 568 87 606 139 606 c 256
 190 606 232 567 232 512 c 2
 232 50 l 1
 494 161 l 2
 535 180 540 213 540 225 c 2
 540 541 l 2
 540 577 565 604 597 604 c 1
 597 225 l 2
 597 216 597 206 586 182 c 1
 630 173 665 135 665 87 c 0
 665 32 618 -9 568 -9 c 0
 516 -9 472 32 472 92 c 1
 232 -9 l 1xf780
139 561 m 256
 111 561 90 541 90 512 c 256
 90 483 112 464 139 464 c 256
 168 464 187 484 187 512 c 256xf780
 187 541 168 561 139 561 c 256
568 139 m 256
 540 139 517 118 517 87 c 256
 517 57 541 36 568 36 c 256
 598 36 620 60 620 87 c 256
 620 118 596 139 568 139 c 256
EndSplineSet
Validated: 1
EndChar

StartChar: uni0E1A
Encoding: 3610 3610 237
Width: 685
VWidth: 1507
Flags: W
HStem: -9 51<301.995 464.159> 419 45<98.3623 179.865> 561 45<97.8483 179.609>
VStem: 45 45<471.69 552.791> 175 57<113.732 439.791> 187 45<471.192 553.762> 538 57<114.801 571.564>
LayerCount: 2
Fore
SplineSet
139 561 m 256xf6
 111 561 90 541 90 512 c 256
 90 483 112 464 139 464 c 256
 168 464 187 484 187 512 c 256
 187 541 168 561 139 561 c 256xf6
384 -9 m 0
 269 -9 175 71 175 191 c 2
 175 419 l 1xfa
 185 425 193 433 199 443 c 1
 197 448 l 1
 185 429 166 419 139 419 c 0
 84 419 45 461 45 512 c 256
 45 568 87 606 139 606 c 256
 190 606 232 567 232 512 c 2xf6
 232 191 l 2xfa
 232 110 291 42 384 42 c 0
 480 42 538 118 538 191 c 2
 538 541 l 2
 538 577 563 604 595 604 c 1
 595 191 l 2
 595 72 504 -9 384 -9 c 0
EndSplineSet
Validated: 1
EndChar

StartChar: uni0E1B
Encoding: 3611 3611 238
Width: 700
VWidth: 1507
Flags: W
HStem: -9 51<304.134 477.723> 419 45<98.3623 179.865> 561 45<97.8483 179.609>
VStem: 45 45<471.69 552.791> 175 57<116.008 439.791> 187 45<471.192 553.762> 553 57<115.207 817.121>
LayerCount: 2
Fore
SplineSet
139 561 m 256xf6
 111 561 90 541 90 512 c 256
 90 483 112 464 139 464 c 256
 168 464 187 484 187 512 c 256
 187 541 168 561 139 561 c 256xf6
392 -9 m 0
 286 -9 175 65 175 191 c 2
 175 419 l 1xfa
 185 425 193 433 199 443 c 1
 197 448 l 1
 185 429 166 419 139 419 c 0
 84 419 45 461 45 512 c 256
 45 568 87 606 139 606 c 256
 190 606 232 567 232 512 c 2xf6
 232 191 l 2xfa
 232 108 293 42 392 42 c 256
 488 42 553 105 553 191 c 2
 553 787 l 2
 553 822 578 850 610 850 c 1
 610 191 l 2
 610 63 501 -9 392 -9 c 0
EndSplineSet
Validated: 1
EndChar

StartChar: uni0E1C
Encoding: 3612 3612 239
Width: 633
VWidth: 1507
Flags: W
HStem: -9 21G<132 159.458 473.61 501> 419 45<142.929 224.609> 561 45<143.295 224.609>
VStem: 90 58<106 439.791> 90 46<470.944 553.762> 232 45<471.893 553.93> 485 58<106 570.212>
LayerCount: 2
Fore
SplineSet
184 561 m 256xee
 155 561 136 541 136 512 c 256
 136 483 156 464 184 464 c 256
 213 464 232 484 232 512 c 256
 232 541 213 561 184 561 c 256xee
277 512 m 256
 277 458 235 419 184 419 c 0
 157 419 137 429 125 448 c 1
 124 443 l 1
 130 433 138 425 148 419 c 1
 148 106 l 1
 128 68 l 1
 130 63 l 1
 292 345 l 2
 296 355 305 359 317 359 c 0
 328 359 336 354 341 345 c 2
 503 63 l 1
 505 68 l 1
 485 106 l 1
 485 541 l 2
 485 577 511 604 543 604 c 1
 543 54 l 2
 543 17 517 -9 485 -9 c 1
 317 286 l 1
 148 -9 l 1xf6
 116 -9 90 17 90 54 c 2
 90 512 l 2
 90 567 133 606 184 606 c 256
 235 606 277 567 277 512 c 256
EndSplineSet
Validated: 1
EndChar

StartChar: uni0E1D
Encoding: 3613 3613 240
Width: 633
VWidth: 1507
Flags: W
HStem: -9 21G<132 159.458 473.61 501> 419 45<142.929 224.609> 561 45<143.295 224.609>
VStem: 90 58<106 439.791> 90 46<470.944 553.762> 232 45<471.893 553.93> 485 58<106 815.772>
LayerCount: 2
Fore
SplineSet
184 561 m 256xee
 155 561 136 541 136 512 c 256
 136 483 156 464 184 464 c 256
 213 464 232 484 232 512 c 256
 232 541 213 561 184 561 c 256xee
277 512 m 256
 277 458 235 419 184 419 c 0
 157 419 137 429 125 448 c 1
 124 443 l 1
 130 433 138 425 148 419 c 1
 148 106 l 1
 128 68 l 1
 130 63 l 1
 292 345 l 2
 296 355 305 359 317 359 c 0
 328 359 336 354 341 345 c 2
 503 63 l 1
 505 68 l 1
 485 106 l 1
 485 787 l 2
 485 822 511 850 543 850 c 1
 543 54 l 2
 543 17 517 -9 485 -9 c 1
 317 286 l 1
 148 -9 l 1xf6
 116 -9 90 17 90 54 c 2
 90 512 l 2
 90 567 133 606 184 606 c 256
 235 606 277 567 277 512 c 256
EndSplineSet
Validated: 1
EndChar

StartChar: uni0E1E
Encoding: 3614 3614 241
Width: 714
VWidth: 1507
Flags: W
HStem: -9 21G<216 239.439 559.517 583.5> 419 45<98.3623 179.865> 561 45<97.8483 179.609>
VStem: 45 45<471.69 552.791> 175 57<129.125 439.791> 187 45<471.192 553.762> 567 57<129.125 571.564>
LayerCount: 2
Fore
SplineSet
139 561 m 256xf6
 111 561 90 541 90 512 c 256
 90 483 112 464 139 464 c 256
 168 464 187 484 187 512 c 256
 187 541 168 561 139 561 c 256xf6
232 -9 m 1
 200 -9 175 17 175 54 c 2
 175 419 l 1xfa
 185 425 193 433 199 443 c 1
 197 448 l 1
 185 429 166 419 139 419 c 0
 84 419 45 461 45 512 c 256
 45 568 87 606 139 606 c 256
 190 606 232 567 232 512 c 2xf6
 232 151 l 1xfa
 216 101 l 1
 217 96 l 1
 372 517 l 2
 377 529 386 535 399 535 c 256
 412 535 422 529 427 517 c 2
 582 96 l 1
 583 101 l 1
 567 151 l 1
 567 541 l 2
 567 577 592 604 624 604 c 1
 624 54 l 2
 624 17 600 -9 567 -9 c 1
 399 440 l 1
 232 -9 l 1
EndSplineSet
Validated: 1
EndChar

StartChar: uni0E1F
Encoding: 3615 3615 242
Width: 714
VWidth: 1507
Flags: W
HStem: -9 21G<216 239.439 559.517 583.5> 419 45<98.3623 179.865> 561 45<97.8483 179.609>
VStem: 45 45<471.69 552.791> 175 57<129.125 439.791> 187 45<471.192 553.762> 567 57<129.125 817.121>
LayerCount: 2
Fore
SplineSet
139 561 m 256xf6
 111 561 90 541 90 512 c 256
 90 483 112 464 139 464 c 256
 168 464 187 484 187 512 c 256
 187 541 168 561 139 561 c 256xf6
232 -9 m 1
 200 -9 175 17 175 54 c 2
 175 419 l 1xfa
 185 425 193 433 199 443 c 1
 197 448 l 1
 185 429 166 419 139 419 c 0
 84 419 45 461 45 512 c 256
 45 568 87 606 139 606 c 256
 190 606 232 567 232 512 c 2xf6
 232 151 l 1xfa
 216 101 l 1
 217 96 l 1
 372 517 l 2
 377 529 386 535 399 535 c 256
 412 535 422 529 427 517 c 2
 582 96 l 1
 583 101 l 1
 567 151 l 1
 567 787 l 2
 567 822 592 850 624 850 c 1
 624 54 l 2
 624 17 600 -9 567 -9 c 1
 399 440 l 1
 232 -9 l 1
EndSplineSet
Validated: 1
EndChar

StartChar: uni0E20
Encoding: 3616 3616 243
Width: 657
VWidth: 1507
Flags: W
HStem: -9 45<98.3623 179.609> 133 45<97.8483 179.865> 555 51<234.614 420.202>
VStem: 45 45<43.6898 124.791> 87 58<385.459 473.333> 175 57<157.209 312.99> 187 45<44.5936 125.762> 509 58<23.8792 473.024>
LayerCount: 2
Fore
SplineSet
45 84 m 256xf3
 45 140 87 178 139 178 c 0
 166 178 185 168 197 149 c 1
 199 154 l 1
 193 164 185 172 175 178 c 1
 175 288 l 1
 172 291 168 295 164 300 c 0
 108 373 87 385 87 405 c 0
 87 526 209 606 327 606 c 0
 447 606 567 526 567 405 c 2
 567 54 l 2
 567 19 544 -9 509 -9 c 1
 509 405 l 2
 509 480 433 555 327 555 c 0
 238 555 148 495 145 413 c 1
 147 409 152 402 162 391 c 2
 225 315 l 2
 230 310 232 304 232 297 c 2xed
 232 84 l 2
 232 30 190 -9 139 -9 c 256
 84 -9 45 33 45 84 c 256xf3
139 133 m 256
 111 133 90 113 90 84 c 256
 90 55 112 36 139 36 c 256
 168 36 187 56 187 84 c 256xf3
 187 113 168 133 139 133 c 256
EndSplineSet
Validated: 1
EndChar

StartChar: uni0E21
Encoding: 3617 3617 244
Width: 679
VWidth: 1507
Flags: W
HStem: -9 45<99.2801 183.639> 139 45<99.8509 180.472> 419 45<104.638 184.98> 561 45<104.066 185.609>
VStem: 45 45<45.7795 128.651 477.523 548.344> 181 57<175 439.791> 193 45<46.2115 95.446 471.533 553.762> 532 57<48.8709 571.564>
LayerCount: 2
Fore
SplineSet
45 87 m 0xfb
 45 143 90 184 142 184 c 0
 156 184 169 181 181 175 c 1
 181 419 l 1xfd
 191 425 199 433 205 443 c 1
 203 448 l 1
 191 429 172 419 145 419 c 0
 91 419 51 461 51 512 c 256
 51 567 94 606 145 606 c 256
 196 606 238 567 238 512 c 2
 238 155 l 1
 532 48 l 1
 532 541 l 2
 532 577 557 604 589 604 c 1
 589 54 l 2
 589 17 565 -9 532 -9 c 1
 238 96 l 1
 238 87 l 2
 238 31 194 -9 142 -9 c 0
 87 -9 45 35 45 87 c 0xfb
96 512 m 0
 96 487 116 464 145 464 c 256
 175 464 193 488 193 512 c 0xfb
 193 541 174 561 145 561 c 256
 117 561 96 541 96 512 c 0
142 139 m 256
 114 139 90 118 90 87 c 256
 90 60 112 36 142 36 c 256
 172 36 193 60 193 87 c 256
 193 118 170 139 142 139 c 256
EndSplineSet
Validated: 1
EndChar

StartChar: uni0E22
Encoding: 3618 3618 245
Width: 616
VWidth: 1507
Flags: W
HStem: -9 51<199.537 387.654> 295 58<177.027 306.044> 421 43<144.517 225.638> 561 45<145.207 225.977>
VStem: 60 49<446.469 483.597> 62 57<112.649 245.015> 234 45<471.883 552.966> 469 57<112.517 571.564>
LayerCount: 2
Fore
SplineSet
62 182 m 0xf7
 62 262 112 308 170 333 c 1
 166 335 l 1
 155 332 144 327 134 321 c 1
 90 346 60 396 60 460 c 0
 60 532 120 606 185 606 c 0
 241 606 279 564 279 512 c 256
 279 461 240 421 185 421 c 0
 174 421 118 426 110 484 c 1
 109 479 l 1xfb
 109 467 112 456 119 446 c 1
 123 386 166 353 231 353 c 2
 279 353 l 2
 298 353 307 343 307 324 c 0
 307 309 296 295 279 295 c 0
 203 295 119 266 119 182 c 0
 119 98 198 42 294 42 c 256
 390 42 469 98 469 182 c 2
 469 541 l 2
 469 577 494 604 526 604 c 1
 526 182 l 2
 526 67 417 -9 294 -9 c 0
 155 -9 62 79 62 182 c 0xf7
185 561 m 256
 156 561 137 541 137 512 c 256
 137 483 157 464 185 464 c 256
 212 464 234 483 234 512 c 256
 234 541 213 561 185 561 c 256
EndSplineSet
Validated: 1
EndChar

StartChar: uni0E23
Encoding: 3619 3619 246
Width: 580
VWidth: 1507
Flags: W
HStem: -9 45<340.893 421.638> 133 45<340.391 422.424> 555 51<185.628 352.519>
VStem: 288 45<43.3913 125.93> 418 57<157.209 323> 430 45<43.8387 125.143>
LayerCount: 2
Fore
SplineSet
381 133 m 256xf4
 352 133 333 113 333 84 c 256
 333 55 353 36 381 36 c 256
 408 36 430 55 430 84 c 256
 430 113 409 133 381 133 c 256xf4
288 84 m 256
 288 139 330 178 381 178 c 0
 408 178 428 168 440 149 c 1
 442 154 l 1
 436 164 428 172 418 178 c 1
 418 323 l 1xf8
 83 405 l 2
 72 408 60 418 60 434 c 0
 60 486 125 606 271 606 c 0
 351 606 436 559 464 491 c 1
 466 496 l 1
 463 505 458 514 451 525 c 1
 490 597 l 1
 505 589 521 576 521 552 c 0
 521 543 519 535 514 526 c 2
 476 451 l 2
 470 439 462 432 453 432 c 0
 441 432 433 441 428 451 c 0
 405 509 344 555 271 555 c 0
 191 555 137 510 122 448 c 1
 430 374 l 2xf4
 453 368 475 346 475 312 c 2xf8
 475 84 l 2
 475 33 436 -9 381 -9 c 256
 327 -9 288 33 288 84 c 256
EndSplineSet
Validated: 1
EndChar

StartChar: uni0E24
Encoding: 3620 3620 247
Width: 630
VWidth: 1507
Flags: W
HStem: -9 45<170.893 251.609> 133 45<170.231 251.609> 555 51<208.043 393.202>
VStem: 60 58<369.547 474.106> 118 57<157.209 326.594> 118 45<43.8387 125.762> 259 45<43.8928 125.93> 482 58<-208.864 473.024>
LayerCount: 2
Fore
SplineSet
211 133 m 256xf3
 182 133 163 113 163 84 c 256xf3
 163 55 183 36 211 36 c 256
 240 36 259 56 259 84 c 256
 259 113 240 133 211 133 c 256xf3
482 405 m 2
 482 480 406 555 300 555 c 0
 211 555 121 495 118 413 c 1
 124 403 136 370 172 312 c 1
 174 306 175 301 175 298 c 2xf3
 175 178 l 1xf3
 165 172 157 164 151 154 c 1
 152 149 l 1
 164 168 184 178 211 178 c 0
 262 178 304 139 304 84 c 256
 304 30 262 -9 211 -9 c 256
 157 -9 118 33 118 84 c 2
 118 291 l 1
 114 295 60 388 60 405 c 0
 60 528 184 606 300 606 c 0
 420 606 540 526 540 405 c 2
 540 -179 l 2
 540 -216 514 -243 482 -243 c 1
 482 405 l 2
EndSplineSet
Validated: 1
EndChar

StartChar: uni0E25
Encoding: 3621 3621 248
Width: 627
VWidth: 1507
Flags: W
HStem: -9 45<140.806 221.609> 133 45<140.231 221.609> 338 51<214.19 389.88> 555 51<207.316 388.59>
VStem: 60 56<403.627 472.112> 87 58<157.209 267.784> 87 46<43.8387 125.762> 229 45<43.8928 125.93> 479 58<24.3478 258.446 292.607 469.85>
LayerCount: 2
Fore
SplineSet
298 389 m 0xf580
 391 389 466 343 502 285 c 1
 503 289 l 1
 496 300 488 311 479 320 c 1
 479 405 l 2
 479 477 406 555 298 555 c 256
 187 555 116 474 116 405 c 2
 116 391 l 2
 116 388 117 383 118 377 c 1
 87 377 60 398 60 427 c 0xf980
 60 504 160 606 298 606 c 0
 426 606 537 517 537 405 c 2
 537 54 l 2
 537 17 511 -9 479 -9 c 1
 479 190 l 2
 479 267 401 338 298 338 c 0
 209 338 149 281 145 190 c 2
 145 178 l 1xf580
 135 172 127 164 121 154 c 1
 122 149 l 1
 134 168 154 178 181 178 c 0
 232 178 274 139 274 84 c 256
 274 30 232 -9 181 -9 c 256
 127 -9 87 33 87 84 c 2xf380
 87 190 l 2
 87 292 165 389 298 389 c 0xf580
181 133 m 256
 152 133 133 113 133 84 c 256xf380
 133 55 153 36 181 36 c 256
 210 36 229 56 229 84 c 256
 229 113 210 133 181 133 c 256
EndSplineSet
Validated: 1
EndChar

StartChar: uni0E26
Encoding: 3622 3622 249
Width: 657
VWidth: 1507
Flags: W
HStem: -9 45<98.3623 179.609> 133 45<97.8483 179.865> 555 51<234.614 420.202>
VStem: 45 45<43.6898 124.791> 87 58<385.459 473.333> 175 57<157.209 312.99> 187 45<44.5936 125.762> 509 58<-209.353 473.024>
LayerCount: 2
Fore
SplineSet
45 84 m 256xf3
 45 140 87 178 139 178 c 0
 166 178 185 168 197 149 c 1
 199 154 l 1
 193 164 185 172 175 178 c 1
 175 288 l 1
 172 291 168 295 164 300 c 0
 108 373 87 385 87 405 c 0
 87 526 209 606 327 606 c 0
 447 606 567 526 567 405 c 2
 567 -179 l 2
 567 -214 544 -243 509 -243 c 1
 509 405 l 2
 509 480 433 555 327 555 c 0
 238 555 148 495 145 413 c 1
 147 409 152 402 162 391 c 2
 225 315 l 2
 230 310 232 304 232 297 c 2xed
 232 84 l 2
 232 30 190 -9 139 -9 c 256
 84 -9 45 33 45 84 c 256xf3
139 133 m 256
 111 133 90 113 90 84 c 256
 90 55 112 36 139 36 c 256
 168 36 187 56 187 84 c 256xf3
 187 113 168 133 139 133 c 256
EndSplineSet
Validated: 1
EndChar

StartChar: uni0E27
Encoding: 3623 3623 250
Width: 545
VWidth: 1507
Flags: W
HStem: -9 45<321.806 402.609> 133 45<321.295 402.978> 555 51<164.517 323.992>
VStem: 36 54<388.293 481.511> 268 46<43.3913 125.93> 398 57<157.209 480.63> 410 45<44.5936 125.762>
LayerCount: 2
Fore
SplineSet
362 133 m 256xfa
 333 133 314 113 314 84 c 256
 314 55 334 36 362 36 c 256
 391 36 410 56 410 84 c 256
 410 113 391 133 362 133 c 256xfa
268 84 m 256
 268 139 311 178 362 178 c 0
 389 178 408 168 421 149 c 1
 422 154 l 1
 416 164 408 172 398 178 c 1
 398 405 l 2
 398 483 337 555 244 555 c 0
 160 555 90 492 90 405 c 2
 90 391 l 2
 90 386 91 382 93 377 c 1
 63 377 36 399 36 427 c 0
 36 494 109 606 244 606 c 0
 355 606 455 533 455 405 c 2xfc
 455 84 l 2
 455 30 413 -9 362 -9 c 256
 308 -9 268 33 268 84 c 256
EndSplineSet
Validated: 1
EndChar

StartChar: uni0E28
Encoding: 3624 3624 251
Width: 660
VWidth: 1507
Flags: W
HStem: -9 21G<132 155.584 512 529.5> 262 45<289.537 370.189> 404 45<289.231 370.817> 555 51<238.05 420.034>
VStem: 90 58<151 471.694> 378 46<314.537 393.247> 512 58<23.8792 438.432> 543 52<530.65 598.329>
LayerCount: 2
Fore
SplineSet
90 405 m 2xfe
 90 524 211 606 330 606 c 0
 392 606 467 582 520 528 c 1
 535 551 543 573 543 595 c 2
 543 610 l 2
 543 613 542 618 540 624 c 1
 570 624 595 602 595 575 c 0xfd
 595 536 562 491 552 479 c 1
 561 458 570 435 570 405 c 2
 570 54 l 2
 570 19 547 -9 512 -9 c 1
 512 405 l 2
 512 417 510 430 506 439 c 1
 498 433 473 411 416 390 c 1
 421 378 424 367 424 356 c 0
 424 302 380 262 330 262 c 0
 290 262 264 281 252 320 c 1
 250 315 l 1
 252 305 256 296 261 289 c 1
 148 -9 l 1
 116 -9 90 17 90 54 c 2
 90 405 l 2xfe
330 555 m 0
 220 555 148 477 148 405 c 2
 148 151 l 1
 134 110 l 1
 136 106 l 1
 244 392 l 2
 255 424 286 449 330 449 c 256
 350 449 368 443 384 430 c 1
 421 441 453 459 482 485 c 1
 472 497 421 555 330 555 c 0
330 404 m 256
 301 404 282 384 282 356 c 256
 282 329 301 307 330 307 c 256
 359 307 378 329 378 356 c 256
 378 385 358 404 330 404 c 256
EndSplineSet
Validated: 1
EndChar

StartChar: uni0E29
Encoding: 3625 3625 252
Width: 700
VWidth: 1507
Flags: W
HStem: -9 51<309.061 473.329> 187 51<348.734 474.355> 246 36<353 387.319> 369 42<316.145 389.451> 419 45<98.3623 179.865> 561 45<97.8483 179.609>
VStem: 45 45<471.69 552.791> 175 57<118.411 439.791> 187 45<471.192 553.762> 267 42<289.685 362.302> 396 43<287.897 363.305> 520 90<308.454 374.656> 553 57<115.207 302.251 380.649 576.172>
LayerCount: 2
Fore
SplineSet
139 561 m 256xfee0
 111 561 90 541 90 512 c 256
 90 483 112 464 139 464 c 256
 168 464 187 484 187 512 c 256
 187 541 168 561 139 561 c 256xfee0
353 369 m 256
 328 369 309 349 309 326 c 256
 309 299 329 282 353 282 c 256
 379 282 396 302 396 326 c 256
 396 352 376 369 353 369 c 256
392 42 m 256
 478 42 553 105 553 191 c 2
 553 261 l 1xff68
 560 273 566 287 570 303 c 1
 568 307 l 1
 555 257 508 187 418 187 c 0
 349 187 267 238 267 326 c 0
 267 371 303 411 353 411 c 0
 397 411 439 374 439 326 c 256
 439 278 398 246 353 246 c 1
 348 244 l 1
 353 243 357 243 361 243 c 0
 369 243 377 244 383 246 c 1
 395 241 407 238 418 238 c 0
 487 238 520 312 520 371 c 0xfe70
 520 384 519 397 515 410 c 1
 544 410 563 398 571 375 c 1
 573 380 l 1
 566 394 563 398 553 405 c 1
 553 547 l 2
 553 583 579 604 610 604 c 1
 610 191 l 2
 610 63 502 -9 392 -9 c 0
 276 -9 175 71 175 191 c 2
 175 419 l 1xff68
 185 425 193 433 199 443 c 1
 197 448 l 1
 185 429 166 419 139 419 c 0
 84 419 45 461 45 512 c 256
 45 568 87 606 139 606 c 256
 190 606 232 567 232 512 c 2xfee0
 232 191 l 2xff60
 232 116 296 42 392 42 c 256
EndSplineSet
Validated: 1
EndChar

StartChar: uni0E2A
Encoding: 3626 3626 253
Width: 627
VWidth: 1507
Flags: W
HStem: -9 45<140.806 221.609> 133 45<140.231 221.609> 338 51<217.359 339.707> 555 51<207.316 387.51>
VStem: 60 56<403.627 472.112> 87 58<157.209 267.784> 87 46<43.8387 125.762> 229 45<43.8928 125.93> 479 58<24.3478 258.446 292.607 438.488> 509 53<531.678 598.772>
LayerCount: 2
Fore
SplineSet
181 -9 m 256xf580
 127 -9 87 33 87 84 c 2xf3
 87 190 l 2xf5
 87 317 189 384 294 389 c 1
 352 413 409 449 449 485 c 1
 439 497 389 555 298 555 c 0
 187 555 116 474 116 405 c 2
 116 391 l 2
 116 388 117 383 118 377 c 1
 87 377 60 398 60 427 c 0
 60 504 160 606 298 606 c 0
 359 606 435 582 485 528 c 1
 501 552 509 574 509 595 c 2
 509 610 l 2
 509 613 508 618 506 624 c 1
 537 624 562 603 562 575 c 0xf940
 562 556 555 522 519 481 c 1
 531 458 537 432 537 405 c 2
 537 54 l 2
 537 17 511 -9 479 -9 c 1
 479 190 l 2
 479 267 401 338 298 338 c 0
 209 338 149 281 145 190 c 2
 145 178 l 1
 135 172 127 164 121 154 c 1
 122 149 l 1
 134 168 154 178 181 178 c 0
 232 178 274 139 274 84 c 256
 274 30 232 -9 181 -9 c 256xf580
181 133 m 256
 152 133 133 113 133 84 c 256
 133 55 153 36 181 36 c 256
 210 36 229 56 229 84 c 256
 229 113 210 133 181 133 c 256
374 377 m 1
 417 364 471 334 502 285 c 1
 503 289 l 1
 496 300 488 311 479 320 c 1
 479 405 l 2xf180
 479 417 477 430 473 439 c 1
 444 416 408 395 374 377 c 1
EndSplineSet
Validated: 1
EndChar

StartChar: uni0E2B
Encoding: 3627 3627 254
Width: 702
VWidth: 1507
Flags: W
HStem: -9 21G<216 243.302 555 571.5> 419 45<98.3623 179.865 492.565 549.198> 561 45<97.8483 179.609 492.724 574.609>
VStem: 45 45<471.69 552.791> 175 57<107 439.791> 187 45<471.192 553.762> 440 45<471.186 553.225> 555 57<22.9929 414.871> 582 45<471.113 553.93>
LayerCount: 2
Fore
SplineSet
232 -9 m 1xf7
 200 -9 175 17 175 54 c 2
 175 419 l 1xfa
 185 425 193 433 199 443 c 1
 197 448 l 1
 185 429 166 419 139 419 c 0
 84 419 45 461 45 512 c 256
 45 568 87 606 139 606 c 256
 190 606 232 567 232 512 c 2xf6
 232 107 l 1
 213 69 l 1
 214 65 l 1
 407 405 l 2
 421 427 433 448 457 460 c 1
 446 476 440 493 440 512 c 0
 440 568 482 606 534 606 c 256
 585 606 627 567 627 512 c 0xfa80
 627 480 607 450 586 436 c 1
 603 419 612 397 612 372 c 2
 612 54 l 2
 612 17 588 -9 555 -9 c 1
 555 372 l 2
 555 387 547 421 511 421 c 0
 486 421 469 412 449 375 c 2
 232 -9 l 1xf7
139 561 m 256
 111 561 90 541 90 512 c 256
 90 483 112 464 139 464 c 256
 168 464 187 484 187 512 c 256xf6
 187 541 168 561 139 561 c 256
534 561 m 256
 505 561 485 542 485 512 c 256
 485 483 505 464 534 464 c 256
 563 464 582 484 582 512 c 256xf280
 582 541 563 561 534 561 c 256
EndSplineSet
Validated: 1
EndChar

StartChar: uni0E2C
Encoding: 3628 3628 255
AltUni2: 00f71d.ffffffff.0
Width: 717
VWidth: 1507
Flags: W
HStem: -9 21G<216 241.516 560.256 586.5> 419 45<98.3623 179.865 492.238 569.626> 561 45<97.8483 179.609 492.724 574.609>
VStem: 45 45<471.69 552.791> 175 57<122 439.791> 187 45<471.192 553.762> 440 45<471.391 553.225> 570 57<122 421> 582 45<479.134 553.762> 655 53<511.081 580.007>
LayerCount: 2
Fore
SplineSet
708 556 m 0xf2c0
 708 542 695 473 627 437 c 1
 627 54 l 2xf2c0
 627 17 603 -9 570 -9 c 1
 399 342 l 1
 232 -9 l 1xf740
 200 -9 175 17 175 54 c 2
 175 419 l 1xfa40
 185 425 193 433 199 443 c 1
 197 448 l 1
 185 429 166 419 139 419 c 0
 84 419 45 461 45 512 c 256
 45 568 87 606 139 606 c 256
 190 606 232 567 232 512 c 2xf640
 232 122 l 1
 216 84 l 1
 217 80 l 1
 374 407 l 2
 379 418 387 424 399 424 c 256
 412 424 420 418 425 407 c 2
 585 80 l 1
 586 84 l 1
 570 122 l 1
 570 421 l 1xfb40
 562 420 556 419 552 419 c 2
 534 419 l 2
 479 419 440 461 440 512 c 256
 440 568 482 606 534 606 c 256
 585 606 627 567 627 512 c 2
 627 479 l 1
 632 481 l 1
 632 509 l 1
 647 529 655 552 655 580 c 0
 655 588 654 596 653 604 c 1
 675 604 708 589 708 556 c 0xf2c0
139 561 m 256
 111 561 90 541 90 512 c 256
 90 483 112 464 139 464 c 256
 168 464 187 484 187 512 c 256xf640
 187 541 168 561 139 561 c 256
534 561 m 256
 505 561 485 542 485 512 c 256
 485 483 505 464 534 464 c 256
 563 464 582 484 582 512 c 256xf2c0
 582 541 563 561 534 561 c 256
EndSplineSet
Validated: 513
Substitution2: "Single Substitution lookup 22 subtable" uni0E2C.alt1
Substitution2: "Single Substitution lookup 22 subtable" uni0E2C.alt1
EndChar

StartChar: uni0E2D
Encoding: 3629 3629 256
Width: 631
VWidth: 1507
Flags: W
HStem: -9 51<231.961 400.815> 213 42<196.81 277.31> 351 45<196.862 277.107> 555 51<211.416 391.784>
VStem: 63 56<403.627 471.78> 90 58<117.571 263.389 264.282 285> 285 45<262.151 343.609> 484 57<119.333 470.365>
LayerCount: 2
Fore
SplineSet
237 213 m 0xf7
 190 213 156 245 151 289 c 1
 149 285 l 1
 149 277 151 270 154 264 c 1
 150 251 148 236 148 220 c 2
 148 191 l 2xf7
 148 96 238 42 315 42 c 0
 399 42 484 100 484 191 c 2
 484 405 l 2
 484 474 412 555 301 555 c 256
 190 555 119 474 119 405 c 2
 119 391 l 2
 119 388 120 383 121 377 c 1
 90 377 63 398 63 427 c 0xfb
 63 484 140 606 301 606 c 0
 413 606 541 534 541 405 c 2
 541 191 l 2
 541 72 432 -9 315 -9 c 0
 190 -9 90 80 90 191 c 2
 90 220 l 2
 90 275 149 396 237 396 c 0
 291 396 330 354 330 303 c 256
 330 249 288 213 237 213 c 0xf7
237 351 m 256
 210 351 188 332 188 303 c 256
 188 274 210 255 237 255 c 256
 266 255 285 275 285 303 c 256
 285 332 265 351 237 351 c 256
EndSplineSet
Validated: 1
EndChar

StartChar: uni0E2E
Encoding: 3630 3630 257
Width: 645
VWidth: 1507
Flags: W
HStem: -9 50<233.265 411.805> 167 43<195.617 277.391> 306 45<196.279 277.107> 386 48<140.263 356.143> 556 51<196.052 399.336>
VStem: 74 58<445.317 510.661> 90 58<118.892 240> 285 45<217.852 298.609> 497 58<122.416 452.81> 526 55<546.526 603.116>
LayerCount: 2
Back
SplineSet
523 586 m 0
 526.333 597.333 527 610 525 624 c 1
 541.667 625.333 555.833 619.167 567.5 605.5 c 128
 579.167 591.833 583 577 579 561 c 0
 573 537.667 561.167 517.167 543.5 499.5 c 128
 525.833 481.833 505.5 466.5 482.5 453.5 c 128
 459.5 440.5 435.167 430 409.5 422 c 128
 383.833 414 360.333 407.333 339 402 c 0
 321 398 298.667 394 272 390 c 128
 245.333 386 219 384.833 193 386.5 c 128
 167 388.167 143.167 393.833 121.5 403.5 c 128
 99.8333 413.167 85.3333 429 78 451 c 0
 71.3333 471.667 73.5 491.333 84.5 510 c 128
 95.5 528.667 112 545.333 134 560 c 128
 156 574.667 182.167 586.167 212.5 594.5 c 128
 242.833 602.833 274 607 306 607 c 0
 336 607 366.167 601.833 396.5 591.5 c 128
 426.833 581.167 453.5 567 476.5 549 c 128
 499.5 531 518.333 509.667 533 485 c 128
 547.667 460.333 555 433.667 555 405 c 2
 555 191 l 2
 555 163 549 136.667 537 112 c 128
 525 87.3333 508.333 66 487 48 c 128
 465.667 30 441 16 413 6 c 128
 385 -4 355 -9 323 -9 c 0
 289.667 -9 258.833 -4 230.5 6 c 128
 202.167 16 177.833 30 157.5 48 c 128
 137.167 66 120.833 87.1667 108.5 111.5 c 128
 96.1667 135.833 90 162 90 190 c 0
 90 209.333 93.8333 228.667 101.5 248 c 128
 109.167 267.333 119.833 284.667 133.5 300 c 128
 147.167 315.333 162.667 327.667 180 337 c 128
 197.333 346.333 216.333 351 237 351 c 0
 263 351 285 342 303 324 c 128
 321 306 330 284 330 258 c 256
 330 232 321 210.333 303 193 c 128
 285 175.667 263 167 237 167 c 0
 213.667 167 194.167 174.333 178.5 189 c 128
 162.833 203.667 153.667 222 151 244 c 1
 149 240 l 1
 149 232 150.667 225 154 219 c 1
 150 207.667 148 198.333 148 191 c 0
 148 171 152.5 151.833 161.5 133.5 c 128
 170.5 115.167 182.833 99.1667 198.5 85.5 c 128
 214.167 71.8333 232.667 61 254 53 c 128
 275.333 45 298.333 41 323 41 c 256
 347 41 369.833 45 391.5 53 c 128
 413.167 61 431.667 71.8333 447 85.5 c 128
 462.333 99.1667 474.5 115.167 483.5 133.5 c 128
 492.5 151.833 497 171 497 191 c 2
 497 405 l 2
 497 425.667 491.5 445.167 480.5 463.5 c 128
 469.5 481.833 455 497.833 437 511.5 c 128
 419 525.167 398.667 536 376 544 c 128
 353.333 552 330 556 306 556 c 0
 284 556 261.833 553.5 239.5 548.5 c 128
 217.167 543.5 197.833 537 181.5 529 c 128
 165.167 521 152.167 511.667 142.5 501 c 128
 132.833 490.333 129.667 479.667 133 469 c 0
 135.667 455 145.333 445.667 162 441 c 128
 178.667 436.333 197.333 434 218 434 c 128
 238.667 434 259 435.5 279 438.5 c 128
 299 441.5 315 444.667 327 448 c 0
 346.333 452 366.5 458 387.5 466 c 128
 408.5 474 428.333 483.667 447 495 c 128
 465.667 506.333 481.667 519.667 495 535 c 128
 508.333 550.333 517.667 567.333 523 586 c 0
188 258 m 256
 188 244 192.667 232.5 202 223.5 c 128
 211.333 214.5 223 210 237 210 c 256
 251 210 262.5 214.5 271.5 223.5 c 128
 280.5 232.5 285 244 285 258 c 256
 285 272 280.5 283.5 271.5 292.5 c 128
 262.5 301.5 251 306 237 306 c 256
 223 306 211.333 301.5 202 292.5 c 128
 192.667 283.5 188 272 188 258 c 256
EndSplineSet
Fore
SplineSet
237 306 m 0xf9
 210 306 188 287 188 258 c 0
 188 229 210 210 237 210 c 0
 266 210 285 230 285 258 c 0
 285 287 265 306 237 306 c 0xf9
485 454 m 1
 411 411 279 386 216 386 c 0
 99 386 74 439 74 474 c 0
 74 540 179 607 306 607 c 0
 376 607 446 579 494 534 c 1
 514 556 526 581 526 609 c 0
 526 614 526 619 525 624 c 1
 571 624 581 586 581 573 c 0xfd40
 581 552 566 519 531 488 c 1
 546 462 555 434 555 405 c 2
 555 191 l 2
 555 81 457 -9 323 -9 c 0
 173 -9 90 94 90 190 c 0
 90 268 156 351 237 351 c 0
 291 351 330 309 330 258 c 0
 330 203 287 167 237 167 c 0
 190 167 156 200 151 244 c 1
 149 240 l 1
 149 232 151 225 154 219 c 1
 150 208 148 198 148 191 c 0
 148 115 218 41 323 41 c 0
 427 41 497 115 497 191 c 2
 497 405 l 2xfb80
 497 422 493 439 485 454 c 1
452 499 m 1
 415 533 361 556 306 556 c 0
 228 556 132 519 132 477 c 0
 132 439 183 434 218 434 c 0
 298 434 389 458 452 499 c 1
EndSplineSet
Validated: 1
EndChar

StartChar: uni0E2F
Encoding: 3631 3631 258
Width: 574
VWidth: 1507
Flags: W
HStem: -9 21G<427 443.5> 363 52<169.194 340.17> 430 34<152 176.783> 561 45<97.4882 179.973>
VStem: 45 45<472.81 552.791> 187 42<471.556 552.966> 427 57<22.9929 452.546 505.171 573.121>
LayerCount: 2
Fore
SplineSet
139 561 m 256
 111 561 90 541 90 512 c 256
 90 483 112 464 139 464 c 256
 168 464 187 484 187 512 c 256
 187 541 168 561 139 561 c 256
427 424 m 1
 436 433 442 443 452 457 c 1
 451 461 l 1
 414 408 339 363 258 363 c 0
 170 363 45 416 45 512 c 0
 45 568 90 606 139 606 c 0
 193 606 229 564 229 512 c 0
 229 481 205 432 152 430 c 1
 157 427 l 1
 167 427 172 428 181 430 c 1
 204 420 230 415 258 415 c 0
 336 415 427 469 427 606 c 1
 459 606 484 578 484 543 c 2
 484 54 l 2
 484 17 460 -9 427 -9 c 1
 427 424 l 1
EndSplineSet
Validated: 1
EndChar

StartChar: uni0E30
Encoding: 3632 3632 259
Width: 506
VWidth: 1507
Flags: W
HStem: 24 52<161.157 327.516> 80 35<140 191.782> 211 45<113.682 194.735> 341 51<161.379 323.841> 396 35<134.889 191.638> 528 45<113.593 194.56>
VStem: 60 46<122.394 203.485 438.594 519.638> 202 42<123.129 202.933 439.425 519.098> 390 56<141.629 231.12 458.629 547.898>
LayerCount: 2
Fore
SplineSet
154 528 m 256
 125 528 106 506 106 479 c 256
 106 450 126 431 154 431 c 256
 183 431 202 451 202 479 c 256
 202 506 183 528 154 528 c 256
160 398 m 1
 161 394 159 392 171 392 c 0
 181 392 192 394 202 398 c 1
 216 394 232 392 249 392 c 0
 313 392 390 432 390 550 c 0
 390 557 390 565 389 573 c 1
 420 573 446 549 446 521 c 0
 446 451 386 341 249 341 c 0
 171 341 60 387 60 479 c 0
 60 534 103 573 154 573 c 0
 203 573 244 533 244 479 c 0
 244 422 201 396 173 396 c 0
 167 396 163 397 160 398 c 1
154 211 m 256
 125 211 106 191 106 163 c 256
 106 134 126 115 154 115 c 256
 183 115 202 135 202 163 c 256
 202 192 182 211 154 211 c 256
160 81 m 1
 161 76 159 76 174 76 c 0
 183 76 192 78 202 81 c 1
 216 77 232 75 249 75 c 0
 313 75 390 115 390 233 c 0
 390 240 390 248 389 256 c 1
 420 256 446 233 446 204 c 0
 446 134 385 24 249 24 c 0
 170 24 60 70 60 163 c 0
 60 214 100 256 154 256 c 0
 203 256 244 217 244 163 c 0
 244 100 198 80 173 80 c 0
 167 80 163 80 160 81 c 1
EndSplineSet
Validated: 1
EndChar

StartChar: uni0E31
Encoding: 3633 3633 260
Width: 0
VWidth: 1507
Flags: W
HStem: 692 51<-255.736 -80.7801> 889 46<-325.391 -244.708>
VStem: -378 45<801.044 881.194> -237 43<800.17 881.318> 3 57<831.389 906.818>
LayerCount: 2
Fore
SplineSet
-285 889 m 256
 -314 889 -333 869 -333 841 c 256
 -333 812 -313 793 -285 793 c 256
 -256 793 -237 813 -237 841 c 256
 -237 870 -257 889 -285 889 c 256
60 881 m 0
 60 815 -9 692 -166 692 c 0
 -249 692 -378 742 -378 841 c 0
 -378 895 -335 935 -285 935 c 0
 -234 935 -194 895 -194 841 c 0
 -194 806 -222 761 -271 758 c 1
 -267 755 l 1
 -257 755 -260 756 -243 758 c 1
 -220 748 -194 743 -166 743 c 0
 -101 743 3 778 3 935 c 1
 35 935 60 911 60 881 c 0
EndSplineSet
Validated: 1
Substitution2: "Single Substitution lookup 22 subtable" uni0E31.alt1
Substitution2: "Single Substitution lookup 22 subtable" uni0E31.alt1
EndChar

StartChar: uni0E32
Encoding: 3634 3634 261
Width: 545
VWidth: 1507
Flags: W
HStem: -9 21G<398 414.5> 555 51<164.517 323.992>
VStem: 36 54<388.293 481.511> 398 57<22.9929 480.63>
LayerCount: 2
Fore
SplineSet
244 606 m 0
 355 606 455 533 455 405 c 2
 455 54 l 2
 455 17 431 -9 398 -9 c 1
 398 405 l 2
 398 483 337 555 244 555 c 0
 160 555 90 492 90 405 c 2
 90 391 l 2
 90 386 91 382 93 377 c 1
 63 377 36 399 36 427 c 0
 36 494 109 606 244 606 c 0
EndSplineSet
Validated: 1
EndChar

StartChar: uni0E34
Encoding: 3636 3636 263
Width: 0
VWidth: 1507
Flags: W
HStem: 707 43<-507.795 -199.772> 837 40<-406.666 -238.356>
LayerCount: 2
Fore
SplineSet
-407 707 m 0
 -477 707 -514 701 -524 701 c 0
 -538 701 -547 711 -547 724 c 0
 -547 792 -446 877 -315 877 c 256
 -184 877 -86 780 -86 695 c 0
 -86 683 -98 670 -113 670 c 0
 -126 670 -226 707 -407 707 c 0
-494 739 m 1
 -453 747 -412 750 -371 750 c 0
 -287 750 -206 735 -137 711 c 1
 -150 768 -234 837 -315 837 c 0
 -381 837 -468 802 -494 739 c 1
EndSplineSet
Validated: 1
Substitution2: "Single Substitution lookup 22 subtable" uni0E34.alt1
Substitution2: "Single Substitution lookup 22 subtable" uni0E34.alt1
EndChar

StartChar: uni0E35
Encoding: 3637 3637 264
Width: 0
VWidth: 1507
Flags: W
HStem: 707 43<-507.795 -199.772> 837 40<-406.666 -236.994>
VStem: -145 55<811 909.783>
LayerCount: 2
Fore
SplineSet
-407 707 m 0
 -477 707 -514 701 -524 701 c 0
 -538 701 -547 711 -547 724 c 0
 -547 792 -446 877 -315 877 c 0
 -230 877 -172 837 -145 811 c 1
 -145 880 l 2
 -145 924 -115 935 -90 935 c 1
 -90 728 l 1
 -87 716 -86 705 -86 695 c 0
 -86 683 -98 670 -113 670 c 0
 -126 670 -226 707 -407 707 c 0
-494 739 m 1
 -453 747 -412 750 -371 750 c 0
 -287 750 -206 735 -137 711 c 1
 -150 768 -234 837 -315 837 c 0
 -381 837 -468 802 -494 739 c 1
EndSplineSet
Validated: 1
Substitution2: "Single Substitution lookup 22 subtable" uni0E35.alt1
Substitution2: "Single Substitution lookup 22 subtable" uni0E35.alt1
EndChar

StartChar: uni0E36
Encoding: 3638 3638 265
Width: 0
VWidth: 1507
Flags: W
HStem: 707 43<-507.795 -199.772> 837 40<-406.666 -236.441> 894 41<-170.634 -103.644>
VStem: -217 41<858 888.603> -99 42<820.932 889.354>
LayerCount: 2
Fore
SplineSet
-407 707 m 0
 -477 707 -514 701 -524 701 c 0
 -538 701 -547 711 -547 724 c 0
 -547 792 -446 877 -315 877 c 0
 -277 877 -245 869 -217 858 c 1
 -216 898 -182 935 -137 935 c 256
 -96 935 -57 901 -57 855 c 0
 -57 818 -83 787 -115 778 c 1
 -96 749 -86 721 -86 695 c 0
 -86 683 -98 670 -113 670 c 0
 -126 670 -226 707 -407 707 c 0
-494 739 m 1
 -453 747 -412 750 -371 750 c 0
 -287 750 -206 735 -137 711 c 1
 -150 768 -234 837 -315 837 c 0
 -381 837 -468 802 -494 739 c 1
-137 894 m 256
 -160 894 -176 876 -176 855 c 0
 -176 836 -165 817 -137 817 c 0
 -116 817 -99 832 -99 855 c 256
 -99 878 -116 894 -137 894 c 256
EndSplineSet
Validated: 1
Substitution2: "Single Substitution lookup 22 subtable" uni0E36.alt1
Substitution2: "Single Substitution lookup 22 subtable" uni0E36.alt1
EndChar

StartChar: uni0E37
Encoding: 3639 3639 266
Width: 0
VWidth: 1507
Flags: W
HStem: 707 43<-507.795 -199.772> 837 40<-406.666 -237.565>
VStem: -237 55<865 909.783> -145 55<811 909.783>
LayerCount: 2
Fore
SplineSet
-407 707 m 0
 -477 707 -514 701 -524 701 c 0
 -538 701 -547 711 -547 724 c 0
 -547 792 -446 877 -315 877 c 0
 -289 877 -263 873 -237 865 c 1
 -237 880 l 2
 -237 924 -207 935 -182 935 c 1
 -182 840 l 1
 -166 827 -155 821 -145 811 c 1
 -145 880 l 2
 -145 924 -115 935 -90 935 c 1
 -90 728 l 1
 -87 716 -86 705 -86 695 c 0
 -86 683 -98 670 -113 670 c 0
 -126 670 -226 707 -407 707 c 0
-494 739 m 1
 -453 747 -412 750 -371 750 c 0
 -287 750 -206 735 -137 711 c 1
 -150 768 -234 837 -315 837 c 0
 -381 837 -468 802 -494 739 c 1
EndSplineSet
Validated: 1
Substitution2: "Single Substitution lookup 22 subtable" uni0E37.alt1
Substitution2: "Single Substitution lookup 22 subtable" uni0E37.alt1
EndChar

StartChar: uni0E38
Encoding: 3640 3640 267
Width: 0
VWidth: 1507
Flags: W
HStem: -232 42<-212.898 -139.529> -102 42<-212.64 -139.384>
VStem: -262 42<-182.719 -109.456> -145 55<-298.982 -214.208> -133 43<-183.793 -108.207>
LayerCount: 2
Fore
SplineSet
-176 -60 m 256xf0
 -130 -60 -90 -101 -90 -146 c 2xe8
 -90 -270 l 2
 -90 -304 -114 -330 -145 -330 c 1
 -145 -234 l 1
 -135 -229 -127 -221 -121 -211 c 1
 -122 -206 l 1
 -133 -223 -151 -232 -176 -232 c 0
 -226 -232 -262 -191 -262 -146 c 256
 -262 -102 -225 -60 -176 -60 c 256xf0
-176 -102 m 256
 -201 -102 -220 -123 -220 -146 c 256
 -220 -171 -199 -190 -176 -190 c 256
 -153 -190 -133 -171 -133 -146 c 256
 -133 -121 -153 -102 -176 -102 c 256
EndSplineSet
Validated: 1
Substitution2: "Single Substitution lookup 21 subtable" a
Substitution2: "Single Substitution lookup 22 subtable" uni0E38.alt1
Substitution2: "Single Substitution lookup 21 subtable" a
Substitution2: "Single Substitution lookup 22 subtable" uni0E38.alt1
EndChar

StartChar: uni0E39
Encoding: 3641 3641 268
Width: 0
VWidth: 1507
Flags: W
HStem: -330 48<-215.681 -148.821> -232 42<-342.898 -268.815> -102 42<-342.64 -269.317>
VStem: -392 42<-182.719 -109.456> -274 54<-277.494 -214.208> -262 42<-183.327 -110.24> -145 55<-278.782 -92.575>
LayerCount: 2
Fore
SplineSet
-306 -60 m 256xfa
 -257 -60 -220 -102 -220 -146 c 2xf6
 -220 -243 l 2
 -220 -257 -212 -282 -182 -282 c 0
 -161 -282 -145 -266 -145 -243 c 2
 -145 -122 l 2
 -145 -87 -121 -62 -90 -62 c 1
 -90 -243 l 2
 -90 -291 -128 -330 -182 -330 c 0
 -215 -330 -269 -310 -274 -250 c 2
 -274 -234 l 1
 -264 -229 -256 -221 -250 -211 c 1
 -252 -206 l 1
 -263 -223 -281 -232 -306 -232 c 0
 -356 -232 -392 -191 -392 -146 c 256
 -392 -102 -355 -60 -306 -60 c 256xfa
-306 -102 m 256
 -331 -102 -350 -123 -350 -146 c 256
 -350 -171 -329 -190 -306 -190 c 256
 -281 -190 -262 -169 -262 -146 c 256
 -262 -121 -283 -102 -306 -102 c 256
EndSplineSet
Validated: 1
Substitution2: "Single Substitution lookup 21 subtable" b
Substitution2: "Single Substitution lookup 22 subtable" uni0E39.alt1
Substitution2: "Single Substitution lookup 21 subtable" b
Substitution2: "Single Substitution lookup 22 subtable" uni0E39.alt1
EndChar

StartChar: uni0E3A
Encoding: 3642 3642 269
Width: 0
VWidth: 1507
Flags: W
HStem: -163 103<-160.544 -77.4557>
VStem: -170 102<-153.982 -68.9574>
LayerCount: 2
Fore
SplineSet
-119 -163 m 256
 -149 -163 -170 -139 -170 -112 c 256
 -170 -81 -147 -60 -119 -60 c 256
 -91 -60 -68 -81 -68 -112 c 256
 -68 -142 -92 -163 -119 -163 c 256
EndSplineSet
Validated: 1
Substitution2: "Single Substitution lookup 21 subtable" c
Substitution2: "Single Substitution lookup 22 subtable" uni0E3A.alt1
Substitution2: "Single Substitution lookup 21 subtable" c
Substitution2: "Single Substitution lookup 22 subtable" uni0E3A.alt1
EndChar

StartChar: uni0E3F
Encoding: 3647 3647 270
Width: 700
VWidth: 1507
Flags: W
HStem: 0 54<151 297 348 540.853> 332 54<151 297 348 474.609> 662 54<151 297 348 475.524>
VStem: 90 61<54 332 386 662> 297 51<-63.0696 0 54 332 386 662 716 779.07> 535 60<450.774 598.905> 595 61<107.913 277.127>
LayerCount: 2
Fore
SplineSet
595 525 m 0
 595 474 568 406 512 377 c 1
 617 354 656 264 656 194 c 0
 656 84 584 -0 475 0 c 2
 348 0 l 1
 348 -33 l 2
 348 -67 331 -84 297 -84 c 1
 297 0 l 1
 121 0 l 2
 104 0 90 15 90 30 c 2
 90 686 l 2
 90 704 105 716 121 716 c 2
 297 716 l 1
 297 749 l 2
 297 783 314 800 348 800 c 1
 348 716 l 1
 415 716 l 2
 511 716 595 630 595 525 c 0
595 194 m 0
 595 285 538 332 475 332 c 2
 348 332 l 1
 348 54 l 1
 475 54 l 2
 529 54 595 91 595 194 c 0
535 525 m 256
 535 594 480 662 415 662 c 2
 348 662 l 1
 348 386 l 1
 415 386 l 2
 481 386 535 457 535 525 c 256
151 54 m 1
 297 54 l 1
 297 332 l 1
 151 332 l 1
 151 54 l 1
151 386 m 1
 297 386 l 1
 297 662 l 1
 151 662 l 1
 151 386 l 1
EndSplineSet
Validated: 1
EndChar

StartChar: uni0E40
Encoding: 3648 3648 271
Width: 322
VWidth: 1507
Flags: W
HStem: -9 45<143.806 224.609> 133 45<143.231 224.609> 586 20G<132 148>
VStem: 90 58<157.209 571.772> 90 46<43.8387 125.762> 232 45<43.8928 125.93>
LayerCount: 2
Fore
SplineSet
184 -9 m 256xf4
 130 -9 90 33 90 84 c 2xec
 90 543 l 2
 90 578 116 606 148 606 c 1
 148 178 l 1
 138 172 130 164 124 154 c 1
 125 149 l 1
 137 168 157 178 184 178 c 0
 235 178 277 139 277 84 c 256
 277 30 235 -9 184 -9 c 256xf4
184 133 m 256
 155 133 136 113 136 84 c 256
 136 55 156 36 184 36 c 256
 213 36 232 56 232 84 c 256
 232 113 213 133 184 133 c 256
EndSplineSet
Validated: 1
EndChar

StartChar: uni0E42
Encoding: 3650 3650 273
Width: 426
VWidth: 1507
Flags: W
HStem: -9 45<247.806 328.609> 133 45<247.231 328.609> 942 51<95.0889 245.291>
VStem: 194 58<157.209 759.521> 194 46<43.8387 125.762> 336 45<43.8928 125.93>
LayerCount: 2
Fore
SplineSet
288 133 m 256xec
 259 133 240 113 240 84 c 256
 240 55 260 36 288 36 c 256
 317 36 336 56 336 84 c 256
 336 113 317 133 288 133 c 256xec
169 993 m 0
 208 993 292 981 333 895 c 1
 335 900 l 1
 332 909 327 918 320 928 c 1
 350 984 l 1
 362 978 380 966 380 940 c 0
 380 931 378 922 374 913 c 2
 348 859 l 2
 342 846 332 841 323 841 c 0
 313 841 303 848 298 859 c 0
 282 893 246 942 169 942 c 256
 95 942 55 895 45 843 c 1
 205 805 l 2
 232 799 252 774 252 740 c 2
 252 178 l 1xf4
 242 172 234 164 228 154 c 1
 229 149 l 1
 241 168 261 178 288 178 c 0
 339 178 381 139 381 84 c 256
 381 30 339 -9 288 -9 c 256
 234 -9 194 33 194 84 c 2xec
 194 755 l 1xf4
 3 806 -14 793 -14 829 c 0
 -14 908 56 993 169 993 c 0
EndSplineSet
Validated: 1
EndChar

StartChar: uni0E43
Encoding: 3651 3651 274
Width: 426
VWidth: 1507
Flags: W
HStem: -9 45<247.806 328.609> 133 45<247.231 328.609> 699 46<100.744 182.609> 841 39<101.927 180.839> 942 51<133.924 263.923>
VStem: 35 58<753.287 868.225> 190 45<47.9531 122.437 752.806 834.201> 194 58<157.209 626.949> 315 56<758.503 890.707> 336 45<43.8928 125.93>
LayerCount: 2
Fore
SplineSet
288 133 m 256xfc40
 259 133 240 113 240 84 c 256
 240 55 260 36 288 36 c 256
 317 36 336 56 336 84 c 256
 336 113 317 133 288 133 c 256xfc40
142 841 m 256
 115 841 93 822 93 793 c 256
 93 764 115 745 142 745 c 256
 171 745 190 765 190 793 c 256xfe
 190 822 170 841 142 841 c 256
203 993 m 256
 292 993 371 919 371 824 c 0xfe80
 371 716 252 693 252 511 c 2
 252 178 l 1
 242 172 234 164 228 154 c 1
 229 149 l 1
 241 168 261 178 288 178 c 0
 339 178 381 139 381 84 c 256xfd40
 381 30 339 -9 288 -9 c 256
 234 -9 194 33 194 84 c 2
 194 511 l 2
 194 692 315 732 315 824 c 0xfd80
 315 886 263 942 203 942 c 0
 137 942 105 896 93 871 c 1
 83 861 76 851 72 841 c 1
 74 837 l 1
 86 872 127 880 142 880 c 0
 193 880 235 845 235 793 c 0
 235 739 193 699 142 699 c 0
 65 699 35 772 35 824 c 0
 35 922 117 993 203 993 c 256
EndSplineSet
Validated: 1
EndChar

StartChar: uni0E44
Encoding: 3652 3652 275
Width: 425
VWidth: 1507
Flags: W
HStem: -9 45<247.806 328.609> 133 45<247.231 328.609>
VStem: 194 58<157.209 660.105> 194 46<43.8387 125.762> 292 46<786.446 933.546> 336 45<43.8928 125.93>
LayerCount: 2
Fore
SplineSet
288 133 m 256xd4
 259 133 240 113 240 84 c 256
 240 55 260 36 288 36 c 256
 317 36 336 56 336 84 c 256
 336 113 317 133 288 133 c 256xd4
274 994 m 0
 287 994 338 947 338 862 c 0
 338 763 252 741 252 511 c 2
 252 178 l 1xe8
 242 172 234 164 228 154 c 1
 229 149 l 1
 241 168 261 178 288 178 c 0
 339 178 381 139 381 84 c 256
 381 30 339 -9 288 -9 c 256
 234 -9 194 33 194 84 c 2xd4
 194 511 l 2
 194 719 292 771 292 862 c 0xe8
 292 889 287 914 276 935 c 1
 170 764 l 2
 165 755 157 751 146 751 c 0
 136 751 128 755 122 764 c 2
 24 919 l 2
 19 928 16 937 16 946 c 0
 16 963 24 982 39 993 c 1
 151 812 l 1
 256 980 l 2
 262 989 268 994 274 994 c 0
EndSplineSet
Validated: 1
EndChar

StartChar: uni0E45
Encoding: 3653 3653 276
Width: 545
VWidth: 1507
Flags: W
HStem: 555 51<164.517 323.992>
VStem: 36 54<388.293 481.511> 398 57<-208.91 480.63>
LayerCount: 2
Fore
SplineSet
244 606 m 0
 355 606 455 533 455 405 c 2
 455 -179 l 2
 455 -213 432 -243 398 -243 c 1
 398 405 l 2
 398 483 337 555 244 555 c 0
 160 555 90 492 90 405 c 2
 90 391 l 2
 90 386 91 382 93 377 c 1
 63 377 36 399 36 427 c 0
 36 494 109 606 244 606 c 0
EndSplineSet
Validated: 1
EndChar

StartChar: uni0E46
Encoding: 3654 3654 277
Width: 563
VWidth: 1507
Flags: W
HStem: 277 46<114.431 194.609> 419 41<115.942 192.804> 488 59<244.467 288.584> 586 20G<174.5 200.5 331.5 360>
VStem: 62 45<331.419 411.7> 202 45<330.806 411.364> 416 57<-209.796 517.25>
LayerCount: 2
Fore
SplineSet
350 556 m 1
 283 489 276 488 266 488 c 0
 255 488 249 492 185 556 c 1
 147 540 125 502 116 458 c 1
 106 453 98 446 93 436 c 1
 95 431 l 1
 107 450 127 460 154 460 c 0
 205 460 247 424 247 371 c 256
 247 317 205 277 154 277 c 0
 104 277 62 317 62 371 c 2
 62 434 l 2
 62 561 155 606 194 606 c 0
 207 606 267 547 267 547 c 1
 267 547 324 606 339 606 c 0
 381 606 473 558 473 434 c 2
 473 -179 l 2
 473 -215 448 -243 416 -243 c 1
 416 434 l 2
 416 458 409 532 350 556 c 1
202 371 m 0
 202 395 184 419 154 419 c 0
 126 419 107 396 107 371 c 0
 107 342 128 323 154 323 c 0
 183 323 202 343 202 371 c 0
EndSplineSet
Validated: 1
EndChar

StartChar: uni0E47
Encoding: 3655 3655 278
Width: 0
VWidth: 1507
Flags: W
HStem: 687 35<-224.624 -196> 834 43<-205.531 -138.08> 916 49<-376.178 -133.526>
VStem: -470 54<761.758 878.826> -368 29<734.391 762.363> -252 42<762.31 829.792> -134 44<762.832 829.987>
LayerCount: 2
Fore
SplineSet
-202 965 m 2
 -147 965 -111 997 -90 1034 c 1
 -76 1023 -68 1007 -68 988 c 0
 -68 945 -124 916 -202 916 c 2
 -304 916 l 2
 -376 916 -416 868 -416 829 c 0
 -416 803 -412 767 -365 734 c 1
 -367 740 -368 747 -368 753 c 0
 -368 793 -327 813 -311 813 c 0
 -270 813 -310 742 -225 731 c 1
 -217 725 -207 722 -196 722 c 1
 -191 724 l 1
 -241 729 -252 781 -252 797 c 0
 -252 844 -216 877 -172 877 c 256
 -127 877 -90 845 -90 796 c 0
 -90 722 -158 687 -202 687 c 256
 -279 687 -319 722 -330 763 c 1
 -336 757 -339 750 -339 742 c 0
 -339 720 -321 715 -321 703 c 0
 -321 694 -330 687 -344 687 c 0
 -405 687 -470 740 -470 829 c 256
 -470 920 -380 965 -304 965 c 2
 -202 965 l 2
-134 796 m 0
 -134 817 -149 834 -172 834 c 256
 -195 834 -210 817 -210 796 c 0
 -210 776 -194 758 -172 758 c 256
 -149 758 -134 776 -134 796 c 0
EndSplineSet
Validated: 1
Substitution2: "Single Substitution lookup 22 subtable" uni0E47.alt1
Substitution2: "Single Substitution lookup 22 subtable" uni0E47.alt1
EndChar

StartChar: uni0E4D
Encoding: 3661 3661 284
Width: 0
VWidth: 1507
Flags: W
HStem: 686 38<-160.783 -77.5187> 841 38<-159.709 -78.3782>
VStem: -219 44<736.259 828.461> -63 43<736.259 828.461>
LayerCount: 2
Fore
SplineSet
-119 686 m 256
 -176 686 -219 730 -219 782 c 256
 -219 840 -171 879 -119 879 c 256
 -67 879 -20 840 -20 782 c 256
 -20 730 -63 686 -119 686 c 256
-119 841 m 256
 -153 841 -175 813 -175 782 c 256
 -175 751 -153 724 -119 724 c 256
 -85 724 -63 751 -63 782 c 256
 -63 813 -85 841 -119 841 c 256
EndSplineSet
Validated: 1
Substitution2: "Single Substitution lookup 22 subtable" uni0E4D.alt1
Substitution2: "Single Substitution lookup 22 subtable" uni0E4D.alt1
EndChar

StartChar: uni0E4E
Encoding: 3662 3662 285
Width: 0
VWidth: 1507
Flags: W
HStem: 677 42<-251.8 -140.156> 844 30<-192.286 -144.523> 965 42<-172.493 -73.6306>
VStem: -307 48<728.047 806.815> -246 49<875.814 941.797> -66 29<923.828 951.056>
LayerCount: 2
Fore
SplineSet
-231 862 m 1
 -242 874 -246 891 -246 903 c 0
 -246 956 -185 1007 -118 1007 c 0
 -64 1007 -37 972 -37 949 c 0
 -37 938 -47 921 -61 921 c 0
 -63 921 -64 922 -66 922 c 1
 -66 948 -93 965 -118 965 c 0
 -170 965 -197 921 -197 903 c 0
 -197 886 -182 874 -163 874 c 0
 -160 874 l 0
 -156 874 -144 872 -144 863 c 0
 -144 854 -151 844 -160 844 c 0
 -195 841 -259 812 -259 758 c 0
 -259 735 -230 719 -208 719 c 0
 -149 719 -118 758 -109 770 c 1
 -99 765 -94 753 -94 739 c 0
 -94 703 -152 677 -208 677 c 0
 -240 677 -307 693 -307 758 c 0
 -307 812 -260 848 -231 862 c 1
EndSplineSet
Validated: 1
Substitution2: "Single Substitution lookup 22 subtable" uni0E4E.alt1
Substitution2: "Single Substitution lookup 22 subtable" uni0E4E.alt1
EndChar

StartChar: uni0E4F
Encoding: 3663 3663 286
Width: 688
VWidth: 1507
Flags: W
HStem: -9 51<254.049 436.152> 95 54<284.69 406.48> 342 53<284.953 406.269> 448 52<255.491 436.77>
VStem: 90 53<155.342 334.749> 196 53<183.881 306.073> 442 52<184.067 305.051> 547 53<155.317 337.926>
LayerCount: 2
Fore
SplineSet
345 149 m 256
 402 149 442 193 442 246 c 0
 442 297 401 342 345 342 c 256
 288 342 249 296 249 246 c 0
 249 189 292 149 345 149 c 256
345 395 m 256
 428 395 494 328 494 246 c 256
 494 162 428 95 345 95 c 256
 259 95 196 165 196 246 c 256
 196 326 260 395 345 395 c 256
345 42 m 0
 463 42 547 138 547 246 c 0
 547 355 463 448 345 448 c 0
 235 448 143 361 143 246 c 256
 143 128 237 42 345 42 c 0
90 246 m 256
 90 389 204 500 345 500 c 0
 485 500 600 386 600 246 c 0
 600 98 482 -9 345 -9 c 256
 209 -9 90 98 90 246 c 256
EndSplineSet
Validated: 1
EndChar

StartChar: uni0E50
Encoding: 3664 3664 287
Width: 694
VWidth: 1507
Flags: W
HStem: -9 51<254.811 436.976> 405 52<255.043 440.436>
VStem: 90 58<143.049 305.761> 547 57<141.212 304.292>
LayerCount: 2
Fore
SplineSet
90 225 m 256
 90 343 195 457 347 457 c 256
 489 457 604 353 604 225 c 256
 604 89 479 -9 347 -9 c 256
 208 -9 90 96 90 225 c 256
347 405 m 256
 235 405 148 323 148 223 c 256
 148 116 245 42 347 42 c 256
 445 42 547 114 547 223 c 256
 547 319 461 405 347 405 c 256
EndSplineSet
Validated: 1
EndChar

StartChar: uni0E51
Encoding: 3665 3665 288
Width: 694
VWidth: 1507
Flags: W
HStem: -65 41<406.17 434.083> 42 60<219.893 339.785> 200 46<259.38 342.255> 405 52<252.783 435.601>
VStem: 90 58<138.368 302.298> 205 47<109.906 192.581> 350 45<110.231 192.407> 547 57<96.367 285.007>
LayerCount: 2
Fore
SplineSet
90 213 m 0
 90 359 205 457 350 457 c 0
 488 457 604 339 604 181 c 0
 604 30 470 -65 429 -65 c 0
 414 -65 388 -53 378 -24 c 1
 440 -20 547 66 547 181 c 0
 547 289 478 405 350 405 c 0
 243 405 148 335 148 213 c 0
 148 145 188 111 217 99 c 1
 226 89 239 82 255 77 c 1
 259 78 l 1
 236 86 205 108 205 152 c 0
 205 203 245 246 300 246 c 256
 355 246 395 203 395 152 c 0
 395 75 314 42 257 42 c 0
 152 42 90 117 90 213 c 0
350 152 m 256
 350 181 328 200 300 200 c 256
 271 200 252 180 252 152 c 256
 252 124 271 102 300 102 c 256
 330 102 350 125 350 152 c 256
EndSplineSet
Validated: 1
EndChar

StartChar: uni0E52
Encoding: 3666 3666 289
Width: 694
VWidth: 1507
Flags: W
HStem: -9 51<244.068 451.366> 131 45<251.678 333.137> 274 47<251.135 334.627> 352 105<402 473> 352 53<378.101 425.44> 411 46<282.449 344.564>
VStem: 90 58<120.891 487.305> 197 58<299.027 382.293> 197 47<183.837 266.808> 342 45<184.617 266.677> 549 57<122.702 370.516>
LayerCount: 2
Fore
SplineSet
321 411 m 1xe760
 303 407 255 388 255 321 c 1xe760
 246 316 238 308 232 297 c 1
 234 292 l 1
 246 311 265 321 292 321 c 0
 347 321 387 277 387 226 c 256
 387 175 347 131 292 131 c 256
 237 131 197 176 197 226 c 2xe6e0
 197 304 l 2
 197 372 252 457 330 457 c 0
 348 457 401 405 401 405 c 1xef60
 401 405 458 457 473 457 c 0xf360
 525 457 606 405 606 304 c 2
 606 185 l 2
 606 51 448 -9 348 -9 c 0
 235 -9 90 59 90 185 c 2
 90 383 l 2
 90 468 63 514 18 540 c 1
 37 560 60 560 64 560 c 0
 115 560 148 469 148 383 c 2
 148 185 l 2
 148 86 266 42 348 42 c 256
 446 42 549 98 549 185 c 2
 549 304 l 2
 549 377 492 407 482 411 c 1xe760
 461 397 423 352 402 352 c 0xf360
 383 352 321 411 321 411 c 1xe760
342 226 m 256
 342 254 323 274 292 274 c 256
 263 274 244 254 244 226 c 256xe2e0
 244 198 263 176 292 176 c 256
 322 176 342 198 342 226 c 256
EndSplineSet
Validated: 1
EndChar

StartChar: uni0E53
Encoding: 3667 3667 290
Width: 694
VWidth: 1507
Flags: W
HStem: -9 45<145.4 225.664> 134 47<143.879 225.725> 405 52<180.158 292.295 402.093 521.602>
VStem: 56 58<145.865 315.808> 234 46<44.6172 126.503> 318 57<151.949 378.831> 547 57<22.9929 378.531>
LayerCount: 2
Fore
SplineSet
347 407 m 1
 372 435 411 457 461 457 c 0
 544 457 604 396 604 332 c 2
 604 54 l 2
 604 17 580 -9 547 -9 c 1
 547 332 l 2
 547 371 508 405 461 405 c 256
 415 405 375 370 375 332 c 2
 375 179 l 2
 375 162 362 151 347 151 c 256
 332 151 318 162 318 179 c 2
 318 332 l 2
 318 364 287 405 232 405 c 0
 164 405 114 304 114 209 c 0
 114 192 115 177 118 161 c 1
 110 152 104 142 101 131 c 1
 102 127 l 1
 112 158 149 181 185 181 c 0
 240 181 280 137 280 86 c 256
 280 35 240 -9 185 -9 c 0
 106 -9 56 93 56 207 c 0
 56 344 126 457 232 457 c 0
 282 457 323 435 347 407 c 1
234 86 m 256
 234 115 212 134 185 134 c 256
 158 134 136 115 136 86 c 256
 136 58 156 36 185 36 c 256
 214 36 234 58 234 86 c 256
EndSplineSet
Validated: 1
EndChar

StartChar: uni0E54
Encoding: 3668 3668 291
Width: 694
VWidth: 1507
Flags: W
HStem: 0 51<238.336 426.935 454.375 572.101> 128 45<338.277 420.776> 273 45<339.031 421.078> 396 52<237.4 545.289>
VStem: 90 58<142.162 307.486> 283 47<182.658 264.078> 430 45<181.922 263.776>
LayerCount: 2
Fore
SplineSet
469 448 m 2
 543 448 603 505 629 561 c 1
 643 552 657 533 657 513 c 0
 657 503 654 492 645 482 c 0
 596 424 539 396 469 396 c 2
 321 396 l 2
 231 396 148 324 148 223 c 256
 148 131 225 51 321 51 c 2
 383 51 l 1
 400 43 405 42 428 36 c 1
 433 38 l 1
 363 52 283 112 283 223 c 0
 283 278 330 318 380 318 c 256
 435 318 475 273 475 223 c 256
 475 168 430 128 380 128 c 0
 362 128 345 136 335 145 c 1
 336 140 l 1
 348 132 356 129 371 125 c 1
 417 75 489 57 546 57 c 0
 575 57 603 33 604 0 c 1
 321 0 l 2
 196 0 90 89 90 223 c 0
 90 339 183 448 321 448 c 2
 469 448 l 2
380 273 m 256
 350 273 330 250 330 223 c 256
 330 193 353 173 380 173 c 256
 410 173 430 196 430 223 c 256
 430 253 407 273 380 273 c 256
EndSplineSet
Validated: 1
EndChar

StartChar: uni0E55
Encoding: 3669 3669 292
Width: 694
VWidth: 1507
Flags: W
HStem: 0 51<238.336 426.935 454.375 572.101> 128 45<338.277 420.776> 273 45<339.031 421.078> 396 46<337.781 422.219 464 532.955> 541 45<339.006 421.259>
VStem: 90 58<142.162 307.19> 283 47<182.658 264.078 450.097 532.078> 430 45<181.922 263.776 449.913 531.813>
LayerCount: 2
Fore
SplineSet
380 541 m 256
 350 541 330 518 330 491 c 256
 330 462 352 442 380 442 c 256
 408 442 430 462 430 491 c 256
 430 521 407 541 380 541 c 256
321 0 m 2
 196 0 90 89 90 223 c 0
 90 342 181 435 295 446 c 1
 288 459 285 474 285 491 c 0
 285 546 329 586 380 586 c 256
 431 586 475 546 475 491 c 0
 475 476 471 462 464 448 c 1
 563 448 614 530 629 561 c 1
 643 552 657 533 657 513 c 0
 657 503 654 492 645 482 c 0
 596 424 539 396 469 396 c 2
 321 396 l 2
 231 396 148 324 148 223 c 256
 148 131 225 51 321 51 c 2
 383 51 l 1
 400 43 405 42 428 36 c 1
 433 38 l 1
 363 52 283 112 283 223 c 0
 283 278 330 318 380 318 c 256
 435 318 475 273 475 223 c 256
 475 168 430 128 380 128 c 0
 362 128 345 136 335 145 c 1
 336 140 l 1
 348 132 356 129 371 125 c 1
 417 75 489 57 546 57 c 0
 575 57 603 33 604 0 c 1
 321 0 l 2
380 273 m 256
 350 273 330 250 330 223 c 256
 330 193 353 173 380 173 c 256
 410 173 430 196 430 223 c 256
 430 253 407 273 380 273 c 256
EndSplineSet
Validated: 1
EndChar

StartChar: uni0E56
Encoding: 3670 3670 293
Width: 694
VWidth: 1507
Flags: W
HStem: -9 51<277.698 456.111> 89 42<218.226 300.863> 229 45<218.423 300.259> 405 52<261.237 438.43>
VStem: 161 49<117.083 220.56> 309 45<139.329 219.813> 547 57<134.497 301.706>
LayerCount: 2
Fore
SplineSet
347 405 m 0
 254 405 201 334 188 334 c 0
 148 334 182 408 118 481 c 0
 96 505 72 523 45 534 c 1
 60 558 85 560 92 560 c 0
 103 560 114 557 125 550 c 0
 171 512 199 467 208 415 c 1
 252 443 305 457 347 457 c 0
 472 457 604 364 604 223 c 256
 604 96 511 -9 371 -9 c 0
 253 -9 161 70 161 160 c 0
 161 247 220 274 259 274 c 0
 310 274 354 234 354 179 c 256
 354 125 309 89 259 89 c 0
 241 89 224 97 214 106 c 1
 216 101 l 1
 225 95 235 90 246 87 c 1
 274 57 316 42 371 42 c 0
 472 42 547 121 547 223 c 0
 547 321 455 405 347 405 c 0
259 229 m 256
 230 229 210 207 210 179 c 256
 210 150 232 131 259 131 c 256
 287 131 309 150 309 179 c 256
 309 209 286 229 259 229 c 256
EndSplineSet
Validated: 1
EndChar

StartChar: uni0E57
Encoding: 3671 3671 294
Width: 694
VWidth: 1507
Flags: W
HStem: -9 45<145.125 225.813> 134 47<143.879 227.255> 405 52<164.392 263.06 351.937 450.888>
VStem: 58 57<146.338 341.901> 235 45<44.7413 125.462> 279 57<185.914 388.767> 467 58<65 387.959> 595 58<112.408 488.574>
LayerCount: 2
Fore
SplineSet
235 86 m 256xfb
 235 115 213 134 185 134 c 256
 158 134 136 115 136 86 c 256
 136 58 156 36 185 36 c 256
 215 36 235 59 235 86 c 256xfb
653 181 m 2
 653 44 514 -11 495 -11 c 0
 480 -11 467 5 467 20 c 2
 467 350 l 2
 467 372 442 405 401 405 c 0
 362 405 336 372 336 350 c 2
 336 214 l 2
 336 198 324 185 307 185 c 0
 288 185 279 195 279 214 c 2
 279 350 l 2xf7
 279 372 254 405 213 405 c 0
 154 405 115 332 115 220 c 0
 115 197 116 178 118 161 c 1
 110 152 104 142 101 131 c 1
 102 127 l 1
 112 158 149 181 185 181 c 0
 240 181 280 137 280 86 c 256
 280 35 240 -9 185 -9 c 0
 83 -9 58 138 58 221 c 0
 58 407 148 457 213 457 c 0
 252 457 283 444 307 418 c 1
 332 444 363 457 401 457 c 0
 472 457 525 406 525 350 c 2
 525 65 l 1
 553 80 595 126 595 181 c 2
 595 383 l 2
 595 472 629 560 680 560 c 0
 696 560 713 553 725 540 c 1
 681 514 653 469 653 383 c 2
 653 181 l 2
EndSplineSet
Validated: 1
EndChar

StartChar: uni0E58
Encoding: 3672 3672 295
Width: 694
VWidth: 1507
Flags: W
HStem: -9 51<401.13 519.564> 69 47<468.463 551.907> 214 45<468.638 550.137> 396 52<237.4 546.355>
VStem: 90 58<118.458 307.486> 416 45<123.634 205.971> 559 45<97.0717 205.383>
LayerCount: 2
Fore
SplineSet
470 448 m 2
 565 448 616 534 629 561 c 1
 654 547 658 523 658 513 c 0
 658 481 582 396 470 396 c 2
 321 396 l 2
 231 396 148 324 148 223 c 0
 148 127 191 63 249 44 c 1
 253 45 l 1
 241 49 234 52 225 60 c 1
 231 137 287 176 311 176 c 0
 349 176 326 133 386 76 c 0
 409 53 437 42 470 42 c 0
 475 42 498 44 522 66 c 1
 544 72 551 76 564 89 c 1
 559 90 l 1
 549 77 530 69 509 69 c 0
 453 69 416 115 416 164 c 256
 416 213 453 259 509 259 c 256
 564 259 604 215 604 164 c 0
 604 36 524 -9 470 -9 c 0
 366 -9 315 69 297 107 c 1
 286 94 279 77 279 64 c 0
 279 43 291 29 291 18 c 0
 291 10 285 -9 262 -9 c 0
 152 -9 90 117 90 223 c 0
 90 339 183 448 321 448 c 2
 470 448 l 2
461 164 m 256
 461 135 481 116 509 116 c 256
 540 116 559 136 559 164 c 256
 559 192 539 214 509 214 c 256
 480 214 461 192 461 164 c 256
EndSplineSet
Validated: 1
EndChar

StartChar: uni0E59
Encoding: 3673 3673 296
Width: 694
VWidth: 1507
Flags: W
HStem: -9 75<245.32 359.159> 164 47<284.809 369.255> 405 52<217.191 339.223 445.845 539.257>
VStem: 90 58<124.366 320.579> 232 45<74.6107 156.322> 377 45<74.7826 156.285> 612 53<429.963 532.287>
LayerCount: 2
Fore
SplineSet
327 211 m 256
 382 211 422 166 422 116 c 0
 422 46 352 -9 288 -9 c 0
 159 -9 90 112 90 223 c 0
 90 343 174 457 276 457 c 0
 324 457 364 441 395 410 c 1
 415 436 449 457 485 457 c 0
 522 457 555 445 582 421 c 1
 607 443 612 483 612 511 c 0
 612 527 610 544 606 561 c 1
 639 561 665 540 665 505 c 0
 664 460 654 425 638 402 c 0
 612 366 590 355 578 355 c 0
 547 355 547 405 485 405 c 0
 461 405 440 379 431 363 c 1
 441 346 450 328 458 309 c 2
 482 250 l 2
 576 20 604 53 604 19 c 0
 604 3 590 -10 576 -10 c 0
 571 -10 562 -8 553 2 c 0
 409 168 421 405 276 405 c 0
 199 405 148 306 148 223 c 0
 148 122 198 63 258 45 c 1
 269 32 285 24 307 21 c 1
 306 26 l 1
 267 30 232 68 232 116 c 0
 232 171 277 211 327 211 c 256
377 116 m 256
 377 145 355 164 327 164 c 256
 299 164 277 145 277 116 c 256
 277 86 300 66 327 66 c 256
 357 66 377 89 377 116 c 256
EndSplineSet
Validated: 1
EndChar

StartChar: uni0E5A
Encoding: 3674 3674 297
Width: 743
VWidth: 1507
Flags: W
HStem: -9 21G<427 443.5 597 613.5> 363 52<169.194 340.17> 430 34<152 176.783> 561 45<97.4882 179.973>
VStem: 45 45<472.81 552.791> 187 42<471.556 552.966> 427 57<22.9929 375.397 424 452.546 505.171 573.121> 597 57<22.9929 452.121 504.393 573.121>
LayerCount: 2
Fore
SplineSet
484 424 m 1
 547 446 597 500 597 606 c 1
 629 606 654 578 654 543 c 2
 654 54 l 2
 654 17 630 -9 597 -9 c 1
 597 424 l 1
 609 436 609 441 623 457 c 1
 621 461 l 1
 587 410 533 382 484 369 c 1
 484 54 l 2
 484 17 460 -9 427 -9 c 1
 427 424 l 1
 436 433 442 443 452 457 c 1
 451 461 l 1
 414 408 339 363 258 363 c 0
 170 363 45 416 45 512 c 0
 45 568 90 606 139 606 c 0
 193 606 229 564 229 512 c 0
 229 481 205 432 152 430 c 1
 157 427 l 1
 167 427 172 428 181 430 c 1
 204 420 230 415 258 415 c 0
 336 415 427 469 427 606 c 1
 459 606 484 578 484 543 c 2
 484 424 l 1
139 561 m 256
 111 561 90 541 90 512 c 256
 90 483 112 464 139 464 c 256
 168 464 187 484 187 512 c 256
 187 541 168 561 139 561 c 256
EndSplineSet
Validated: 1
EndChar

StartChar: uni0E5B
Encoding: 3675 3675 298
Width: 1050
VWidth: 1507
Flags: W
HStem: 63 50<244.48 405.795> 222 40<284.304 360.507> 279 18<943.496 974.62> 347 40<284.956 360.416> 493 47<232.559 363.077>
VStem: 116 54<194.73 414.061> 241 39<267.099 341.902> 390 50<358.976 466.024> 502 41<231.82 351> 730 25<299.074 358.826>
LayerCount: 2
Fore
SplineSet
365 304 m 256
 365 333 351 347 323 347 c 256
 294 347 280 333 280 304 c 256
 280 276 294 262 323 262 c 256
 351 262 365 276 365 304 c 256
318 113 m 0
 448 113 502 220 502 362 c 0
 502 393 500 416 497 433 c 1
 552 423 590 370 610 273 c 1
 619 302 624 330 624 357 c 0
 624 378 620 403 612 430 c 1
 653 417 690 373 722 298 c 1
 727 321 730 339 730 354 c 0
 730 366 727 385 722 410 c 1
 765 398 797 356 818 283 c 1
 829 296 834 314 834 336 c 0
 834 348 832 362 829 377 c 1
 847 372 903 323 934 309 c 0
 947 304 963 300 984 297 c 1
 978 285 967 279 950 279 c 0
 915 279 885 292 859 318 c 1
 853 270 839 242 817 235 c 1
 793 235 779 333 755 359 c 1
 755 266 741 220 714 220 c 0
 698 220 681 324 657 351 c 1
 651 252 632 203 600 203 c 0
 586 203 561 324 543 351 c 1
 543 159 468 63 318 63 c 0
 188 63 116 162 116 303 c 0
 116 439 171 540 294 540 c 0
 386 540 440 480 440 384 c 0
 440 293 402 222 323 222 c 0
 275 222 241 261 241 304 c 0
 241 353 277 387 323 387 c 0
 349 387 370 377 387 357 c 1
 387 365 390 388 390 396 c 0
 390 461 359 493 298 493 c 0
 206 493 170 399 170 295 c 0
 170 180 233 113 318 113 c 0
EndSplineSet
Validated: 1
EndChar

StartChar: zerowidthnonjoiner
Encoding: 8204 8204 299
Width: 0
VWidth: 1507
Flags: W
LayerCount: 2
Back
SplineSet
-26 311 m 2
 -26 345 -8.66667 362 26 362 c 1
 26 -413 l 2
 26 -447 8.66667 -464 -26 -464 c 1
 -26 311 l 2
EndSplineSet
EndChar

StartChar: zerowidthjoiner
Encoding: 8205 8205 300
Width: 0
VWidth: 1507
Flags: W
LayerCount: 2
Back
SplineSet
26 228 m 1
 26 -413 l 2
 26 -447 8.66667 -464 -26 -464 c 1
 -26 228 l 1
 -57 194 l 1
 -84 220 l 1
 -27 277 l 1
 -84 336 l 1
 -57 362 l 1
 0 304 l 1
 57 362 l 1
 84 336 l 1
 27 277 l 1
 84 220 l 1
 57 194 l 1
 26 228 l 1
EndSplineSet
EndChar

StartChar: lefttorightmark
Encoding: 8206 8206 301
Width: 0
VWidth: 1507
Flags: W
LayerCount: 2
Back
SplineSet
26 253 m 1
 26 -413 l 2
 26 -447 8.66667 -464 -26 -464 c 1
 -26 307 l 1
 176 307 l 1
 151 335 l 1
 175 360 l 1
 255 280 l 1
 175 200 l 1
 151 228 l 1
 176 253 l 1
 26 253 l 1
EndSplineSet
EndChar

StartChar: righttoleftmark
Encoding: 8207 8207 302
Width: 0
VWidth: 1507
Flags: W
LayerCount: 2
Back
SplineSet
26 -413 m 2
 26 -447 8.66667 -464 -26 -464 c 1
 -26 253 l 1
 -176 253 l 1
 -151 228 l 1
 -175 200 l 1
 -255 280 l 1
 -175 360 l 1
 -151 335 l 1
 -176 307 l 1
 26 307 l 1
 26 -413 l 2
EndSplineSet
EndChar

StartChar: endash
Encoding: 8211 8211 303
Width: 602
VWidth: 1507
Flags: W
HStem: 271 55<69.6227 533.598>
LayerCount: 2
Fore
SplineSet
558 326 m 1
 558 282 528 271 503 271 c 2
 45 271 l 1
 45 315 76 326 99 326 c 2
 558 326 l 1
EndSplineSet
Validated: 1
EndChar

StartChar: emdash
Encoding: 8212 8212 304
Width: 1107
VWidth: 1507
Flags: W
HStem: 273 51<65.9304 1041.81>
LayerCount: 2
Fore
SplineSet
45 273 m 1
 45 307 62 324 96 324 c 2
 1063 324 l 1
 1063 290 1046 273 1011 273 c 2
 45 273 l 1
EndSplineSet
Validated: 1
EndChar

StartChar: dagger
Encoding: 8224 8224 311
Width: 575
VWidth: 1507
Flags: W
HStem: 431 54<60 262 312 517>
VStem: 262 50<-131 436 481 743>
LayerCount: 2
Fore
SplineSet
312 481 m 1
 394 481 394 483 517 485 c 1
 517 431 l 1
 449 434 381 436 312 436 c 1
 312 170 317 -115 317 -131 c 1
 259 -131 l 1
 259 -64 262 -64 262 206 c 2
 262 436 l 1
 194 436 127 434 60 431 c 1
 60 485 l 1
 161 483 181 481 262 481 c 1
 262 534 261 547 261 612 c 0
 261 678 259 691 259 743 c 1
 317 743 l 1
 317 691 312 533 312 481 c 1
EndSplineSet
Validated: 1
EndChar

StartChar: daggerdbl
Encoding: 8225 8225 312
Width: 575
VWidth: 1507
Flags: W
HStem: 148 54<60 262 314 517> 431 54<60 262 312 517>
VStem: 262 50<-131 152 197 436 481 743>
LayerCount: 2
Fore
SplineSet
312 481 m 1
 394 481 394 483 517 485 c 1
 517 431 l 1
 449 434 381 436 312 436 c 1
 314 197 l 1
 347 197 372 197 389 198 c 2
 517 202 l 1
 517 148 l 1
 449 151 381 152 312 152 c 1
 315 -46 314 -74 317 -131 c 1
 259 -131 l 1
 262 -75 262 11 262 152 c 1
 194 152 127 151 60 148 c 1
 60 202 l 1
 181 197 222 197 262 197 c 1
 262 436 l 1
 194 436 127 434 60 431 c 1
 60 485 l 1
 161 483 181 481 262 481 c 1
 262 534 261 547 261 612 c 0
 261 678 259 691 259 743 c 1
 317 743 l 1
 317 691 312 533 312 481 c 1
EndSplineSet
Validated: 1
EndChar

StartChar: bullet
Encoding: 8226 8226 313
Width: 539
VWidth: 1507
Flags: W
HStem: 164 269<198.221 343.549>
VStem: 136 268<226.663 370.517>
LayerCount: 2
Fore
SplineSet
270 164 m 256
 193 164 136 226 136 298 c 256
 136 375 197 433 270 433 c 256
 347 433 404 372 404 298 c 256
 404 226 348 164 270 164 c 256
EndSplineSet
Validated: 1
EndChar

StartChar: perthousand
Encoding: 8240 8240 315
Width: 1245
VWidth: 1507
Flags: W
HStem: -5 44<570.338 709.883 960.713 1100.1> 309 44<143.942 285.725> 363 44<568.942 710.143 959.124 1101.57> 677 43<146.418 284.503>
VStem: 65 50<381.379 648.742> 315 50<381.741 648.12> 490 50<67.9844 334.621> 740 50<67.5359 333.594> 880 50<67.9844 333.172> 1130 50<67.9512 334.671>
LayerCount: 2
Fore
SplineSet
1031 407 m 256
 1112 407 1180 360 1180 289 c 2
 1180 113 l 2
 1180 42 1109 -5 1031 -5 c 256
 946 -5 880 50 880 113 c 2
 880 289 l 2
 880 350 941 407 1031 407 c 256
1031 363 m 0
 978 363 930 333 930 289 c 2
 930 113 l 2
 930 71 976 39 1031 39 c 0
 1092 39 1130 77 1130 113 c 2
 1130 289 l 2
 1130 333 1083 363 1031 363 c 0
216 720 m 256
 294 720 365 673 365 603 c 2
 365 427 l 2
 365 357 294 309 216 309 c 256
 126 309 65 366 65 427 c 2
 65 603 l 2
 65 669 132 720 216 720 c 256
216 677 m 0
 159 677 115 644 115 603 c 2
 115 427 l 2
 115 383 162 353 216 353 c 0
 267 353 315 383 315 427 c 2
 315 603 l 2
 315 640 274 677 216 677 c 0
641 407 m 256
 731 407 790 351 790 289 c 2
 790 113 l 2
 790 42 716 -5 641 -5 c 256
 556 -5 490 50 490 113 c 2
 490 289 l 2
 490 350 551 407 641 407 c 256
641 363 m 0
 587 363 540 333 540 289 c 2
 540 113 l 2
 540 72 584 39 641 39 c 0
 700 39 740 76 740 113 c 2
 740 289 l 2
 740 333 692 363 641 363 c 0
580 722 m 2
 590 743 604 754 623 754 c 0
 632 754 642 751 653 746 c 1
 274 -6 l 2
 263 -28 249 -39 232 -39 c 0
 223 -39 213 -36 202 -30 c 1
 580 722 l 2
EndSplineSet
Validated: 1
EndChar

StartChar: minute
Encoding: 8242 8242 316
Width: 195
VWidth: 1507
Flags: W
HStem: 508 217<89.9382 95.1985>
VStem: 51 101
LayerCount: 2
Fore
SplineSet
68 653 m 2
 72 705 109 725 152 725 c 1
 112 565 l 2
 109 542 88 508 51 508 c 1
 68 653 l 2
EndSplineSet
Validated: 1
EndChar

StartChar: second
Encoding: 8243 8243 317
Width: 327
VWidth: 1507
Flags: W
HStem: 508 217<89.9382 95.1985 220.938 226.198>
VStem: 51 232
LayerCount: 2
Fore
SplineSet
68 653 m 2
 72 705 109 725 152 725 c 1
 112 565 l 2
 109 542 88 508 51 508 c 1
 68 653 l 2
199 653 m 2
 203 705 240 725 283 725 c 1
 243 565 l 2
 240 542 219 508 182 508 c 1
 199 653 l 2
EndSplineSet
Validated: 1
EndChar

StartChar: guilsinglleft
Encoding: 8249 8249 318
Width: 292
VWidth: 1507
Flags: W
VStem: 39 223
LayerCount: 2
Fore
SplineSet
39 298 m 256
 39 304 42 311 47 318 c 2
 193 485 l 2
 204 497 216 503 228 503 c 0
 241 503 252 497 262 485 c 1
 99 298 l 1
 262 112 l 1
 252 99 241 93 228 93 c 0
 216 93 204 99 193 112 c 2
 47 279 l 2
 42 286 39 292 39 298 c 256
EndSplineSet
Validated: 1
EndChar

StartChar: Euro
Encoding: 8364 8364 321
Width: 699
VWidth: 1507
Flags: W
HStem: -9 54<255.548 461.903> 264 54<22.1616 75 136 411.838> 399 55<23.2559 75 136 410.744> 671 54<255.595 461.685>
VStem: 75 61<151.212 264 318 399 454 566.439> 580 59<149.693 228.541 487.156 566.619>
LayerCount: 2
Fore
SplineSet
357 -9 m 0
 221 -9 75 83 75 226 c 2
 75 264 l 1
 0 264 l 1
 0 300 18 318 54 318 c 2
 75 318 l 1
 75 399 l 1
 0 399 l 1
 0 436 18 454 54 454 c 2
 75 454 l 1
 75 491 l 2
 75 636 223 725 357 725 c 0
 549 725 639 586 639 513 c 0
 639 471 597 461 579 461 c 1
 580 466 580 470 580 472 c 2
 580 491 l 2
 580 594 477 671 357 671 c 256
 242 671 136 596 136 491 c 2
 136 454 l 1
 434 454 l 1
 434 417 416 399 380 399 c 2
 136 399 l 1
 136 318 l 1
 434 318 l 1
 434 282 416 264 380 264 c 2
 136 264 l 1
 136 226 l 2
 136 129 233 45 357 45 c 256
 485 45 580 131 580 226 c 2
 580 238 l 2
 580 245 580 251 579 256 c 1
 598 256 638 246 638 204 c 0
 638 119 536 -9 357 -9 c 0
EndSplineSet
Validated: 1
EndChar

StartChar: uni2113
Encoding: 8467 8467 322
Width: 321
VWidth: 1507
Flags: W
HStem: -5 58<164.822 248.769> 675 50<168.725 221.387>
VStem: 109 52<55.3281 339 433 671.09> 229 50<496.118 670.631>
LayerCount: 2
Fore
SplineSet
276 90 m 1
 283 82 292 70 292 57 c 0
 292 47 286 38 276 32 c 0
 235 7 201 -5 175 -5 c 0
 131 -5 109 31 109 102 c 2
 109 339 l 1
 92 327 l 2
 82 319 72 315 62 315 c 0
 48 315 34 324 21 341 c 1
 109 401 l 1
 109 594 l 2
 109 681 136 725 190 725 c 0
 246 725 276 689 279 618 c 0
 279 501 240 418 161 368 c 1
 161 101 l 2
 161 69 172 53 194 53 c 0
 213 53 240 65 276 90 c 1
229 601 m 0
 229 642 222 675 193 675 c 0
 172 675 161 648 161 594 c 2
 161 433 l 1
 206 475 229 530 229 601 c 0
EndSplineSet
Validated: 1
EndChar

StartChar: trademark
Encoding: 8482 8482 323
Width: 886
VWidth: 1507
Flags: W
HStem: 674 42<56.5869 166 216 338.099>
VStem: 166 50<329.668 674> 410 50<329.668 583> 743 50<329.668 583>
LayerCount: 2
Fore
SplineSet
351 716 m 1
 351 688 339 674 314 674 c 2
 216 674 l 1
 216 359 l 2
 216 326 199 309 166 309 c 1
 166 674 l 1
 30 674 l 1
 30 702 42 716 66 716 c 2
 351 716 l 1
743 583 m 1
 757 616 l 1
 755 623 l 1
 627 329 l 2
 621 316 612 309 601 309 c 256
 590 309 582 316 576 329 c 2
 448 623 l 1
 446 616 l 1
 460 583 l 1
 460 359 l 2
 460 326 443 309 410 309 c 1
 410 683 l 2
 410 709 426 722 457 722 c 1
 601 387 l 1
 746 722 l 1
 777 722 793 709 793 683 c 2
 793 359 l 2
 793 326 776 309 743 309 c 1
 743 583 l 1
EndSplineSet
Validated: 1
EndChar

StartChar: Ohm
Encoding: 8486 8486 324
Width: 696
VWidth: 1507
Flags: W
HStem: 0 51<75.1933 231 466 621.07> 674 51<258.963 437.639>
VStem: 71 57<328.084 535.561> 231 57<51 178.004> 408 58<51 178.271> 568 58<329.388 535.802>
LayerCount: 2
Fore
SplineSet
626 433 m 0
 626 308 557 211 466 167 c 1
 466 51 l 1
 591 51 l 2
 625 51 642 34 642 0 c 1
 408 0 l 1
 408 203 l 1
 496 231 568 316 568 433 c 0
 568 568 469 674 348 674 c 256
 224 674 128 562 128 433 c 0
 128 315 200 230 288 203 c 1
 288 0 l 1
 54 0 l 1
 54 34 71 51 106 51 c 2
 231 51 l 1
 231 167 l 1
 142 210 71 304 71 433 c 0
 71 583 184 725 348 725 c 256
 501 725 626 594 626 433 c 0
EndSplineSet
Validated: 1
EndChar

StartChar: estimated
Encoding: 8494 8494 325
Width: 480
VWidth: 1507
Flags: W
HStem: -11 46<182.978 314.238> 298 46<110 380> 541 45<178.609 309.865>
VStem: 54 55<146.214 298 344 447.44> 374 40<104.188 143.806>
LayerCount: 2
Fore
SplineSet
380 344 m 1
 369 475 323 541 244 541 c 0
 166 541 121 475 110 344 c 1
 380 344 l 1
414 128 m 0
 414 123 386 -11 244 -11 c 0
 117 -11 54 95 54 307 c 0
 54 492 117 585 244 586 c 0
 371 586 434 490 434 298 c 1
 109 298 l 1
 114 123 159 35 244 35 c 0
 311 35 354 76 374 158 c 1
 401 153 414 143 414 128 c 0
EndSplineSet
Validated: 1
EndChar

StartChar: partialdiff
Encoding: 8706 8706 326
Width: 630
VWidth: 1507
Flags: W
HStem: -9 48<220.386 400.836> 472 48<224.105 405.307>
VStem: 60 55<151.138 350.861> 511 59<151.958 369.29>
LayerCount: 2
Fore
SplineSet
178 764 m 1
 348 696 570 551 570 268 c 0
 570 81 440 -9 311 -9 c 0
 160 -9 60 103 60 247 c 0
 60 418 191 520 315 520 c 0
 334 520 435 517 509 427 c 1
 511 431 l 1
 499 448 489 459 475 469 c 1
 452 504 372 628 155 717 c 1
 178 764 l 1
309 39 m 0
 412 39 511 108 511 261 c 256
 511 314 501 368 463 413 c 1
 391 471 343 472 315 472 c 0
 165 472 115 335 115 249 c 0
 115 136 193 39 309 39 c 0
EndSplineSet
Validated: 1
EndChar

StartChar: Delta
Encoding: 8710 8710 327
Width: 602
VWidth: 1507
Flags: W
HStem: 0 51<77 526> 705 20G<292.697 309.331>
LayerCount: 2
Fore
SplineSet
301 597 m 1
 77 51 l 1
 526 51 l 1
 301 597 l 1
603 0 m 1
 0 0 l 1
 301 725 l 1
 603 0 l 1
EndSplineSet
Validated: 1
EndChar

StartChar: product
Encoding: 8719 8719 328
Width: 737
VWidth: 1507
Flags: W
HStem: 692 51<148 589>
VStem: 90 58<-114.17 692> 589 58<-114.17 692>
LayerCount: 2
Fore
SplineSet
148 -81 m 2
 148 -120 129 -139 90 -139 c 1
 90 743 l 1
 647 743 l 1
 647 -81 l 2
 647 -120 628 -139 589 -139 c 1
 589 692 l 1
 148 692 l 1
 148 -81 l 2
EndSplineSet
Validated: 1
EndChar

StartChar: summation
Encoding: 8721 8721 329
Width: 783
VWidth: 1507
Flags: W
HStem: -130 55<130 730.462> 689 54<130 731.253>
LayerCount: 2
Fore
SplineSet
31 711 m 0
 31 720 37 743 60 743 c 2
 754 743 l 1
 754 715 743 689 699 689 c 2
 130 689 l 1
 550 327 l 2
 557 321 561 314 561 307 c 0
 561 301 557 295 550 288 c 2
 130 -75 l 1
 699 -75 l 2
 736 -75 754 -93 754 -130 c 1
 60 -130 l 2
 37 -130 31 -107 31 -98 c 0
 31 -91 34 -85 39 -80 c 2
 485 306 l 1
 39 693 l 2
 34 698 31 704 31 711 c 0
EndSplineSet
Validated: 1
EndChar

StartChar: minus
Encoding: 8722 8722 330
Width: 602
VWidth: 1507
Flags: W
HStem: 271 55<69.6227 533.598>
LayerCount: 2
Fore
SplineSet
558 326 m 1
 558 282 528 271 503 271 c 2
 45 271 l 1
 45 315 76 326 99 326 c 2
 558 326 l 1
EndSplineSet
Validated: 1
EndChar

StartChar: radical
Encoding: 8730 8730 331
Width: 530
VWidth: 1507
Flags: W
HStem: -9 21G<241 255> 332 49<53.9941 119> 699 20G<509.5 523.5>
LayerCount: 2
Fore
SplineSet
270 3 m 2
 267 -5 260 -9 250 -9 c 0
 232 -9 229 -1 228 3 c 2
 119 332 l 1
 84 332 l 2
 51 332 35 348 35 381 c 1
 139 381 l 2
 150 381 157 376 160 366 c 2
 249 84 l 1
 475 684 l 2
 484 708 499 719 520 719 c 0
 527 719 534 718 541 716 c 1
 270 3 l 2
EndSplineSet
Validated: 1
EndChar

StartChar: infinity
Encoding: 8734 8734 332
Width: 937
VWidth: 1507
Flags: W
HStem: 164 49<175.511 329.255 603.937 762.738> 455 45<177.758 326.361 613.54 754.941>
VStem: 75 55<259.936 406.146> 808 54<260.012 404.927>
LayerCount: 2
Fore
SplineSet
130 338 m 0
 130 282 155 213 253 213 c 0
 338 213 417 302 437 339 c 1
 348 439 289 455 252 455 c 0
 153 455 130 374 130 338 c 0
684 500 m 0
 783 500 862 439 862 326 c 0
 862 285 848 248 818 214 c 0
 790 181 745 164 686 164 c 0
 633 164 585 183 544 222 c 0
 503 260 476 288 463 306 c 1
 400 211 329 164 252 164 c 0
 154 164 75 226 75 341 c 0
 75 381 89 418 118 450 c 0
 146 484 190 500 250 500 c 0
 303 500 351 481 392 443 c 0
 433 405 460 377 473 360 c 1
 536 453 607 500 684 500 c 0
684 210 m 0
 783 210 808 290 808 329 c 0
 808 380 783 452 683 452 c 0
 597 452 519 366 499 327 c 1
 585 226 647 210 684 210 c 0
EndSplineSet
Validated: 1
EndChar

StartChar: integral
Encoding: 8747 8747 333
Width: 375
VWidth: 1507
Flags: W
HStem: -135 48<-48.7846 52.3631> 701 46<271.695 374.871>
LayerCount: 2
Fore
SplineSet
319 747 m 0
 343 747 376 746 376 717 c 0
 376 711 374 705 371 698 c 1
 355 700 l 2
 350 701 344 701 339 701 c 0
 280 701 246 670 237 607 c 2
 143 6 l 2
 128 -88 83 -135 5 -135 c 0
 -24 -135 -50 -131 -50 -104 c 0
 -50 -98 -48 -91 -45 -83 c 1
 -32 -86 -19 -87 -8 -87 c 0
 45 -87 78 -55 90 8 c 2
 182 609 l 2
 196 700 241 747 319 747 c 0
EndSplineSet
Validated: 1
EndChar

StartChar: approxequal
Encoding: 8776 8776 334
Width: 602
VWidth: 1507
Flags: W
HStem: 124 51<328.519 490.11> 190 51<84.4832 257.908> 304 52<327.022 490.11> 371 51<84.4832 258.48>
LayerCount: 2
Fore
SplineSet
164 371 m 0
 103 371 69 339 62 332 c 1
 53 346 48 358 48 368 c 0
 48 411 126 422 164 422 c 0
 265 422 337 356 416 356 c 0
 460 356 500 376 535 415 c 1
 547 405 554 392 554 377 c 0
 554 344 492 304 416 304 c 0
 322 304 252 371 164 371 c 0
164 190 m 0
 103 190 69 158 62 151 c 1
 53 165 48 177 48 187 c 0
 48 230 126 241 164 241 c 0
 265 241 337 175 416 175 c 0
 460 175 500 195 535 234 c 1
 546 225 554 212 554 197 c 0
 554 163 492 124 416 124 c 0
 321 124 250 190 164 190 c 0
EndSplineSet
Validated: 1
EndChar

StartChar: notequal
Encoding: 8800 8800 335
Width: 602
VWidth: 1507
Flags: W
HStem: 182 52<65.9304 216 295 536.807> 363 52<65.9304 306 386 536.807>
LayerCount: 2
Fore
SplineSet
45 182 m 1
 45 217 62 234 96 234 c 2
 241 234 l 1
 306 363 l 1
 45 363 l 1
 45 398 62 415 96 415 c 2
 332 415 l 1
 389 528 l 2
 398 547 411 556 427 556 c 0
 435 556 444 554 454 549 c 1
 386 415 l 1
 558 415 l 1
 558 380 541 363 506 363 c 2
 360 363 l 1
 295 234 l 1
 558 234 l 1
 558 199 541 182 506 182 c 2
 270 182 l 1
 213 69 l 2
 203 50 190 41 174 41 c 0
 166 41 157 43 148 48 c 1
 216 182 l 1
 45 182 l 1
EndSplineSet
Validated: 1
EndChar

StartChar: lessequal
Encoding: 8804 8804 336
Width: 602
VWidth: 1507
Flags: W
HStem: -2 55<69.6227 533.598>
LayerCount: 2
Fore
SplineSet
48 298 m 256
 48 309 52 315 60 318 c 2
 553 511 l 1
 556 502 558 494 558 486 c 0
 558 463 546 453 532 448 c 2
 149 298 l 1
 532 149 l 2
 553 142 558 126 558 111 c 0
 558 103 556 95 553 86 c 1
 60 279 l 2
 52 282 48 288 48 298 c 256
558 53 m 1
 558 9 528 -2 503 -2 c 2
 45 -2 l 1
 45 42 76 53 99 53 c 2
 558 53 l 1
EndSplineSet
Validated: 1
EndChar

StartChar: greaterequal
Encoding: 8805 8805 337
Width: 602
VWidth: 1507
Flags: W
HStem: -2 55<69.6227 532.783>
LayerCount: 2
Fore
SplineSet
564 298 m 256
 564 288 560 282 552 279 c 2
 59 86 l 1
 56 95 54 103 54 111 c 0
 54 134 66 144 80 149 c 2
 463 298 l 1
 80 448 l 1
 59 455 54 471 54 486 c 0
 54 494 56 502 59 511 c 1
 552 318 l 2
 560 315 564 309 564 298 c 256
503 -2 m 2
 45 -2 l 1
 45 42 76 53 99 53 c 2
 558 53 l 1
 558 28 547 -2 503 -2 c 2
EndSplineSet
Validated: 1
EndChar

StartChar: lozenge
Encoding: 9674 9674 338
Width: 592
VWidth: 1507
Flags: W
HStem: 707 20G<290 304>
LayerCount: 2
Fore
SplineSet
297 47 m 1
 484 357 l 1
 297 668 l 1
 110 357 l 1
 297 47 l 1
297 727 m 256
 311 727 322 722 329 711 c 2
 541 357 l 1
 329 3 l 2
 322 -7 311 -12 297 -12 c 256
 283 -12 272 -7 265 3 c 2
 53 357 l 1
 265 711 l 2
 272 722 283 727 297 727 c 256
EndSplineSet
Validated: 1
EndChar

StartChar: dottedcircle
Encoding: 9676 9676 339
Width: 624
VWidth: 1507
Flags: W
HStem: 17 57<283.914 340.024> 36 57<187.852 243.051 380.949 436.148> 90 58<104.914 160.051 463.949 519.086> 172 57<50.7866 106.086 517.914 573.213> 270 57<30.914 86.2134 537.787 593.086> 368 57<50.9495 106.024 517.914 573.051> 449 57<104.976 160.051 463.949 519.086> 503 58<187.852 243.051 380.949 436.148> 523 57<283.976 340.086>
VStem: 30 57<270.949 326.148> 50 57<172.949 228.148 368.949 424.086> 104 57<90.914 147.024 449.914 505.051> 187 57<36.914 92.2134 503.914 560.086> 283 58<17.9495 73.086 523.914 579.051> 380 57<36.914 92.2134 503.914 560.086> 463 57<90.9758 147.086 449.976 505.051> 517 57<172.949 228.148 368.949 424.024> 537 57<270.949 326.148>
LayerCount: 2
Fore
SplineSet
59 270 m 256x1c4e
 44 270 30 281 30 298 c 256
 30 315 43 327 59 327 c 256
 76 327 87 315 87 298 c 256
 87 281 74 270 59 270 c 256x1c4e
565 270 m 256
 548 270 537 283 537 298 c 256
 537 315 548 327 565 327 c 256
 581 327 594 315 594 298 c 256x1c0e40
 594 281 580 270 565 270 c 256
283 552 m 256
 283 569 297 580 312 580 c 256
 327 580 341 569 341 552 c 256
 341 535 328 523 312 523 c 256x1c8e
 295 523 283 536 283 552 c 256
187 532 m 256
 187 548 199 561 216 561 c 256
 233 561 244 547 244 532 c 256
 244 517 233 503 216 503 c 256x1d0e
 199 503 187 516 187 532 c 256
380 532 m 256
 380 547 391 561 408 561 c 256
 425 561 437 548 437 532 c 256
 437 516 425 503 408 503 c 256
 391 503 380 517 380 532 c 256
104 478 m 256x1e1e
 104 495 118 506 133 506 c 256
 150 506 161 493 161 478 c 256
 161 463 150 449 133 449 c 256
 116 449 104 462 104 478 c 256x1e1e
463 478 m 256x1e0f
 463 495 476 506 491 506 c 256
 506 506 520 495 520 478 c 256
 520 461 507 449 491 449 c 256
 474 449 463 463 463 478 c 256x1e0f
50 396 m 256x1c2e
 50 411 61 425 78 425 c 256
 95 425 107 412 107 396 c 256
 107 379 93 368 78 368 c 256
 61 368 50 381 50 396 c 256x1c2e
517 396 m 256x1c0e80
 517 413 530 425 546 425 c 256
 563 425 574 411 574 396 c 256
 574 379 561 368 546 368 c 256
 531 368 517 379 517 396 c 256x1c0e80
341 45 m 256
 341 28 327 17 312 17 c 256
 297 17 283 28 283 45 c 256
 283 62 296 74 312 74 c 256x9c0e
 329 74 341 61 341 45 c 256
437 65 m 256
 437 49 425 36 408 36 c 256
 391 36 380 50 380 65 c 256
 380 82 393 93 408 93 c 256x5c0e
 425 93 437 82 437 65 c 256
244 65 m 256
 244 50 233 36 216 36 c 256
 199 36 187 49 187 65 c 256
 187 82 199 93 216 93 c 256
 233 93 244 80 244 65 c 256
520 119 m 256x3c0f
 520 102 507 90 491 90 c 256
 474 90 463 104 463 119 c 256
 463 134 474 148 491 148 c 256
 508 148 520 135 520 119 c 256x3c0f
161 119 m 256x3c1e
 161 104 150 90 133 90 c 256
 116 90 104 103 104 119 c 256
 104 136 117 148 133 148 c 256
 150 148 161 134 161 119 c 256x3c1e
574 200 m 256x1c0e80
 574 183 561 172 546 172 c 256
 531 172 517 183 517 200 c 256
 517 217 530 229 546 229 c 256
 563 229 574 217 574 200 c 256x1c0e80
107 200 m 256x1c2e
 107 183 93 172 78 172 c 256
 61 172 50 185 50 200 c 256
 50 217 61 229 78 229 c 256
 94 229 107 217 107 200 c 256x1c2e
EndSplineSet
Validated: 1
EndChar

